<svg width="50" height="50" viewBox="0 0 50 50" fill="none" xmlns="http://www.w3.org/2000/svg">
<circle cx="25" cy="25" r="25" fill="#F8591A"/>
<path d="M36.5152 28.9412C35.0303 28.3149 33.7926 27.0418 32.8698 25.7523C31.8108 24.2717 30.7262 22.8167 29.5395 21.4367C28.4237 20.1406 27.237 18.8984 25.9482 17.776C24.662 16.6551 23.2622 15.5891 21.7207 14.8487C20.6872 14.3503 19.6226 13.9757 18.521 13.6596C18.3961 13.6249 18.0597 13.4721 17.9603 13.6256C17.8993 13.7207 17.946 13.8983 17.9588 14.0033C17.9858 14.2319 18.0128 14.4599 18.0412 14.6875C18.3706 17.4217 18.4955 20.3079 17.6465 22.9629C17.1909 24.3939 16.3604 25.7015 15.2531 26.7152C14.3347 27.5542 13.0245 28.4041 11.7228 28.3434C7.95702 28.1842 9.64701 21.9694 10.3571 19.8764C12.4901 13.6936 18.4874 9.41139 24.9998 9.41139C33.4856 9.41139 40.536 16.5729 40.4813 25C40.4613 27.5043 39.6579 30.2667 36.5152 28.9412ZM43.8683 19.5421C41.5034 11.3504 33.9547 5.35693 24.9998 5.35693C16.0464 5.35693 8.4962 11.3504 6.13115 19.5421C5.28694 22.4682 5.13483 25.5681 5.68644 28.5619C7.36219 37.7109 15.3689 44.6426 24.9998 44.6426C34.6323 44.6426 42.6375 37.7109 44.3158 28.5619C44.8651 25.5676 44.7104 22.4685 43.8683 19.5421Z" fill="white"/>
</svg>
