<svg width="50" height="50" viewBox="0 0 50 50" fill="none" xmlns="http://www.w3.org/2000/svg">
<path d="M25 0C11.2109 0 0 11.2109 0 25C0 38.7891 11.2109 50 25 50C38.7891 50 50 38.7891 50 25C50 11.2109 38.7891 0 25 0Z" fill="#FF5A5F"/>
<path d="M25.0001 31.5834C23.3611 29.5217 22.3969 27.7145 22.0756 26.1682C21.7542 24.9119 21.8827 23.9132 22.4291 23.1723C23.0076 22.3025 23.8753 21.8837 25.0001 21.8837C26.1249 21.8837 26.9927 22.3025 27.5711 23.1723C28.1175 23.9132 28.246 24.9119 27.9246 26.1682C27.5711 27.7467 26.607 29.5507 25.0001 31.5834ZM33.973 36.3511C31.2413 37.543 28.5385 35.6424 26.2246 33.0653C30.0522 28.2621 30.7592 24.5253 29.117 22.106C28.1528 20.7208 26.7709 20.0443 25.0001 20.0443C21.4328 20.0443 19.4692 23.0724 20.2405 26.587C20.6904 28.4876 21.8795 30.6492 23.7756 33.0653C22.3534 34.645 20.4875 36.4369 18.2479 36.641C15.002 37.1242 12.4599 33.9673 13.6169 30.7104L21.8474 13.6305C22.5498 12.3465 23.4168 11.2466 24.9969 11.2466C26.1539 11.2466 27.0537 11.9231 27.4394 12.4708L36.3769 30.7104C37.2526 32.9143 36.1421 35.4122 33.973 36.3511ZM38.1188 30.0661L30.4668 14.1137C29.0206 11.15 27.9921 9.375 25.0001 9.375C22.0434 9.375 20.7868 11.4367 19.5013 14.1137L11.8814 30.0661C10.2424 34.5793 13.6169 38.5417 17.7016 38.5417C17.9587 38.5417 18.2139 38.5094 18.4729 38.5094C20.594 38.2517 22.7826 36.8987 25.0001 34.4795C27.2176 36.8955 29.4062 38.2517 31.5273 38.5094C31.7863 38.5094 32.0415 38.5417 32.2986 38.5417C36.3833 38.5449 39.7578 34.5793 38.1188 30.0661Z" fill="white"/>
</svg>
