<svg width="50" height="50" viewBox="0 0 50 50" fill="none" xmlns="http://www.w3.org/2000/svg">
<path d="M25 0C11.2109 0 0 11.2109 0 25C0 38.7891 11.2109 50 25 50C38.7891 50 50 38.7891 50 25C50 11.2109 38.7891 0 25 0Z" fill="#81B441"/>
<path d="M33.9962 10.6567C21.8751 11.4586 18.2153 22.7667 17.9053 28.5522C17.9053 29.504 14.8488 27.5773 16.6668 19.2711C16.8227 18.559 16.6668 17.7086 16.6668 17.7086C10.3546 23.2608 10.8974 33.7583 18.6572 38.0262C24.6725 41.3347 32.4924 39.2293 35.9512 33.0636C40.0115 25.9957 36.4023 12.0102 33.9962 10.6567Z" fill="white"/>
</svg>
