<svg width="50" height="50" viewBox="0 0 50 50" fill="none" xmlns="http://www.w3.org/2000/svg">
<g clip-path="url(#clip0_2001_310)">
<circle cx="25" cy="25" r="25" fill="#1794D4"/>
<path d="M28.8123 8.87109H25.2199V12.4764H28.8123V8.87109Z" fill="white"/>
<path d="M14.4428 14.2791H18.0352V17.8844H14.4428V14.2791Z" fill="white"/>
<path d="M7.26084 26.792C7.56779 32.0221 10.6713 39.5163 21.6275 39.5163C33.8416 39.5163 39.2901 30.503 40.4875 25.9963C41.9844 25.9963 45.3372 25.095 46.7742 21.4897C45.8761 20.5883 42.2837 20.5883 40.4875 21.4897C40.4875 20.0476 39.5894 16.983 37.7932 16.0817C36.5958 17.2835 34.7397 20.4081 36.8952 23.2923C35.9971 25.0949 33.6022 25.095 32.4048 25.095H8.95168C8.00064 25.095 7.20492 25.8392 7.26084 26.792Z" fill="white"/>
<path d="M12.6466 19.687H9.05424V23.2923H12.6466V19.687Z" fill="white"/>
<path d="M14.4428 19.687H18.0352V23.2923H14.4428V19.687Z" fill="white"/>
<path d="M23.4237 19.687H19.8314V23.2923H23.4237V19.687Z" fill="white"/>
<path d="M25.2199 19.687H28.8123V23.2923H25.2199V19.687Z" fill="white"/>
<path d="M34.2009 19.687H30.6085V23.2923H34.2009V19.687Z" fill="white"/>
<path d="M23.4237 14.2791H19.8314V17.8844H23.4237V14.2791Z" fill="white"/>
<path d="M25.2199 14.2791H28.8123V17.8844H25.2199V14.2791Z" fill="white"/>
</g>
<defs>
<clipPath id="clip0_2001_310">
<rect width="50" height="50" fill="white"/>
</clipPath>
</defs>
</svg>
