<svg width="50" height="50" viewBox="0 0 50 50" fill="none" xmlns="http://www.w3.org/2000/svg">
<circle cx="25" cy="25" r="25" fill="#00A82D"/>
<path d="M19.1071 16.1508C19.1071 16.4706 19.0811 17.0036 18.7693 17.3501C18.4315 17.6699 17.9118 17.6965 17.6 17.6965C15.8459 17.6965 13.4127 17.2557 11.7536 17.9364C14.2857 13.393 19.1908 10.374 19.1591 10.6343C18.9254 12.4321 19.1071 14.3425 19.1071 16.1508ZM24.3559 36.7778C24.3559 34.5659 26.1228 32.7537 28.3055 32.7537C28.9551 32.7537 29.4748 33.2867 29.4748 33.9529C29.4748 34.406 29.2409 34.7791 28.8772 34.9923C28.481 35.2361 27.9322 35.1223 27.578 35.4453C27.3181 35.6585 27.1102 36.0049 27.1102 36.378C27.1102 36.7778 27.2661 37.1509 27.526 37.4174C27.9937 37.8971 28.6173 38.1636 29.2929 38.1636C31.0598 38.1636 32.489 36.6978 32.489 34.8857C32.489 33.26 31.4236 31.8209 30.0205 31.1813C27.891 30.0893 24.6329 30.7108 24.3819 27.2904C23.9913 29.0995 23.1298 32.3273 20.7961 32.3273C13.7464 32.7568 11.2054 27.0464 10.7142 21.0011C10.7142 19.6952 11.4938 18.8158 12.4812 18.6826C14.2481 18.6826 16.015 18.6826 17.7819 18.6826C18.6914 18.6826 19.2111 18.4427 19.5488 18.1229C19.9906 17.6965 20.0945 17.0836 20.0945 16.364C20.0945 14.4896 20.0945 11.6073 20.0945 10.7409C20.0945 9.60943 21.0819 8.92871 22.3551 8.92871C23.1052 8.92871 23.8091 8.95507 24.5378 9.14191C26.1228 9.54166 26.4606 11.1939 26.4606 11.1939C26.4606 11.1939 29.4488 11.7269 30.9559 11.9934C32.385 12.2599 35.9189 12.4998 36.5945 16.1508C38.1795 24.8387 37.2181 33.26 37.1401 33.26C36.0228 41.4682 29.3709 41.0684 29.3709 41.0684C26.9528 41.0684 24.3559 39.4182 24.3559 36.7778ZM32.1512 22.6267C31.2937 22.5468 30.5661 22.8932 30.3063 23.5595C29.9381 24.5036 33.7362 25.2887 33.7362 23.9859C33.6323 23.2397 33.0086 22.7333 32.1512 22.6267Z" fill="white"/>
</svg>
