<svg width="50" height="50" viewBox="0 0 50 50" fill="none" xmlns="http://www.w3.org/2000/svg">
<circle cx="25.7812" cy="25.7812" r="24.2188" fill="#3290E8"/>
<path fill-rule="evenodd" clip-rule="evenodd" d="M34.375 12.5H15.625C13.9214 12.4973 12.503 13.9246 12.5 15.625V34.375C12.5 36.1007 13.8995 37.5 15.625 37.5H34.375C36.0786 37.5027 37.497 36.0754 37.5 34.375V15.625C37.5 13.8993 36.1012 12.5 34.375 12.5ZM28.3326 17.0833C28.3326 16.6236 28.7064 16.25 29.1667 16.25C29.6269 16.25 30 16.6236 30 17.0833V28.2174C30 28.6771 29.6262 29.0507 29.1667 29.0507C28.7255 29.0511 28.3344 28.66 28.3333 28.2174L28.3326 17.0833ZM24.166 16.6618C24.166 16.2014 24.5397 15.8285 25 15.8285C25.4603 15.8285 25.834 16.2014 25.834 16.6618V28.7451C25.834 29.2056 25.4603 29.5785 25 29.5785C24.5588 29.5788 24.1678 29.1878 24.1667 28.7451L24.166 16.6618ZM20 17.0833C20 16.6236 20.3738 16.25 20.8333 16.25C21.2936 16.25 21.6667 16.6236 21.6667 17.0833V28.2174C21.6667 28.6771 21.2936 29.0507 20.8333 29.0507C20.3922 29.0511 20.0011 28.66 20 28.2174V17.0833ZM15.8333 18.75C15.8333 18.2896 16.2064 17.9167 16.6667 17.9167C17.1269 17.9167 17.5 18.2896 17.5 18.75V26.2451C17.5 26.7056 17.1262 27.0785 16.6667 27.0785C16.2123 27.0792 15.8341 26.6986 15.8333 26.2451V18.75ZM33.876 31.4611C33.7479 31.5722 30.6603 34.1618 25 34.1618C19.3397 34.1618 16.2542 31.5715 16.124 31.4604C15.7797 31.1654 15.739 30.6302 16.0341 30.2861C16.3217 29.9513 16.8707 29.9083 17.2065 30.1944C17.255 30.2354 20.0118 32.4951 24.9993 32.4951C30.0491 32.4951 32.7637 30.2188 32.79 30.1965C33.1254 29.9083 33.6764 29.9503 33.9646 30.2861C34.2616 30.6295 34.2214 31.1662 33.876 31.4611ZM34.1667 26.2458C34.1667 26.7056 33.7929 27.0792 33.3333 27.0792C32.879 27.0799 32.5008 26.6993 32.5 26.2458V18.75C32.5 18.2896 32.8731 17.9167 33.3326 17.9167C33.7929 17.9167 34.1667 18.2896 34.1667 18.75V26.2458Z" fill="white"/>
</svg>
