<svg width="50" height="50" viewBox="0 0 50 50" fill="none" xmlns="http://www.w3.org/2000/svg">
<rect width="50" height="50" rx="25" fill="#1275B1"/>
<path d="M18.9617 13.736C18.9617 15.4049 17.5152 16.7577 15.7309 16.7577C13.9465 16.7577 12.5 15.4049 12.5 13.736C12.5 12.0672 13.9465 10.7144 15.7309 10.7144C17.5152 10.7144 18.9617 12.0672 18.9617 13.736Z" fill="white"/>
<path d="M12.9418 18.9788H18.4647V35.7144H12.9418V18.9788Z" fill="white"/>
<path d="M27.3564 18.9788H21.8336V35.7144H27.3564C27.3564 35.7144 27.3564 30.4458 27.3564 27.1516C27.3564 25.1744 28.0315 23.1885 30.7253 23.1885C33.7697 23.1885 33.7513 25.776 33.7372 27.7806C33.7186 30.4009 33.7629 33.0748 33.7629 35.7144H39.2857V26.8817C39.2389 21.2418 37.7693 18.6431 32.9345 18.6431C30.0632 18.6431 28.2834 19.9466 27.3564 21.1259V18.9788Z" fill="white"/>
</svg>
