<svg width="50" height="50" viewBox="0 0 50 50" fill="none" xmlns="http://www.w3.org/2000/svg">
<g clip-path="url(#clip0_2001_307)">
<path d="M25 0C11.2109 0 0 11.2109 0 25C0 38.7891 11.2109 50 25 50C38.7891 50 50 38.7891 50 25C50 11.2109 38.7891 0 25 0Z" fill="#FDDD4C"/>
<path d="M14.0515 31.5184C13.5049 30.6908 14.8798 29.4383 14.3206 28.3866C13.9982 27.78 13.4713 27.4021 12.8385 27.3227C12.2311 27.2465 11.6055 27.4689 11.2067 27.9034C10.5771 28.5885 10.4792 29.5212 10.601 29.8511C10.6455 29.9721 10.7156 30.0051 10.7657 30.0122C11.1087 30.0573 11.3016 29.1772 11.42 28.9939C11.7474 28.4887 12.4907 28.3358 13.004 28.6679C13.9774 29.2974 13.1334 30.3149 13.2062 31.1743C13.277 32.0111 13.7984 32.3474 14.2664 32.3827C14.7217 32.4 15.0401 32.147 15.1205 31.9624C15.3133 31.5216 14.5013 32.1994 14.0515 31.5184Z" fill="black"/>
<path d="M34.3888 23.9214C34.1335 23.8861 33.8544 23.8869 33.5642 23.9214C33.3437 23.6433 33.1463 23.193 33.0348 22.6674C32.8366 21.7324 32.8573 21.0551 33.4105 20.9671C33.9637 20.8791 34.2312 21.4449 34.4294 22.3799C34.5623 23.0084 34.5368 23.5859 34.3888 23.9214Z" fill="black"/>
<path d="M28.3297 24.4777C28.3516 24.6894 28.3593 24.9037 28.3531 25.1009C28.8884 25.1323 29.2675 25.3866 29.3685 25.5479C29.4202 25.6312 29.3995 25.6854 29.3828 25.7105C29.3274 25.7967 29.2087 25.7834 28.9599 25.7555C28.7426 25.7311 28.5086 25.7097 28.2655 25.7209C28.1331 26.1267 27.7407 26.1647 27.4651 25.8645C27.2725 25.9232 26.8942 26.1648 26.7815 25.9023C26.7806 25.772 26.9167 25.5827 27.1634 25.4155C26.995 25.0943 26.8822 24.7504 26.8155 24.3944C26.4658 24.4574 26.1512 24.5553 25.9047 24.6321C25.7889 24.6681 25.3309 24.875 25.2772 24.6419C25.2413 24.4808 25.4921 24.2152 25.7571 24.0235C26.0533 23.8132 26.3819 23.6638 26.7225 23.5775C26.7152 23.0704 26.8446 22.7166 27.213 22.658C27.6699 22.5853 27.953 22.937 28.149 23.5884C28.7011 23.7418 29.2525 24.1221 29.4959 24.5154C29.5906 24.6678 29.6089 24.7856 29.5476 24.8477C29.3946 25.0063 28.5468 24.5466 28.3297 24.4777Z" fill="black"/>
<path d="M31.9602 26.757C32.3105 26.9268 32.6957 26.86 32.8215 26.6078C32.9472 26.3555 32.765 26.0138 32.4147 25.844C32.0645 25.6743 31.6792 25.7411 31.5535 25.9933C31.4277 26.2455 31.61 26.5873 31.9602 26.757Z" fill="black"/>
<path d="M33.6843 25.5046C33.6906 25.1188 33.927 24.8108 34.2112 24.8155C34.4954 24.821 34.7206 25.1369 34.7143 25.5219C34.7079 25.9069 34.4715 26.2149 34.1873 26.2102C33.9032 26.2055 33.6779 25.8896 33.6843 25.5046Z" fill="black"/>
<path fill-rule="evenodd" clip-rule="evenodd" d="M41.3902 30.2291C41.3958 30.2488 41.3879 30.2211 41.3902 30.2291C41.9609 30.2291 42.8572 30.8765 42.8572 32.4409C42.8572 33.9974 42.2029 35.7605 42.0485 36.1518C39.6916 41.7272 34.0664 44.8308 27.3658 44.6343C21.119 44.4513 15.7915 41.1976 13.4601 35.8933C12.0504 35.8949 10.5969 35.2828 9.49211 34.3164C8.32759 33.2981 7.60962 31.9805 7.46953 30.6063C7.36048 29.5361 7.49341 28.5406 7.83329 27.6724L6.52391 26.5771C0.531775 21.5831 19.2731 1.02108 25.2668 6.18163C25.2971 6.20756 27.3061 8.15298 27.3109 8.1577C30.2009 6.94645 37.9444 4.64028 37.9531 10.0088C37.9563 11.7916 36.8053 13.8706 34.9611 15.7571C37.0925 17.7082 36.5304 20.4797 36.8698 23.0226L37.6101 23.2253C39.0214 23.6158 40.0251 24.1367 40.5162 24.6459C41.0073 25.1542 41.2509 25.6468 41.3392 26.2243C41.422 26.6903 41.4109 27.5129 40.7884 28.433C41.0126 29.0265 41.2172 29.6182 41.3902 30.2291ZM13.3542 34.4468C13.5635 34.4515 13.7713 34.4382 13.9751 34.4036C16.1648 34.0351 16.7379 31.6874 16.3773 29.3821C15.9698 26.7791 14.186 25.8613 12.9753 25.7961C12.6386 25.7788 12.3258 25.8087 12.0679 25.8598C9.90682 26.2896 8.68658 28.1046 8.92697 30.4617C9.14427 32.5949 11.33 34.3934 13.3542 34.4468ZM8.45973 26.4993C9.18487 25.4598 10.3701 24.7079 11.7153 24.4494C13.4274 19.9127 16.2866 15.7327 20.0707 12.8562C22.8789 10.5439 25.9076 8.88526 25.9076 8.88526C25.9076 8.88526 24.2766 7.01841 23.7839 6.88091C20.7536 6.0732 14.2091 10.5282 10.0302 16.4147C8.33953 18.7962 5.91896 23.0139 7.07632 25.1833C7.2188 25.452 8.02672 26.1426 8.45973 26.4993ZM33.0276 33.405C33.0324 33.4537 33.0022 33.504 32.9584 33.522C32.9584 33.522 30.5235 34.6401 26.6558 33.4592C26.7949 34.6185 28.2008 35.0579 29.1831 35.2168C33.9756 36.0308 38.4562 33.3256 39.4647 32.6444C39.6379 32.5274 39.4626 32.8281 39.4313 32.8722C38.1967 34.4445 34.8775 36.2649 30.5593 36.2642C28.676 36.2634 26.7935 35.6089 26.1026 34.6024C25.0304 33.0412 26.0493 30.7618 27.8363 30.9991C30.8568 31.3358 33.9534 31.0828 36.7496 29.8017C39.1877 28.6844 40.1087 27.4556 39.9702 26.4601C39.7554 24.9172 37.468 24.676 36.3118 24.3009C35.8088 24.1367 35.5604 24.0055 35.5039 23.0713C35.4792 22.6635 35.4076 21.2406 35.3813 20.6521C35.3352 19.622 35.2094 18.2132 34.3243 17.6318C34.0934 17.4802 33.8371 17.4071 33.5673 17.3929C33.3522 17.3827 33.2246 17.4122 33.156 17.4281C33.1406 17.4317 33.1282 17.4346 33.1184 17.4362C32.6405 17.5164 32.3476 17.7582 32.0022 18.0433C31.9823 18.0598 31.9622 18.0763 31.9419 18.093C30.8379 19.0013 29.9058 19.1498 28.8686 19.1058C28.5456 19.0923 28.2127 19.06 27.8615 19.026C27.5385 18.9947 27.2001 18.9619 26.8397 18.9408L26.3995 18.9157C24.6627 18.8277 22.8001 20.3079 22.4905 22.4105C22.1445 24.7574 23.4563 26.1949 24.3094 27.1298C24.5202 27.3608 24.703 27.5611 24.8259 27.7368C24.9047 27.8429 24.9962 27.9922 24.9962 28.1344C24.9962 28.3041 24.8848 28.4385 24.7757 28.5532C23.0039 30.3517 22.4371 33.2093 23.105 35.5908C23.1885 35.8878 23.2944 36.1722 23.4194 36.4441C24.9858 40.0576 29.8461 41.7406 34.5933 40.21C37.9204 39.1372 40.86 36.545 41.4586 32.9689C41.6011 32.037 41.3918 31.6772 41.1068 31.5035C40.8051 31.3205 40.4438 31.3841 40.4438 31.3841C40.4438 31.3841 40.279 30.2708 39.8126 29.2588C38.4283 30.3368 36.6469 31.0942 35.2906 31.4784C33.1175 32.0938 30.7701 32.3334 28.5245 32.0432C27.6137 31.9255 27.0017 31.8464 26.7394 32.6876C29.7347 33.7703 32.9051 33.3067 32.9051 33.3067C32.9663 33.3005 33.0213 33.3445 33.0276 33.405ZM24.3857 12.3943C22.7476 13.2216 20.9184 14.6948 19.4331 16.3896C19.3806 16.4501 19.4586 16.5334 19.523 16.487C20.8062 15.5654 22.5653 14.709 24.8696 14.1542C27.451 13.5327 29.936 13.7936 31.454 14.137C31.5304 14.1542 31.5782 14.0246 31.5105 13.9869C30.5076 13.4314 28.9681 13.0542 27.8761 13.0464C27.8227 13.0456 27.7925 12.9843 27.8243 12.9419C28.013 12.6913 28.2717 12.4438 28.5081 12.2646C28.5606 12.2238 28.5288 12.1397 28.4619 12.1436C27.1034 12.226 24.0005 13.6408 24.0116 13.5893C24.0912 13.2122 24.3419 12.714 24.4716 12.4815C24.5027 12.4265 24.4422 12.366 24.3857 12.3943Z" fill="black"/>
</g>
<defs>
<clipPath id="clip0_2001_307">
<rect width="50" height="50" fill="white"/>
</clipPath>
</defs>
</svg>
