<svg width="50" height="50" viewBox="0 0 50 50" fill="none" xmlns="http://www.w3.org/2000/svg">
<circle cx="25" cy="25" r="25" fill="white"/>
<path d="M25 50C38.8071 50 50 38.8071 50 25C50 11.1929 38.8071 0 25 0C11.1929 0 0 11.1929 0 25C0 35.1431 6.04053 43.8753 14.7205 47.7956C14.7322 47.5251 14.7453 47.2771 14.7565 47.0644C14.7718 46.7746 14.7837 46.5503 14.7837 46.4243C14.7837 45.6731 15.2945 41.9471 15.2945 41.9471L18.4195 29.1166C17.9387 28.3353 17.5781 26.6827 17.5781 25.4207C17.5781 19.5913 20.8233 18.3293 22.8065 18.3293C25.3305 18.3293 25.9014 21.0637 25.9014 23.0769C25.9014 24.1418 25.3491 25.8086 24.7806 27.5239C24.1782 29.3418 23.5577 31.2142 23.5577 32.4819C23.5577 34.9459 25.9916 36.1779 27.6743 36.1779C32.1214 36.1779 36.2079 30.5889 36.2079 25C36.2079 19.411 33.5938 12.6502 25.0301 12.6502C16.4664 12.6502 12.6202 19.1707 12.6202 24.1586C12.6202 27.524 13.8822 29.988 14.5132 30.4086C14.6935 30.5689 15 31.0637 14.7837 31.7608C14.5673 32.4579 14.1727 34.0144 14.0024 34.7055C13.9824 34.8658 13.7921 35.1382 13.1911 34.9459C12.4399 34.7055 7.66226 31.7007 7.66226 24.1586C7.66226 16.6166 13.5817 7.84253 25.0301 7.84253C36.4784 7.84253 42.3377 15.5348 42.3377 25C42.3377 34.4651 34.6755 40.5048 28.8462 40.5048C24.1827 40.5048 22.3558 38.4215 22.0252 37.3798L20.2524 44.1406C19.8338 45.2622 19.0529 47.2781 18.0899 49.0328C20.2846 49.6626 22.6029 50 25 50Z" fill="#BB0F23"/>
</svg>
