<svg width="50" height="50" viewBox="0 0 50 50" fill="none" xmlns="http://www.w3.org/2000/svg">
<circle cx="25" cy="25" r="25" fill="url(#paint0_linear_2001_533)"/>
<path fill-rule="evenodd" clip-rule="evenodd" d="M16.9495 24.5521C16.3252 23.0297 15.8207 21.5438 15.442 20.1335C14.7093 20.2929 14.0213 20.475 13.3847 20.6776C11.8632 21.1619 10.6762 21.75 9.87498 22.389C9.07301 23.0286 8.7278 23.6578 8.69912 24.2389C8.67467 24.7341 8.87373 25.2816 9.38701 25.8761C9.90389 26.4747 10.7066 27.0789 11.7831 27.6497C12.1613 27.8503 12.3035 28.3161 12.1007 28.6901C11.8978 29.0641 11.4267 29.2046 11.0485 29.0041C9.86955 28.3789 8.88903 27.6662 8.20491 26.8739C7.51717 26.0774 7.09748 25.1602 7.14666 24.1639C7.20467 22.9889 7.89774 21.9914 8.89918 21.1928C9.90134 20.3936 11.2828 19.7321 12.9085 19.2147C13.5856 18.9992 14.3122 18.8065 15.0814 18.6384C14.9265 17.9096 14.8088 17.2069 14.7292 16.5365C14.5304 14.8595 14.5654 13.3422 14.8847 12.1089C15.2037 10.8766 15.8337 9.83901 16.8908 9.29899C17.8235 8.82247 18.8871 8.83838 19.9469 9.162C21.0024 9.48429 22.1121 10.1265 23.223 10.998C23.5593 11.2618 23.6156 11.7451 23.3488 12.0775C23.082 12.41 22.5932 12.4657 22.257 12.2019C21.2357 11.4008 20.297 10.8773 19.4882 10.6304C18.6838 10.3847 18.0672 10.4278 17.6043 10.6643C17.0816 10.9313 16.6459 11.5031 16.3904 12.49C16.1351 13.476 16.0868 14.7879 16.273 16.3575C16.3477 16.9879 16.4595 17.6531 16.6077 18.3468C18.0823 18.103 19.6803 17.9428 21.3621 17.8775C23.3125 15.4347 25.3602 13.4269 27.2912 12.0212C28.6664 11.02 30.0171 10.299 31.2589 9.96268C32.4997 9.62665 33.7234 9.65423 34.7213 10.2949C35.6093 10.8652 36.123 11.7974 36.3607 12.8799C36.5976 13.9582 36.5767 15.2446 36.352 16.6469C36.2848 17.0661 35.8867 17.352 35.4628 17.2856C35.0389 17.2192 34.7496 16.8256 34.8168 16.4065C35.0237 15.1155 35.0239 14.0348 34.8418 13.2061C34.6607 12.3815 34.3154 11.8667 33.8747 11.5838C33.3813 11.267 32.6632 11.1758 31.6694 11.4449C30.6766 11.7137 29.4999 12.3217 28.2127 13.2587C26.6694 14.3822 25.0171 15.9422 23.3943 17.8451C24.0382 17.8493 24.6913 17.867 25.3517 17.8989C30.1362 18.1298 34.4667 19.0614 37.6062 20.4067C39.1731 21.0781 40.4829 21.8695 41.4016 22.7614C42.3196 23.6526 42.9111 24.7121 42.8531 25.8871C42.8046 26.8707 42.3086 27.7339 41.5618 28.4548C40.8191 29.1715 39.7953 29.7826 38.5866 30.2897C38.1915 30.4555 37.7353 30.2731 37.5676 29.8825C37.4 29.4918 37.5844 29.0407 37.9795 28.875C39.0806 28.413 39.9175 27.8941 40.4761 27.355C41.0305 26.8199 41.2765 26.3013 41.3007 25.8122C41.3294 25.2312 41.0478 24.5717 40.3126 23.8579C39.5781 23.1448 38.4547 22.4452 36.9881 21.8167C34.0605 20.5622 29.9229 19.6581 25.2759 19.4339C24.2048 19.3822 23.157 19.369 22.1416 19.3913C21.493 20.2331 20.8552 21.1274 20.2375 22.0678C19.6719 22.929 19.1489 23.7896 18.6701 24.6413C19.0853 25.6049 19.5508 26.5847 20.0657 27.57C22.2013 31.6567 24.7511 35.0031 27.1208 37.1156C28.308 38.1738 29.4182 38.8939 30.3792 39.2585C31.3412 39.6234 32.0649 39.6029 32.5876 39.3359C33.0912 39.0786 33.5132 38.5397 33.7725 37.6176C34.0321 36.6944 34.1027 35.4652 33.9565 33.9874C33.6644 31.0368 32.5245 27.261 30.5887 23.3403C30.4004 22.9589 30.5604 22.4989 30.9461 22.3127C31.3318 22.1265 31.7971 22.2847 31.9854 22.6661C33.979 26.7038 35.1887 30.6587 35.5034 33.8377C35.6604 35.4246 35.5988 36.8599 35.27 38.0293C34.9409 39.1998 34.3185 40.1814 33.3011 40.7012C32.2441 41.2412 31.0236 41.149 29.8224 40.6933C28.6204 40.2373 27.3485 39.3877 26.0801 38.257C23.5388 35.9917 20.8837 32.4831 18.6848 28.2754C18.3533 27.6411 18.041 27.0077 17.7481 26.3777C16.5815 28.7124 15.7682 30.9324 15.3421 32.8545C14.9999 34.3982 14.9168 35.7084 15.0722 36.7146C15.2277 37.7216 15.6041 38.3332 16.0975 38.65C16.5616 38.948 17.2224 39.0463 18.1273 38.8334C19.0345 38.62 20.1117 38.1081 21.3 37.2989C21.6535 37.0582 22.1374 37.1464 22.3808 37.4959C22.6243 37.8454 22.5351 38.3239 22.1816 38.5646C20.9012 39.4365 19.6457 40.0559 18.4871 40.3284C17.3262 40.6015 16.188 40.5406 15.251 39.9389C14.2531 39.2982 13.7299 38.2041 13.5357 36.9466C13.3413 35.6881 13.4582 34.1749 13.8238 32.5255C14.3519 30.1435 15.4182 27.391 16.9495 24.5521ZM17.9368 22.8185C17.5546 21.7952 17.2329 20.7993 16.9728 19.8447C17.9692 19.6836 19.0296 19.5615 20.1404 19.483C19.7309 20.0476 19.3281 20.6308 18.9339 21.2308C18.5865 21.7598 18.254 22.2896 17.9368 22.8185Z" fill="white"/>
<path d="M25.0714 27.1745C26.2978 27.1745 27.2919 26.1916 27.2919 24.9791C27.2919 23.7666 26.2978 22.7837 25.0714 22.7837C23.8451 22.7837 22.851 23.7666 22.851 24.9791C22.851 26.1916 23.8451 27.1745 25.0714 27.1745Z" fill="white"/>
<defs>
<linearGradient id="paint0_linear_2001_533" x1="25" y1="0" x2="25" y2="50" gradientUnits="userSpaceOnUse">
<stop stop-color="#B2E299"/>
<stop offset="1" stop-color="#03A171"/>
</linearGradient>
</defs>
</svg>
