<svg width="50" height="50" viewBox="0 0 50 50" fill="none" xmlns="http://www.w3.org/2000/svg">
<path d="M25 50C38.8071 50 50 38.8071 50 25C50 11.1929 38.8071 0 25 0C11.1929 0 0 11.1929 0 25C0 38.8071 11.1929 50 25 50Z" fill="url(#paint0_linear_2001_361)"/>
<path d="M25.0002 48.1245C37.7718 48.1245 48.1252 37.7711 48.1252 24.9995C48.1252 12.2279 37.7718 1.87451 25.0002 1.87451C12.2286 1.87451 1.87518 12.2279 1.87518 24.9995C1.87518 37.7711 12.2286 48.1245 25.0002 48.1245Z" fill="url(#paint1_radial_2001_361)"/>
<path d="M25.0391 7.50044C24.8829 7.50044 24.7462 7.3833 24.7462 7.22705V3.14497C24.7462 2.98872 24.8829 2.87158 25.0391 2.87158C25.1954 2.87158 25.3321 2.98872 25.3321 3.14497V7.22705C25.3125 7.3833 25.1954 7.50044 25.0391 7.50044Z" fill="#F3F3F3"/>
<path d="M25.0392 7.51899C24.8634 7.51899 24.7267 7.3823 24.7267 7.22605V3.14402C24.7267 2.98777 24.8634 2.85107 25.0392 2.85107C25.215 2.85107 25.3517 2.98777 25.3517 3.14402V7.22605C25.3517 7.3823 25.1955 7.51899 25.0392 7.51899ZM25.0392 2.88999C24.9025 2.88999 24.7659 3.00732 24.7659 3.14402V7.22605C24.7659 7.36274 24.883 7.48008 25.0392 7.48008C25.1759 7.48008 25.3126 7.36274 25.3126 7.22605V3.14402C25.2933 3.00732 25.1759 2.88999 25.0392 2.88999Z" fill="white"/>
<path d="M26.9924 5.31275C26.8362 5.29319 26.7191 5.17605 26.7191 5.0198L26.8557 3.20323C26.8751 3.04718 27.012 2.92984 27.1682 2.9494C27.3245 2.96896 27.4416 3.0863 27.4416 3.24255L27.3049 5.05891C27.2854 5.21516 27.1487 5.3321 26.9924 5.31275Z" fill="#F3F3F3"/>
<path d="M26.9923 5.332C26.8165 5.31245 26.6993 5.17575 26.6993 5.0195L26.836 3.20296C26.8556 3.04691 26.9923 2.91021 27.1681 2.92957C27.3437 2.94913 27.461 3.08602 27.461 3.24207L27.3243 5.05861C27.3048 5.23442 27.1681 5.35156 26.9923 5.332ZM27.1681 2.96868C27.0314 2.96868 26.8945 3.06646 26.8945 3.20316L26.7578 5.0197C26.7578 5.15619 26.8556 5.27353 27.0118 5.29289C27.1485 5.29289 27.2852 5.19531 27.2852 5.05861L27.4219 3.24207C27.4219 3.10538 27.305 2.98824 27.1681 2.96868Z" fill="white"/>
<path d="M28.457 7.85194C28.3006 7.81283 28.203 7.67613 28.2226 7.51988L29.0233 3.51583C29.0624 3.35978 29.1991 3.26199 29.3554 3.30111C29.5116 3.34022 29.6092 3.47691 29.5896 3.63316L28.7889 7.63722C28.7693 7.77371 28.6133 7.8715 28.457 7.85194Z" fill="#F3F3F3"/>
<path d="M28.4573 7.87091C28.2813 7.8318 28.1837 7.67555 28.2033 7.5193L29.004 3.51529C29.0431 3.35924 29.1994 3.24191 29.375 3.28102C29.5508 3.32013 29.6485 3.47638 29.629 3.63263L28.8282 7.63664C28.7891 7.79268 28.6329 7.89047 28.4573 7.87091ZM29.375 3.32013C29.2383 3.30058 29.1016 3.3786 29.0625 3.51549L28.2619 7.5195C28.2424 7.65599 28.3204 7.79268 28.4766 7.832C28.6133 7.85135 28.75 7.77313 28.7891 7.63644L29.5899 3.63263C29.6094 3.47638 29.5118 3.35924 29.375 3.32013Z" fill="white"/>
<path d="M30.8006 6.09341C30.7634 6.08445 30.7284 6.06824 30.6974 6.04571C30.6665 6.02318 30.6403 5.99477 30.6204 5.96212C30.6004 5.92946 30.5871 5.89319 30.5812 5.85539C30.5753 5.81759 30.5769 5.77899 30.5859 5.7418L31.0742 3.98414C31.1131 3.82789 31.2694 3.74966 31.4256 3.78878C31.5819 3.82789 31.6797 3.98414 31.6406 4.14039L31.1522 5.89825C31.1131 6.0543 30.9569 6.13253 30.8006 6.09341Z" fill="#F3F3F3"/>
<path d="M30.8009 6.11309C30.6447 6.07398 30.5276 5.89817 30.5863 5.74213L31.0745 3.98408C31.1134 3.82804 31.2892 3.73026 31.4454 3.76937C31.6016 3.80848 31.7188 3.98428 31.6603 4.14033L31.1721 5.89838C31.133 6.05442 30.9765 6.1522 30.8009 6.11309ZM31.4454 3.82804C31.3087 3.78892 31.1525 3.86715 31.1134 4.00384L30.6254 5.76148C30.5863 5.89817 30.6643 6.03507 30.8205 6.07398C30.9572 6.11309 31.1134 6.03507 31.1525 5.89838L31.6407 4.14033C31.6603 4.00384 31.5823 3.86735 31.4454 3.82804Z" fill="white"/>
<path d="M31.7581 8.84753C31.6018 8.78887 31.5434 8.61306 31.6018 8.47637L33.1643 4.70684C33.2227 4.57014 33.3987 4.49192 33.5352 4.57014C33.6917 4.62861 33.7503 4.80462 33.6917 4.94111L32.1292 8.71064C32.0708 8.84753 31.8946 8.92556 31.7581 8.84753Z" fill="#F3F3F3"/>
<path d="M31.7581 8.86769C31.683 8.83909 31.6224 8.7819 31.5894 8.70866C31.5564 8.63542 31.5539 8.5521 31.5822 8.47696L33.1448 4.70738C33.2034 4.55113 33.3793 4.49246 33.5551 4.55113C33.6301 4.57973 33.6908 4.63692 33.7237 4.71016C33.7567 4.7834 33.7592 4.86672 33.7309 4.94186L32.1683 8.71144C32.0901 8.86769 31.9143 8.94571 31.7581 8.86769ZM33.5355 4.59024C33.3988 4.53177 33.2426 4.59024 33.1839 4.72694L31.6214 8.49652C31.5629 8.63321 31.6409 8.76991 31.7776 8.82858C31.9143 8.88704 32.0706 8.82858 32.1292 8.69188L33.6918 4.9223C33.7309 4.80496 33.6722 4.64871 33.5355 4.59024Z" fill="white"/>
<path d="M34.3946 7.5976C34.2578 7.51937 34.1991 7.36313 34.2578 7.22643L35.078 5.6055C35.156 5.46861 35.3123 5.40994 35.4687 5.48816C35.6054 5.56639 35.6638 5.72263 35.6054 5.85912L34.7849 7.48026C34.7069 7.61695 34.5509 7.67582 34.3946 7.5976Z" fill="#F3F3F3"/>
<path d="M34.3946 7.61709C34.2382 7.53887 34.1797 7.36306 34.2577 7.20681L35.0781 5.58585C35.1562 5.4294 35.3322 5.37094 35.4882 5.44896C35.6445 5.52719 35.7032 5.70299 35.6249 5.85924L34.8047 7.4802C34.7265 7.63645 34.5509 7.69532 34.3946 7.61709ZM35.4689 5.48807C35.332 5.42961 35.1757 5.46852 35.1172 5.60521L34.2969 7.22637C34.2384 7.3435 34.2969 7.49975 34.414 7.57798C34.5507 7.63645 34.7069 7.59754 34.7656 7.46084L35.586 5.83968C35.6445 5.72255 35.586 5.5663 35.4689 5.48807Z" fill="white"/>
<path d="M34.7856 10.4886C34.6489 10.391 34.6098 10.2152 34.7074 10.0981L36.9731 6.71901C37.0511 6.58231 37.2271 6.56275 37.3636 6.64098C37.5005 6.73856 37.5394 6.91437 37.4419 7.03151L35.1761 10.4106C35.0981 10.5473 34.9223 10.5864 34.7856 10.4886Z" fill="#F3F3F3"/>
<path d="M34.7855 10.5073C34.6488 10.4098 34.6097 10.2144 34.6879 10.0777L36.9534 6.69876C37.051 6.56207 37.2268 6.52295 37.3831 6.62073C37.5198 6.71831 37.5589 6.91367 37.4809 7.05036L35.2151 10.4293C35.1175 10.566 34.9222 10.6049 34.7855 10.5073ZM37.3635 6.65985C37.2466 6.58162 37.0706 6.60118 36.9925 6.71831L34.7268 10.0973C34.6488 10.2142 34.6877 10.3707 34.805 10.4487C34.9222 10.5269 35.098 10.5073 35.176 10.3902L37.4417 7.03081C37.5198 6.91367 37.4809 6.73787 37.3635 6.65985Z" fill="white"/>
<path d="M37.6368 9.76517C37.5198 9.66739 37.4807 9.49158 37.5783 9.37445L38.7111 7.94864C38.8086 7.8317 38.9844 7.81195 39.1016 7.90973C39.2189 8.00731 39.2578 8.18311 39.16 8.30025L38.0274 9.72606C37.9299 9.8432 37.7539 9.86275 37.6368 9.76517Z" fill="#F3F3F3"/>
<path d="M37.6175 9.78513C37.4808 9.68735 37.4612 9.49198 37.559 9.35528L38.6916 7.92964C38.7892 7.79274 38.9845 7.77318 39.1212 7.89053C39.2579 7.98811 39.2775 8.18348 39.1797 8.32017L38.0471 9.74602C37.9495 9.88272 37.7541 9.90227 37.6175 9.78513ZM39.0821 7.92944C38.9652 7.83185 38.8087 7.85141 38.7112 7.96855L37.5783 9.3944C37.5003 9.51154 37.5199 9.66779 37.6368 9.76538C37.7541 9.86316 37.9104 9.8436 38.008 9.72646L39.1408 8.30062C39.219 8.18348 39.199 8.00746 39.0821 7.92944Z" fill="white"/>
<path d="M37.4414 12.6959C37.3242 12.5788 37.3242 12.403 37.4414 12.3052L40.3318 9.43427C40.4491 9.31714 40.6247 9.33649 40.7225 9.43427C40.8201 9.53185 40.8396 9.72721 40.7225 9.82479L37.8516 12.6959C37.7343 12.813 37.5585 12.813 37.4414 12.6959Z" fill="#F3F3F3"/>
<path d="M37.4217 12.7149C37.3654 12.6576 37.3338 12.5805 37.3338 12.5001C37.3338 12.4198 37.3654 12.3426 37.4217 12.2853L40.3123 9.41417C40.3696 9.35778 40.4468 9.32617 40.5272 9.32617C40.6076 9.32617 40.6848 9.35778 40.7421 9.41417C40.7985 9.47148 40.83 9.54863 40.83 9.62899C40.83 9.70935 40.7985 9.78649 40.7421 9.8438L37.8513 12.7147C37.794 12.7711 37.7169 12.8026 37.6365 12.8026C37.5562 12.8026 37.479 12.7713 37.4217 12.7149ZM40.7226 9.43372C40.625 9.33594 40.4492 9.33594 40.3516 9.43372L37.4608 12.3047C37.363 12.4025 37.363 12.5783 37.4608 12.6758C37.5584 12.7736 37.7342 12.7736 37.8318 12.6758L40.7226 9.80489C40.8202 9.70711 40.8202 9.55086 40.7226 9.43372Z" fill="white"/>
<path d="M40.371 12.539C40.2734 12.4219 40.2734 12.2461 40.3906 12.1483L41.7772 10.9766C41.8943 10.879 42.0701 10.8984 42.1679 11.0157C42.2654 11.1328 42.2654 11.3086 42.1483 11.4062L40.7617 12.5781C40.6444 12.6757 40.4686 12.6562 40.371 12.539Z" fill="#F3F3F3"/>
<path d="M40.3513 12.5584C40.2342 12.4217 40.2537 12.2263 40.3709 12.1287L41.7575 10.9568C41.8746 10.8396 42.0699 10.8592 42.1871 10.9959C42.3044 11.1326 42.2849 11.3279 42.1677 11.4255L40.7809 12.5975C40.664 12.7144 40.4682 12.6951 40.3513 12.5584ZM42.1482 11.0154C42.0504 10.8983 41.8942 10.8983 41.7772 10.9763L40.3904 12.1483C40.2929 12.2459 40.2733 12.4021 40.3709 12.5193C40.4685 12.6364 40.6249 12.6364 40.7418 12.5584L42.1286 11.3864C42.2457 11.2888 42.2457 11.1326 42.1482 11.0154Z" fill="white"/>
<path d="M39.5902 15.3513C39.4926 15.2146 39.5317 15.0388 39.6684 14.9605L43.0666 12.695C43.2033 12.6168 43.3791 12.6559 43.4571 12.7732C43.5549 12.9099 43.5158 13.0857 43.3791 13.1637L39.9809 15.4293C39.8636 15.5075 39.6878 15.4684 39.5902 15.3513Z" fill="#F3F3F3"/>
<path d="M39.57 15.3515C39.4724 15.2148 39.5115 15.0195 39.6482 14.9219L43.0466 12.6562C43.1833 12.5586 43.3786 12.5977 43.4762 12.754C43.574 12.8907 43.5347 13.086 43.3982 13.1834L39.9998 15.4493C39.8629 15.5471 39.6678 15.5078 39.57 15.3515ZM43.4371 12.7931C43.3591 12.6758 43.2028 12.6366 43.0857 12.7149L39.6871 14.9804C39.5702 15.0586 39.5309 15.2148 39.6287 15.3515C39.7067 15.4687 39.8629 15.5078 39.9803 15.4298L43.3787 13.1641C43.4958 13.0665 43.5153 12.91 43.4371 12.7931Z" fill="white"/>
<path d="M42.5004 15.7616C42.4222 15.6247 42.4613 15.4491 42.598 15.3709L44.1801 14.4725C44.3168 14.3943 44.4926 14.453 44.5706 14.5895C44.6488 14.7264 44.6097 14.902 44.473 14.9802L42.8909 15.8788C42.7542 15.9568 42.5786 15.8985 42.5004 15.7616Z" fill="#F3F3F3"/>
<path d="M42.4812 15.7811C42.4029 15.6248 42.442 15.449 42.5787 15.371L44.1608 14.4726C44.2975 14.3943 44.4929 14.453 44.5709 14.5895C44.6491 14.7459 44.61 14.9218 44.4733 14.9998L42.8913 15.8984C42.7546 15.9764 42.5592 15.9178 42.4812 15.7811ZM44.5514 14.6092C44.4733 14.4725 44.3171 14.4334 44.1999 14.5115L42.6179 15.4101C42.5007 15.4881 42.4616 15.6444 42.5201 15.7615C42.5983 15.8982 42.7546 15.9373 42.8717 15.8593L44.4538 14.9607C44.5709 14.9022 44.61 14.7459 44.5514 14.6092Z" fill="white"/>
<path d="M41.1914 18.3594C41.1329 18.2032 41.1914 18.0469 41.3476 17.9885L45.1171 16.426C45.2538 16.3673 45.4296 16.4453 45.4881 16.582C45.5468 16.7383 45.4881 16.8945 45.3318 16.953L41.5625 18.5155C41.4256 18.5741 41.25 18.5155 41.1914 18.3594Z" fill="#F3F3F3"/>
<path d="M41.1721 18.3792C41.1137 18.2232 41.1721 18.0474 41.3284 17.9691L45.0979 16.4067C45.173 16.3784 45.2563 16.381 45.3295 16.414C45.4027 16.4469 45.4598 16.5075 45.4884 16.5825C45.5471 16.7387 45.4884 16.9145 45.3322 16.9926L41.5629 18.555C41.4877 18.5834 41.4045 18.5808 41.3312 18.5479C41.258 18.515 41.2008 18.4542 41.1721 18.3792ZM45.4495 16.6021C45.3908 16.4654 45.2346 16.4067 45.1175 16.4458L41.3479 18.0082C41.2113 18.0667 41.1526 18.2232 41.2112 18.3598C41.2697 18.4965 41.426 18.5552 41.5433 18.5161L45.3126 16.9537C45.4495 16.8952 45.5082 16.7387 45.4495 16.6021Z" fill="white"/>
<path d="M43.9455 19.3359C43.887 19.1794 43.965 19.0234 44.1213 18.9647L45.8399 18.3982C45.9765 18.3397 46.1523 18.4373 46.1914 18.574C46.2499 18.7302 46.1719 18.8865 46.0157 18.9451L44.2971 19.5117C44.1604 19.5701 44.0041 19.4923 43.9455 19.3359Z" fill="#F3F3F3"/>
<path d="M43.9257 19.3551C43.8673 19.1988 43.9453 19.023 44.1213 18.9645L45.8396 18.398C45.9959 18.3395 46.1717 18.4371 46.2303 18.5936C46.2888 18.7496 46.2108 18.9254 46.0348 18.9841L44.3164 19.5506C44.1602 19.5896 43.9844 19.5113 43.9257 19.3551ZM46.1912 18.6131C46.1521 18.4762 45.9959 18.398 45.8592 18.4371L44.1406 19.0037C44.004 19.0426 43.9453 19.1988 43.9844 19.3357C44.0235 19.4724 44.1797 19.5504 44.3164 19.5113L46.035 18.945C46.1717 18.8865 46.2303 18.7498 46.1912 18.6131Z" fill="white"/>
<path d="M42.1879 21.6599C42.1488 21.5036 42.2464 21.3474 42.4026 21.3278L46.4064 20.5467C46.5624 20.5075 46.6993 20.6247 46.7382 20.7809C46.7773 20.9371 46.6797 21.0934 46.5235 21.1129L42.5197 21.8941C42.3635 21.9137 42.2075 21.8161 42.1879 21.6599Z" fill="#F3F3F3"/>
<path d="M42.1484 21.66C42.1093 21.4842 42.2264 21.328 42.3827 21.2888L46.3867 20.5075C46.5429 20.4684 46.6992 20.5858 46.7381 20.7616C46.7772 20.9372 46.6601 21.0935 46.5038 21.1326L42.4998 21.9139C42.3438 21.953 42.1873 21.8361 42.1484 21.66ZM46.6992 20.7809C46.6796 20.6442 46.5429 20.5467 46.4062 20.5662L42.4022 21.3475C42.2655 21.3671 42.168 21.5231 42.2069 21.66C42.2264 21.7968 42.3631 21.8943 42.5 21.8748L46.5038 21.0935C46.6405 21.0544 46.7381 20.9177 46.6992 20.7809Z" fill="white"/>
<path d="M44.6877 23.1644C44.6682 23.0081 44.7657 22.8714 44.922 22.8518L46.7188 22.6369C46.875 22.6175 47.0119 22.7347 47.0312 22.8909C47.0508 23.0472 46.9532 23.1839 46.797 23.2035L45 23.4182C44.8633 23.4378 44.7073 23.3206 44.6877 23.1644Z" fill="#F3F3F3"/>
<path d="M44.6682 23.1646C44.6486 22.9888 44.7657 22.8326 44.922 22.813L46.7187 22.5983C46.8749 22.5788 47.0311 22.6959 47.0507 22.8717C47.0702 23.0475 46.9531 23.2037 46.7969 23.2233L45 23.438C44.8439 23.4575 44.6875 23.3404 44.6682 23.1646ZM47.0311 22.8912C47.0118 22.7546 46.8751 22.6372 46.7382 22.6568L44.9415 22.8717C44.8048 22.8912 44.7071 23.0279 44.7266 23.1646C44.7462 23.3013 44.8829 23.4186 45.0195 23.3991L46.8164 23.1842C46.9531 23.1646 47.0505 23.0279 47.0311 22.8912Z" fill="white"/>
<path d="M42.5004 25.0581C42.5004 24.9018 42.6174 24.7651 42.7738 24.7651H46.8559C47.0121 24.7651 47.1293 24.9018 47.1293 25.0581C47.1293 25.2143 47.0121 25.351 46.8559 25.351H42.7738C42.6176 25.351 42.5004 25.2143 42.5004 25.0581Z" fill="#F3F3F3"/>
<path d="M42.481 25.0591C42.481 24.8833 42.6176 24.7466 42.7739 24.7466H46.856C47.0122 24.7466 47.1489 24.8833 47.1489 25.0591C47.1489 25.2349 47.0122 25.3716 46.856 25.3716H42.7739C42.6176 25.3716 42.481 25.2349 42.481 25.0591ZM47.1098 25.0786C47.1098 24.9419 46.9926 24.8052 46.8558 24.8052H42.7741C42.6374 24.8052 42.5201 24.9222 42.5201 25.0786C42.5201 25.2153 42.6374 25.352 42.7741 25.352H46.8562C46.9928 25.3324 47.1098 25.2153 47.1098 25.0786Z" fill="white"/>
<path d="M44.6683 27.0312C44.6876 26.8749 44.805 26.7578 44.9612 26.7578L46.7777 26.8945C46.9337 26.9141 47.0508 27.0508 47.0313 27.207C47.0119 27.3632 46.8946 27.4804 46.7383 27.4804L44.9221 27.3437C44.7854 27.3241 44.6683 27.1874 44.6683 27.0312Z" fill="#F3F3F3"/>
<path d="M44.6486 27.0317C44.6682 26.8559 44.8049 26.7388 44.9612 26.7388L46.7779 26.8755C46.9339 26.895 47.0706 27.0317 47.0511 27.2075C47.0317 27.3833 46.8948 27.5005 46.7385 27.5005L44.922 27.3638C44.7658 27.3442 44.6486 27.188 44.6486 27.0317ZM47.0317 27.2075C47.0511 27.0708 46.9339 26.9341 46.7972 26.9341L44.9805 26.7974C44.844 26.7974 44.7267 26.895 44.7071 27.0515C44.6877 27.188 44.8049 27.3247 44.9416 27.3247L46.7583 27.4613C46.8948 27.4613 47.0121 27.3444 47.0317 27.2075Z" fill="white"/>
<path d="M42.1489 28.4565C42.188 28.3003 42.3247 28.2025 42.481 28.2223L46.4849 29.0231C46.6411 29.062 46.7389 29.1987 46.6998 29.3549C46.6607 29.5112 46.524 29.6089 46.3677 29.5894L42.3636 28.7886C42.2269 28.769 42.1294 28.6128 42.1489 28.4565Z" fill="#F3F3F3"/>
<path d="M42.1289 28.4576C42.1681 28.2818 42.3243 28.1842 42.4806 28.2036L46.4847 29.0045C46.641 29.0434 46.7581 29.1997 46.719 29.3755C46.6801 29.5512 46.5238 29.649 46.3676 29.6295L42.3632 28.8287C42.207 28.7896 42.1094 28.6332 42.1289 28.4576ZM46.6801 29.3755C46.6996 29.2388 46.6216 29.1021 46.4847 29.063L42.4804 28.2623C42.3439 28.2429 42.207 28.3209 42.1679 28.4772C42.1485 28.6138 42.2265 28.7505 42.3634 28.7896L46.3676 29.5904C46.5238 29.6099 46.641 29.5121 46.6801 29.3755Z" fill="white"/>
<path d="M43.9066 30.8005C43.9155 30.7633 43.9318 30.7283 43.9543 30.6974C43.9768 30.6665 44.0052 30.6403 44.0378 30.6203C44.0704 30.6004 44.1067 30.5871 44.1445 30.5812C44.1822 30.5752 44.2208 30.5768 44.258 30.5858L46.0158 31.0739C46.1721 31.113 46.2501 31.2695 46.2112 31.4256C46.2022 31.4628 46.186 31.4979 46.1635 31.5288C46.141 31.5598 46.1126 31.586 46.0799 31.606C46.0473 31.6259 46.011 31.6393 45.9732 31.6452C45.9354 31.6511 45.8968 31.6495 45.8596 31.6405L44.1017 31.1522C43.9455 31.113 43.8677 30.9568 43.9066 30.8005Z" fill="#F3F3F3"/>
<path d="M43.8867 30.8009C43.9258 30.6446 44.1016 30.5275 44.2578 30.5862L46.0157 31.0742C46.1719 31.1133 46.2697 31.2891 46.2306 31.4453C46.1915 31.6016 46.0157 31.7187 45.8594 31.6602L44.1016 31.172C43.9453 31.1329 43.8474 30.9765 43.8867 30.8009ZM46.1719 31.4453C46.211 31.3087 46.1328 31.1524 45.9961 31.1133L44.2383 30.6251C44.1016 30.586 43.9649 30.6642 43.9258 30.8204C43.8869 30.9571 43.9649 31.1133 44.1016 31.1524L45.8594 31.6407C45.9961 31.6602 46.1328 31.5822 46.1719 31.4453Z" fill="white"/>
<path d="M41.1523 31.7381C41.2107 31.5819 41.3867 31.5232 41.5232 31.5819L45.2929 33.1443C45.4295 33.2028 45.5076 33.3788 45.4491 33.5153C45.3904 33.6717 45.2146 33.7302 45.0779 33.6717L41.3085 32.1093C41.1523 32.0508 41.0936 31.8746 41.1523 31.7381Z" fill="#F3F3F3"/>
<path d="M41.133 31.7193C41.1616 31.6443 41.2187 31.5836 41.292 31.5506C41.3652 31.5177 41.4485 31.5151 41.5237 31.5435L45.2931 33.1061C45.4493 33.1647 45.5078 33.3405 45.4493 33.5163C45.4207 33.5914 45.3636 33.6521 45.2903 33.685C45.2171 33.718 45.1338 33.7205 45.0586 33.6922L41.2892 32.1296C41.133 32.0514 41.0745 31.8756 41.133 31.7193ZM45.4102 33.4968C45.4687 33.3601 45.4102 33.2038 45.2735 33.1452L41.5041 31.5826C41.3674 31.5241 41.2307 31.6022 41.1721 31.7389C41.1136 31.8756 41.1721 32.0318 41.3088 32.0905L45.0782 33.6531C45.2149 33.6922 45.3711 33.6335 45.4102 33.4968Z" fill="white"/>
<path d="M42.4218 34.3747C42.5 34.238 42.6561 34.1793 42.7927 34.238L44.4137 35.0584C44.5503 35.1169 44.609 35.2927 44.531 35.449C44.4528 35.5857 44.2965 35.6445 44.1599 35.5857L42.5391 34.7654C42.4023 34.6872 42.3436 34.5114 42.4218 34.3747Z" fill="#F3F3F3"/>
<path d="M42.4025 34.3552C42.4807 34.1989 42.6565 34.1405 42.8127 34.2185L44.4338 35.0389C44.59 35.1171 44.6487 35.2929 44.5705 35.449C44.4924 35.6052 44.3164 35.6639 44.1604 35.5857L42.5394 34.7655C42.3829 34.707 42.3244 34.5114 42.4025 34.3552ZM44.512 35.4294C44.5705 35.2927 44.5313 35.1365 44.3946 35.078L42.7736 34.2576C42.6563 34.1991 42.5002 34.2576 42.422 34.3748C42.3635 34.5114 42.4025 34.6677 42.5391 34.7264L44.1602 35.5467C44.2971 35.6052 44.4533 35.5663 44.512 35.4294Z" fill="white"/>
<path d="M39.5509 34.7462C39.6487 34.6095 39.805 34.5704 39.9417 34.6679L43.3401 36.9337C43.4768 37.0117 43.4964 37.1877 43.4184 37.3242C43.3206 37.4611 43.1643 37.5 43.0276 37.4024L39.6292 35.1367C39.4925 35.0391 39.4534 34.8633 39.5509 34.7462Z" fill="#F3F3F3"/>
<path d="M39.5311 34.7268C39.6288 34.5901 39.8242 34.551 39.9609 34.6292L43.3594 36.8947C43.4961 36.9923 43.5353 37.1681 43.4375 37.3243C43.3399 37.4612 43.1445 37.5001 43.008 37.4221L39.6093 35.1564C39.453 35.0589 39.4335 34.8635 39.5311 34.7268ZM43.379 37.3048C43.457 37.1879 43.4375 37.0119 43.3205 36.9338L39.9218 34.6681C39.8047 34.5901 39.6484 34.6292 39.5702 34.7464C39.4921 34.8635 39.5117 35.0393 39.6286 35.1173L43.0274 37.383C43.1445 37.4612 43.3008 37.4219 43.379 37.3048Z" fill="white"/>
<path d="M40.2734 37.5783C40.371 37.461 40.5468 37.4221 40.664 37.5198L42.0898 38.633C42.2069 38.7306 42.2265 38.9064 42.1289 39.0237C42.0313 39.1406 41.8555 39.18 41.7382 39.0822L40.3123 37.9688C40.1954 37.8713 40.1757 37.6955 40.2734 37.5783Z" fill="#F3F3F3"/>
<path d="M40.2541 37.5586C40.3517 37.4219 40.547 37.4023 40.6837 37.5001L42.1095 38.6132C42.2461 38.7108 42.2657 38.9062 42.1679 39.0429C42.0703 39.1798 41.875 39.1991 41.7385 39.1015L40.3126 37.9882C40.1759 37.8906 40.1565 37.6953 40.2541 37.5586ZM42.129 39.0235C42.2266 38.9062 42.207 38.7499 42.0899 38.6523L40.6642 37.539C40.547 37.461 40.3908 37.4805 40.2932 37.5975C40.1954 37.7148 40.215 37.8711 40.3321 37.9687L41.7579 39.082C41.875 39.1602 42.0314 39.1405 42.129 39.0235Z" fill="white"/>
<path d="M37.3631 37.3833C37.4804 37.2661 37.6563 37.2661 37.7538 37.3833L40.6444 40.2542C40.7618 40.3715 40.7422 40.5473 40.6444 40.6449C40.5275 40.762 40.3515 40.762 40.2539 40.6449L37.3631 37.774C37.2655 37.6762 37.2655 37.4808 37.3631 37.3833Z" fill="#F3F3F3"/>
<path d="M37.3631 37.3629C37.4204 37.3065 37.4976 37.2749 37.578 37.2749C37.6584 37.2749 37.7356 37.3065 37.7929 37.3629L40.6836 40.2338C40.74 40.2911 40.7716 40.3683 40.7716 40.4487C40.7716 40.5291 40.74 40.6063 40.6836 40.6636C40.6263 40.72 40.5491 40.7515 40.4688 40.7515C40.3884 40.7515 40.3112 40.72 40.2539 40.6636L37.3631 37.7927C37.2264 37.6754 37.2264 37.4802 37.3631 37.3629ZM40.6445 40.6245C40.7422 40.5269 40.7422 40.3511 40.6445 40.2536L37.7538 37.3825C37.6562 37.2849 37.4804 37.2849 37.3828 37.3825C37.2851 37.48 37.2851 37.6558 37.3828 37.7534L40.2735 40.6245C40.3711 40.7418 40.5275 40.7418 40.6445 40.6245Z" fill="white"/>
<path d="M37.5389 40.2931C37.6562 40.1955 37.8318 40.1955 37.9296 40.3126L39.1212 41.6798C39.2186 41.7971 39.1992 41.973 39.0819 42.0705C38.9649 42.1681 38.7889 42.1681 38.6913 42.051L37.4998 40.6838C37.4022 40.5862 37.4218 40.4104 37.5389 40.2931Z" fill="#F3F3F3"/>
<path d="M37.5197 40.293C37.6564 40.176 37.8322 40.1954 37.9492 40.3125L39.1407 41.6796C39.2578 41.797 39.2383 41.9921 39.1016 42.1095C38.9649 42.2266 38.7891 42.2071 38.6719 42.0899L37.4804 40.7228C37.3828 40.5861 37.383 40.3907 37.5197 40.293ZM39.0822 42.0704C39.1992 41.9728 39.1992 41.8163 39.1211 41.6994L37.9296 40.3321C37.832 40.2345 37.6758 40.2149 37.5586 40.3125C37.4415 40.4103 37.4415 40.5665 37.5195 40.6835L38.7111 42.0508C38.8086 42.1679 38.9653 42.1679 39.0822 42.0704Z" fill="white"/>
<path d="M34.7268 39.5508C34.8635 39.4532 35.0393 39.4923 35.1175 39.629L37.383 43.0077C37.4613 43.1444 37.4221 43.3202 37.305 43.3985C37.1683 43.496 36.9925 43.4569 36.9142 43.3202L34.6486 39.9413C34.5703 39.8048 34.6096 39.6288 34.7268 39.5508Z" fill="#F3F3F3"/>
<path d="M34.7267 39.5307C34.8634 39.4332 35.0587 39.4723 35.1563 39.609L37.4218 42.9878C37.5194 43.1243 37.4803 43.3196 37.3243 43.4172C37.1874 43.515 36.9922 43.4758 36.8945 43.3392L34.6291 39.9603C34.5315 39.8043 34.5706 39.6283 34.7267 39.5307ZM37.3047 43.3783C37.4218 43.3001 37.4609 43.1438 37.3827 43.0267L35.1174 39.6479C35.0392 39.5309 34.8829 39.5112 34.7464 39.5894C34.6291 39.6674 34.59 39.8237 34.6682 39.941L36.9336 43.3196C37.0118 43.4172 37.1878 43.4565 37.3047 43.3783Z" fill="white"/>
<path d="M34.3162 42.4416C34.4529 42.3636 34.6287 42.4027 34.7067 42.5394L35.6053 44.1214C35.6833 44.2581 35.6246 44.434 35.4879 44.512C35.3512 44.5902 35.1754 44.5511 35.0974 44.4144L34.1991 42.8323C34.1404 42.6956 34.1797 42.5196 34.3162 42.4416Z" fill="#F3F3F3"/>
<path d="M34.3162 42.4217C34.4725 42.3435 34.6483 42.3826 34.7263 42.5193L35.6247 44.1015C35.7029 44.2382 35.6638 44.4336 35.5078 44.5117C35.3513 44.5899 35.1755 44.5508 35.0975 44.4141L34.1991 42.8318C34.1209 42.6951 34.1602 42.5193 34.3162 42.4217ZM35.488 44.4923C35.6054 44.4141 35.6638 44.2578 35.5858 44.1406L34.6874 42.5584C34.6092 42.4413 34.4529 42.4022 34.3358 42.4606C34.2185 42.5389 34.16 42.6951 34.238 42.8123L35.1366 44.3945C35.1951 44.5117 35.3709 44.5705 35.488 44.4923Z" fill="white"/>
<path d="M31.7188 41.1525C31.875 41.094 32.0313 41.1525 32.0899 41.2891L33.672 45.0586C33.7305 45.1953 33.6525 45.3711 33.5158 45.4296C33.3791 45.4883 33.2033 45.4296 33.1448 45.2929L31.5627 41.5236C31.504 41.3867 31.5821 41.2111 31.7188 41.1525Z" fill="#F3F3F3"/>
<path d="M31.7188 41.1326C31.8751 41.0741 32.0509 41.1326 32.1291 41.2888L33.7111 45.0584C33.7394 45.1335 33.7368 45.2168 33.7038 45.29C33.6709 45.3632 33.6103 45.4203 33.5353 45.4489C33.379 45.5076 33.2032 45.4489 33.1252 45.2927L31.5432 41.5233C31.4846 41.3864 31.5628 41.2108 31.7188 41.1326ZM33.4962 45.41C33.6329 45.3513 33.6915 45.1951 33.6329 45.0779L32.0509 41.3084C31.9924 41.1717 31.8362 41.113 31.6995 41.1717C31.5628 41.2302 31.5039 41.3864 31.5628 41.5038L33.1446 45.2733C33.2228 45.41 33.3595 45.4685 33.4962 45.41Z" fill="white"/>
<path d="M30.7614 43.9252C30.9179 43.8667 31.0739 43.9447 31.1326 44.101L31.6991 45.8197C31.7576 45.9564 31.66 46.1322 31.5233 46.1714C31.3671 46.2298 31.2108 46.1518 31.1523 45.9955L30.5858 44.2768C30.5273 44.1401 30.6052 43.9838 30.7614 43.9252Z" fill="#F3F3F3"/>
<path d="M30.7427 43.9067C30.8178 43.8784 30.9011 43.881 30.9743 43.914C31.0475 43.9469 31.1046 44.0075 31.1332 44.0825L31.6998 45.8012C31.7583 45.9574 31.6607 46.1332 31.5042 46.1919C31.4291 46.2202 31.3458 46.2176 31.2726 46.1846C31.1994 46.1517 31.1423 46.0911 31.1137 46.0161L30.5473 44.2974C30.5081 44.1412 30.5864 43.9654 30.7427 43.9067ZM31.5044 46.1526C31.6412 46.1137 31.7192 45.9574 31.6803 45.8207L31.1137 44.1021C31.0748 43.9654 30.9185 43.9067 30.7818 43.9458C30.6449 43.9849 30.5668 44.1412 30.6059 44.2779L31.1723 45.9965C31.1823 46.0297 31.1991 46.0604 31.2217 46.0866C31.2443 46.1128 31.2722 46.134 31.3035 46.1487C31.3349 46.1635 31.3689 46.1714 31.4036 46.1721C31.4382 46.1728 31.4726 46.166 31.5044 46.1526Z" fill="white"/>
<path d="M28.4572 42.1493C28.6133 42.1101 28.7698 42.2077 28.7891 42.364L29.6096 46.3681C29.6487 46.5242 29.5314 46.6611 29.3751 46.7C29.219 46.7391 29.0626 46.6415 29.0432 46.4853L28.2225 42.4811C28.2032 42.3444 28.301 42.1884 28.4572 42.1493Z" fill="#F3F3F3"/>
<path d="M28.4571 42.1286C28.6327 42.0897 28.7889 42.2068 28.828 42.3631L29.6483 46.3675C29.6874 46.5235 29.5701 46.6994 29.4138 46.7189C29.238 46.758 29.0818 46.6409 29.0429 46.4846L28.2225 42.4803C28.1836 42.324 28.2815 42.1675 28.4571 42.1286ZM29.3747 46.6798C29.5116 46.6604 29.6092 46.5235 29.5896 46.3673L28.7694 42.3631C28.75 42.2264 28.5938 42.1288 28.4569 42.1677C28.3202 42.1873 28.2227 42.324 28.2422 42.4803L29.0625 46.4846C29.1014 46.6213 29.2378 46.6992 29.3747 46.6798Z" fill="white"/>
<path d="M26.9727 44.687C27.1289 44.6675 27.2656 44.7653 27.3047 44.9215L27.539 46.7182C27.5585 46.8745 27.4414 47.0112 27.285 47.0307C27.1289 47.0503 26.9922 46.9527 26.9531 46.7965L26.7189 44.9995C26.6993 44.8433 26.8164 44.7066 26.9727 44.687Z" fill="#F3F3F3"/>
<path d="M26.9724 44.6676C27.1483 44.6483 27.3046 44.7654 27.3242 44.9217L27.5586 46.7185C27.5781 46.8748 27.461 47.031 27.2851 47.0506C27.1092 47.0702 26.9529 46.953 26.9333 46.7966L26.6989 44.9997C26.6793 44.8434 26.7965 44.6872 26.9724 44.6676ZM27.2655 47.0115C27.4023 46.9921 27.5196 46.8552 27.5001 46.7185L27.2655 44.9217C27.2459 44.785 27.1092 44.6872 26.9724 44.7067C26.8357 44.7263 26.7183 44.863 26.7378 44.9997L26.9724 46.7968C26.992 46.9335 27.1287 47.031 27.2655 47.0115Z" fill="white"/>
<path d="M24.9612 42.4995C25.1174 42.4995 25.2541 42.6169 25.2541 42.7731V46.8551C25.2541 47.0113 25.1174 47.1287 24.9612 47.1287C24.805 47.1287 24.6683 47.0113 24.6683 46.8551V42.7731C24.6878 42.6169 24.805 42.4995 24.9612 42.4995Z" fill="#F3F3F3"/>
<path d="M24.961 42.4805C25.1368 42.4805 25.2735 42.6172 25.2735 42.7734V46.8555C25.2735 47.0117 25.1368 47.1484 24.961 47.1484C24.7852 47.1484 24.6486 47.0117 24.6486 46.8555V42.7736C24.6486 42.6174 24.8048 42.4805 24.961 42.4805ZM24.961 47.1095C25.0977 47.1095 25.2344 46.9924 25.2344 46.8555V42.7736C25.2344 42.6367 25.1173 42.5196 24.961 42.5196C24.8244 42.5196 24.6877 42.6367 24.6877 42.7736V46.8555C24.707 46.9924 24.8244 47.1095 24.961 47.1095Z" fill="white"/>
<path d="M23.0078 44.6877C23.164 44.7072 23.2812 44.8244 23.2812 44.9806L23.1445 46.7971C23.1251 46.9534 22.9882 47.0705 22.832 47.0512C22.6757 47.0314 22.5586 46.9143 22.5586 46.758L22.6953 44.9415C22.7148 44.7855 22.8515 44.6681 23.0078 44.6877Z" fill="#F3F3F3"/>
<path d="M23.0076 44.6676C23.1834 44.6872 23.3006 44.8239 23.3006 44.9801L23.1639 46.7967C23.1443 46.953 23.0076 47.0897 22.8318 47.0701C22.6562 47.0506 22.5389 46.9139 22.5389 46.7576L22.6756 44.941C22.6951 44.7654 22.8318 44.6483 23.0076 44.6676ZM22.8318 47.031C22.9685 47.031 23.1054 46.9334 23.1054 46.7967L23.2421 44.9801C23.2421 44.8434 23.1443 44.7263 22.9881 44.7067C22.8514 44.7067 22.7147 44.8043 22.7147 44.9412L22.578 46.7576C22.578 46.8943 22.6949 47.0117 22.8318 47.031Z" fill="white"/>
<path d="M21.5429 42.148C21.6991 42.1869 21.7967 42.3236 21.7771 42.4799L20.9764 46.4843C20.9373 46.6405 20.8006 46.7383 20.6443 46.699C20.4881 46.6601 20.3905 46.5234 20.4101 46.3669L21.2108 42.3627C21.2304 42.226 21.3866 42.1284 21.5429 42.148Z" fill="#F3F3F3"/>
<path d="M21.5433 42.1288C21.7189 42.1679 21.8167 42.3244 21.7971 42.4804L20.9963 46.4846C20.9572 46.6409 20.8009 46.758 20.6253 46.7189C20.4495 46.6798 20.3517 46.5235 20.3713 46.3673L21.1721 42.3633C21.2112 42.207 21.3677 42.109 21.5433 42.1288ZM20.6253 46.6798C20.762 46.6993 20.8987 46.6213 20.9378 46.4846L21.7384 42.4804C21.758 42.3437 21.68 42.207 21.5237 42.1679C21.387 42.1486 21.2503 42.2266 21.2112 42.3635L20.4104 46.3673C20.3909 46.5235 20.4884 46.6409 20.6253 46.6798Z" fill="white"/>
<path d="M19.1995 43.9064C19.356 43.9455 19.4536 44.1017 19.4145 44.258L18.9261 46.0156C18.8872 46.1719 18.731 46.2499 18.5747 46.211C18.5375 46.202 18.5024 46.1858 18.4715 46.1633C18.4405 46.1408 18.4143 46.1124 18.3944 46.0797C18.3744 46.0471 18.3611 46.0108 18.3551 45.973C18.3492 45.9352 18.3508 45.8966 18.3598 45.8594L18.8481 44.1017C18.8872 43.9455 19.0433 43.8675 19.1995 43.9064Z" fill="#F3F3F3"/>
<path d="M19.1989 43.8868C19.3554 43.9257 19.4725 44.1015 19.4139 44.2577L18.9256 46.0155C18.8867 46.1718 18.7109 46.2696 18.5546 46.2303C18.3984 46.1914 18.2812 46.0156 18.3397 45.8593L18.828 44.1015C18.8671 43.9452 19.0233 43.8476 19.1989 43.8868ZM18.5546 46.1718C18.6913 46.2109 18.8475 46.1327 18.8867 45.996L19.3748 44.2382C19.4139 44.1015 19.3358 43.9648 19.1796 43.9257C19.0429 43.8866 18.8867 43.9648 18.8475 44.1015L18.3593 45.8593C18.3397 45.996 18.4177 46.1327 18.5546 46.1718Z" fill="white"/>
<path d="M18.242 41.1522C18.3982 41.2106 18.4567 41.3864 18.3982 41.5231L16.8357 45.2927C16.7773 45.4296 16.6013 45.5076 16.4648 45.4296C16.3279 45.3514 16.2497 45.1951 16.3083 45.0584L17.8708 41.2889C17.9293 41.1522 18.1055 41.0739 18.242 41.1522Z" fill="#F3F3F3"/>
<path d="M18.242 41.1327C18.3171 41.1613 18.3777 41.2184 18.4107 41.2917C18.4436 41.3649 18.4462 41.4482 18.4178 41.5234L16.8553 45.2927C16.7966 45.4489 16.6208 45.5076 16.445 45.4489C16.37 45.4203 16.3094 45.3632 16.2764 45.29C16.2435 45.2168 16.2409 45.1335 16.2692 45.0584L17.8317 41.2889C17.9099 41.1327 18.0858 41.0546 18.242 41.1327ZM16.4646 45.41C16.6013 45.4685 16.7575 45.41 16.8162 45.2733L18.3787 41.5038C18.4372 41.3671 18.3592 41.2302 18.2225 41.1718C18.0858 41.1133 17.9295 41.1718 17.8708 41.3085L16.3083 45.078C16.2692 45.1951 16.3279 45.3514 16.4646 45.41Z" fill="white"/>
<path d="M15.6058 42.4027C15.7425 42.4807 15.8009 42.6369 15.7425 42.7736L14.9221 44.3945C14.8439 44.5312 14.6876 44.5898 14.5314 44.5116C14.3947 44.4336 14.3362 44.2774 14.3947 44.1407L15.2152 42.52C15.2933 42.3832 15.4495 42.3245 15.6058 42.4027Z" fill="#F3F3F3"/>
<path d="M15.6056 42.3835C15.7619 42.4615 15.8203 42.6375 15.7423 42.7936L14.922 44.4146C14.8437 44.5709 14.6679 44.6295 14.5119 44.5513C14.3556 44.4733 14.297 44.2973 14.3752 44.1413L15.1954 42.5204C15.2736 42.364 15.4494 42.3055 15.6056 42.3835ZM14.5315 44.5124C14.6681 44.5709 14.8244 44.5318 14.8829 44.3951L15.7032 42.7742C15.7617 42.6569 15.7032 42.5007 15.5861 42.4226C15.4494 42.3642 15.2931 42.4031 15.2345 42.5398L14.4141 44.1606C14.3556 44.2779 14.4141 44.4344 14.5315 44.5124Z" fill="white"/>
<path d="M15.2149 39.5119C15.3515 39.6095 15.3907 39.7853 15.2931 39.9025L13.0274 43.2818C12.9494 43.4183 12.7733 43.4378 12.6369 43.3598C12.5002 43.262 12.4611 43.0864 12.5586 42.969L14.8243 39.5897C14.9024 39.4532 15.0782 39.4143 15.2149 39.5119Z" fill="#F3F3F3"/>
<path d="M15.2152 39.4922C15.3519 39.5899 15.391 39.7853 15.3128 39.922L13.0472 43.3011C12.9496 43.4376 12.7738 43.4767 12.6176 43.3791C12.4809 43.2813 12.4417 43.0862 12.5198 42.9493L14.7856 39.5704C14.8832 39.4337 15.0785 39.3946 15.2152 39.4922ZM12.6371 43.34C12.7541 43.418 12.9301 43.3985 13.0081 43.2815L15.2739 39.9025C15.3519 39.7853 15.313 39.6291 15.1957 39.5508C15.0785 39.4728 14.9027 39.4924 14.8247 39.6093L12.5589 42.9688C12.4809 43.0862 12.5198 43.262 12.6371 43.34Z" fill="white"/>
<path d="M12.3635 40.2339C12.4808 40.3315 12.5198 40.5073 12.4222 40.6245L11.2893 42.0502C11.1917 42.1673 11.0159 42.1869 10.8988 42.0893C10.7817 41.9917 10.7426 41.8159 10.8403 41.6986L11.973 40.2729C12.0706 40.1559 12.2464 40.1362 12.3635 40.2339Z" fill="#F3F3F3"/>
<path d="M12.383 40.2147C12.5197 40.3122 12.5393 40.5076 12.4415 40.6443L11.3088 42.0702C11.2112 42.2069 11.0159 42.2264 10.8792 42.1093C10.7425 42.0115 10.7229 41.8163 10.8207 41.6794L11.9534 40.2538C12.051 40.1169 12.2463 40.0975 12.383 40.2147ZM10.9183 42.0702C11.0352 42.1678 11.1917 42.1484 11.2893 42.0311L12.4221 40.6052C12.5004 40.4883 12.4806 40.3318 12.3637 40.2342C12.2463 40.1364 12.0901 40.156 11.9925 40.2733L10.8596 41.699C10.7816 41.8163 10.8014 41.992 10.9183 42.0702Z" fill="white"/>
<path d="M12.5584 37.3043C12.6756 37.4212 12.6756 37.5973 12.5584 37.6948L9.66799 40.5658C9.55066 40.6831 9.37506 40.6636 9.27728 40.5658C9.1797 40.4682 9.16014 40.2729 9.27728 40.1753L12.1482 37.3043C12.2655 37.187 12.4413 37.187 12.5584 37.3043Z" fill="#F3F3F3"/>
<path d="M12.5781 37.2857C12.6344 37.343 12.6659 37.4201 12.6659 37.5004C12.6659 37.5807 12.6344 37.6578 12.5781 37.7151L9.68746 40.5865C9.63016 40.6428 9.55306 40.6743 9.47275 40.6743C9.39244 40.6743 9.31534 40.6428 9.25804 40.5865C9.20165 40.5292 9.17004 40.452 9.17004 40.3716C9.17004 40.2912 9.20165 40.214 9.25804 40.1567L12.1485 37.2857C12.2058 37.2293 12.2829 37.1978 12.3633 37.1978C12.4436 37.1978 12.5208 37.2293 12.5781 37.2857ZM9.27739 40.5668C9.37497 40.6644 9.55077 40.6644 9.64835 40.5668L12.539 37.6955C12.6368 37.598 12.6368 37.4221 12.539 37.3246C12.4414 37.2268 12.2656 37.2268 12.168 37.3246L9.27739 40.1956C9.17982 40.2932 9.17982 40.4498 9.27739 40.5668Z" fill="white"/>
<path d="M9.62899 37.4611C9.72657 37.5781 9.72657 37.7541 9.60944 37.8517L8.22274 39.0237C8.10561 39.1213 7.9298 39.1018 7.83202 38.9846C7.73444 38.8673 7.73444 38.6917 7.85157 38.5939L9.23827 37.422C9.3556 37.3242 9.53121 37.3438 9.62899 37.4611Z" fill="#F3F3F3"/>
<path d="M9.6484 37.4415C9.76553 37.5784 9.74598 37.7735 9.62884 37.8713L8.24214 39.043C8.125 39.1603 7.92963 39.1408 7.8125 39.0041C7.69516 38.8672 7.71471 38.672 7.83185 38.5743L9.21876 37.4026C9.33569 37.2854 9.53146 37.3048 9.6484 37.4415ZM7.85141 38.9845C7.94919 39.1016 8.10544 39.1016 8.22238 39.0236L9.60928 37.8517C9.70686 37.7542 9.72642 37.5977 9.62884 37.4808C9.53106 37.3635 9.37481 37.3635 9.25787 37.4417L7.87096 38.6134C7.75383 38.711 7.75383 38.8676 7.85141 38.9845Z" fill="white"/>
<path d="M10.4104 34.6479C10.508 34.7848 10.4689 34.9604 10.3322 35.0386L6.9338 37.3043C6.79711 37.3823 6.6213 37.3432 6.54328 37.226C6.4455 37.0893 6.48461 36.9135 6.6213 36.8353L10.0199 34.5699C10.1372 34.4919 10.3126 34.5308 10.4104 34.6479Z" fill="#F3F3F3"/>
<path d="M10.4297 34.6488C10.5273 34.7857 10.4881 34.9809 10.3515 35.0786L6.95314 37.3441C6.81645 37.4419 6.62109 37.4026 6.52351 37.2465C6.42573 37.1098 6.46504 36.9145 6.60153 36.8169L10.0001 34.5512C10.1367 34.4536 10.3321 34.4928 10.4297 34.6488ZM6.56262 37.2074C6.64065 37.3246 6.79689 37.3637 6.91403 37.2856L10.3123 35.02C10.4297 34.9419 10.4686 34.7857 10.371 34.649C10.293 34.5317 10.1367 34.4928 10.0194 34.5708L6.62109 36.8365C6.50396 36.934 6.4844 37.0903 6.56262 37.2074Z" fill="white"/>
<path d="M7.50039 34.2386C7.57861 34.3753 7.5395 34.5511 7.4028 34.6293L5.82073 35.5276C5.68403 35.6056 5.50822 35.5471 5.4302 35.4105C5.35197 35.2738 5.39108 35.098 5.52778 35.0198L7.10986 34.1215C7.24655 34.0432 7.42216 34.1019 7.50039 34.2386Z" fill="#F3F3F3"/>
<path d="M7.52009 34.2186C7.59811 34.3748 7.559 34.5506 7.42231 34.6288L5.84027 35.5271C5.70358 35.6051 5.50822 35.5467 5.4302 35.41C5.35197 35.2538 5.39108 35.078 5.52778 34.9997L7.10981 34.1014C7.2465 34.0232 7.44207 34.0819 7.52009 34.2186ZM5.44955 35.3904C5.52778 35.5271 5.68402 35.5662 5.80116 35.488L7.3832 34.5897C7.50033 34.5115 7.53944 34.3553 7.48098 34.2381C7.40275 34.1014 7.2465 34.0623 7.12937 34.1406L5.54733 35.0389C5.4302 35.0973 5.39088 35.2538 5.44955 35.3904Z" fill="white"/>
<path d="M8.80872 31.6404C8.86719 31.7966 8.80872 31.9529 8.65247 32.0114L4.88291 33.5739C4.74622 33.6326 4.57041 33.5545 4.51194 33.4176C4.45327 33.2614 4.51194 33.1051 4.66819 33.0467L8.43775 31.4841C8.57444 31.4257 8.75025 31.4841 8.80872 31.6404Z" fill="#F3F3F3"/>
<path d="M8.82827 31.6216C8.88674 31.7778 8.82827 31.9536 8.67202 32.0317L4.90247 33.5941C4.82736 33.6225 4.74409 33.6198 4.6709 33.5869C4.5977 33.5539 4.54055 33.4933 4.51194 33.4183C4.45327 33.2621 4.51194 33.0863 4.66819 33.0083L8.43775 31.4458C8.51286 31.4175 8.59613 31.4201 8.66932 31.453C8.74252 31.486 8.79967 31.5466 8.82827 31.6216ZM4.55086 33.3988C4.60952 33.5357 4.76577 33.5943 4.88291 33.555L8.65247 31.9925C8.78916 31.9341 8.84783 31.7778 8.78916 31.6411C8.73069 31.5044 8.57444 31.4458 8.4571 31.4849L4.68755 33.0474C4.55086 33.1058 4.49239 33.2619 4.55086 33.3988Z" fill="white"/>
<path d="M6.05495 30.664C6.11342 30.8202 6.03539 30.9764 5.87914 31.0349L4.16038 31.6014C4.02369 31.6599 3.84788 31.5623 3.80877 31.4256C3.7503 31.2694 3.82832 31.1131 3.98457 31.0547L5.70334 30.4881C5.84003 30.4297 5.99628 30.5077 6.05495 30.664Z" fill="#F3F3F3"/>
<path d="M6.07391 30.6442C6.13258 30.8005 6.05456 30.9763 5.87875 31.035L4.16002 31.6014C4.00378 31.6599 3.82797 31.5623 3.7693 31.406C3.71084 31.2498 3.78886 31.0739 3.96486 31.0155L5.68339 30.4489C5.83964 30.4099 6.01524 30.4878 6.07391 30.6442ZM3.80862 31.3867C3.84773 31.5234 4.00398 31.6016 4.14067 31.5625L5.8594 30.9959C5.99609 30.957 6.05476 30.8007 6.01565 30.664C5.97653 30.5273 5.82029 30.4491 5.68359 30.4882L3.96486 31.0548C3.82817 31.1132 3.7695 31.25 3.80862 31.3867Z" fill="white"/>
<path d="M7.81259 28.3404C7.8515 28.4967 7.75392 28.6529 7.59767 28.6725L3.59366 29.4537C3.43741 29.4928 3.30072 29.3755 3.26181 29.2192C3.2227 29.063 3.32028 28.9067 3.47653 28.8872L7.48054 28.106C7.63678 28.0866 7.79323 28.1842 7.81259 28.3404Z" fill="#F3F3F3"/>
<path d="M7.8514 28.3405C7.89051 28.5163 7.77337 28.6725 7.61712 28.7114L3.61309 29.4927C3.45684 29.5318 3.30059 29.4147 3.26168 29.2389C3.22257 29.063 3.3397 28.9068 3.49595 28.8679L7.49999 28.0866C7.65604 28.0475 7.81249 28.1647 7.8514 28.3405ZM3.30059 29.2195C3.32015 29.356 3.45684 29.4538 3.59353 29.4342L7.59757 28.653C7.73426 28.6334 7.83184 28.4772 7.79293 28.3405C7.77337 28.2038 7.63668 28.106 7.49978 28.1256L3.49595 28.9068C3.35926 28.9459 3.26168 29.0828 3.30059 29.2195Z" fill="white"/>
<path d="M5.31254 26.8363C5.3319 26.9924 5.23432 27.1293 5.07807 27.1489L3.28129 27.3636C3.12484 27.3832 2.98815 27.266 2.96879 27.1095C2.94924 26.9535 3.04682 26.8167 3.20307 26.797L5.00004 26.5822C5.13674 26.5627 5.29299 26.6798 5.31254 26.8363Z" fill="#F3F3F3"/>
<path d="M5.33208 26.8362C5.35144 27.0118 5.2343 27.168 5.07805 27.1876L3.28127 27.4025C3.12482 27.422 2.96877 27.3049 2.94922 27.1291C2.92966 26.9533 3.0468 26.7971 3.20305 26.7776L5.00002 26.5627C5.15607 26.5431 5.31273 26.6606 5.33208 26.8362ZM2.96857 27.1096C2.98813 27.2463 3.12502 27.3636 3.26172 27.3438L5.05849 27.1291C5.19519 27.1096 5.29297 26.9729 5.27341 26.8362C5.25386 26.6993 5.11716 26.5822 4.98047 26.6018L3.18349 26.8167C3.0468 26.8362 2.94922 26.9729 2.96857 27.1096Z" fill="white"/>
<path d="M7.49982 24.9418C7.49982 25.0983 7.38288 25.235 7.22643 25.235H3.1446C2.98835 25.235 2.87122 25.0983 2.87122 24.942C2.87122 24.7858 2.98835 24.6489 3.1446 24.6489H7.22663C7.38288 24.6489 7.49982 24.7856 7.49982 24.9418Z" fill="#F3F3F3"/>
<path d="M7.51993 24.9409C7.51993 25.1169 7.38304 25.2534 7.22679 25.2534H3.14493C2.98868 25.2534 2.85199 25.1167 2.85199 24.9409C2.85199 24.7653 2.98868 24.6284 3.14493 24.6284H7.22699C7.38324 24.6284 7.51993 24.7653 7.51993 24.9409ZM2.8909 24.9215C2.8909 25.0582 3.00804 25.1949 3.14493 25.1949H7.22679C7.36348 25.1949 7.48082 25.0778 7.48082 24.9215C7.48082 24.7849 7.36348 24.648 7.22679 24.648H3.14493C3.00824 24.6675 2.8909 24.7849 2.8909 24.9215Z" fill="white"/>
<path d="M5.33243 22.9682C5.31267 23.1245 5.19553 23.2416 5.03928 23.2416L3.22273 23.1049C3.06667 23.0854 2.94954 22.9487 2.96889 22.7924C2.98845 22.6362 3.10579 22.519 3.26204 22.519L5.07839 22.6557C5.21509 22.6753 5.33243 22.812 5.33243 22.9682Z" fill="#E2E2E2"/>
<path d="M5.35116 22.9692C5.3316 23.145 5.19491 23.2622 5.03866 23.2622L3.22214 23.1255C3.06609 23.1059 2.9294 22.9692 2.94895 22.7934C2.96831 22.6178 3.1052 22.5005 3.26145 22.5005L5.07777 22.6372C5.23402 22.6567 5.35116 22.813 5.35116 22.9692ZM2.96831 22.7934C2.94895 22.9301 3.06609 23.067 3.20278 23.067L5.0193 23.2037C5.1558 23.2037 5.27313 23.1059 5.29269 22.9497C5.31225 22.813 5.19491 22.6763 5.05822 22.6763L3.24169 22.5396C3.1052 22.5396 2.98786 22.6565 2.96831 22.7934Z" fill="white"/>
<path d="M7.85136 21.5433C7.81225 21.6996 7.67556 21.7974 7.51931 21.7778L3.51548 20.9575C3.35923 20.9184 3.26144 20.7817 3.30056 20.6255C3.33967 20.4692 3.47636 20.3714 3.63261 20.3912L7.63664 21.192C7.77334 21.2309 7.87092 21.3871 7.85136 21.5433Z" fill="#F3F3F3"/>
<path d="M7.87133 21.5424C7.83222 21.7182 7.67597 21.816 7.51972 21.7964L3.51591 20.9956C3.35966 20.9565 3.24253 20.8003 3.28164 20.6247C3.32055 20.4487 3.4768 20.3511 3.63305 20.3706L7.63706 21.1714C7.7933 21.2105 7.89089 21.3668 7.87133 21.5424ZM3.32055 20.6245C3.30099 20.7612 3.37902 20.8978 3.51591 20.937L7.51992 21.7378C7.65661 21.7573 7.7933 21.6793 7.83242 21.5228C7.85177 21.3862 7.77375 21.2495 7.63685 21.2103L3.63325 20.4097C3.477 20.3902 3.35966 20.4878 3.32055 20.6245Z" fill="white"/>
<path d="M6.09424 19.1996C6.08528 19.2368 6.06907 19.2719 6.04654 19.3028C6.02401 19.3337 5.9956 19.3599 5.96295 19.3799C5.93029 19.3998 5.89402 19.4131 5.85622 19.419C5.81841 19.4249 5.77981 19.4233 5.74263 19.4143L3.98474 18.9261C3.82849 18.8869 3.75047 18.7307 3.78938 18.5745C3.79834 18.5373 3.81455 18.5022 3.83708 18.4713C3.85961 18.4403 3.88802 18.4142 3.92067 18.3942C3.95333 18.3743 3.9896 18.361 4.0274 18.3551C4.06521 18.3491 4.10381 18.3507 4.14099 18.3598L5.89888 18.848C6.05513 18.8869 6.13316 19.0434 6.09424 19.1996Z" fill="#F3F3F3"/>
<path d="M6.1131 19.1995C6.07419 19.3556 5.89838 19.4729 5.74212 19.4142L3.98423 18.9259C3.82798 18.8868 3.73019 18.711 3.76931 18.555C3.80842 18.3986 3.98423 18.2814 4.14048 18.3401L5.89838 18.8284C6.05463 18.8675 6.15241 19.0239 6.1131 19.1995ZM3.82798 18.5546C3.78886 18.6915 3.86709 18.8477 4.00379 18.8866L5.76168 19.3749C5.89838 19.414 6.03507 19.3358 6.07419 19.1796C6.1131 19.0429 6.03507 18.8866 5.89838 18.8477L4.14048 18.3594C4.00379 18.3399 3.86709 18.4177 3.82798 18.5546Z" fill="white"/>
<path d="M8.84755 18.2616C8.78908 18.4177 8.61307 18.4763 8.47658 18.4177L4.70682 16.8552C4.57013 16.7967 4.49211 16.6209 4.55057 16.4842C4.60924 16.328 4.78505 16.2693 4.92174 16.328L8.6913 17.8905C8.84755 17.9489 8.90622 18.1249 8.84755 18.2616Z" fill="#F3F3F3"/>
<path d="M8.86712 18.2817C8.83851 18.3567 8.78132 18.4174 8.70808 18.4503C8.63484 18.4833 8.55152 18.4858 8.47639 18.4575L4.70681 16.895C4.55055 16.8365 4.49209 16.6607 4.55055 16.4849C4.57916 16.4099 4.63634 16.3492 4.70959 16.3163C4.78283 16.2833 4.86615 16.2807 4.94128 16.3091L8.71086 17.8716C8.86712 17.9496 8.92558 18.1256 8.86712 18.2817ZM4.58967 16.5045C4.5312 16.6412 4.58967 16.7974 4.72636 16.8559L8.49594 18.4184C8.63264 18.477 8.76933 18.3988 8.828 18.2621C8.88647 18.1254 8.828 17.9692 8.69131 17.9107L4.92173 16.3482C4.78503 16.3091 4.62878 16.3678 4.58967 16.5045Z" fill="white"/>
<path d="M7.57809 15.6247C7.50007 15.7614 7.34382 15.8201 7.20713 15.7614L5.58596 14.9412C5.44926 14.8825 5.39059 14.7067 5.46882 14.5505C5.54684 14.4138 5.70309 14.3551 5.83979 14.4138L7.46076 15.2342C7.59765 15.3122 7.65632 15.4882 7.57809 15.6247Z" fill="#F3F3F3"/>
<path d="M7.59794 15.6449C7.51972 15.8011 7.34391 15.8598 7.18766 15.7816L5.5667 14.9612C5.41046 14.8831 5.35179 14.7073 5.43001 14.5511C5.50804 14.3948 5.68404 14.3362 5.84009 14.4144L7.46105 15.2348C7.6175 15.2932 7.67597 15.4888 7.59794 15.6449ZM5.48848 14.5706C5.43001 14.7073 5.46912 14.8636 5.60582 14.9223L7.22677 15.7426C7.34411 15.8011 7.50036 15.7426 7.57839 15.6253C7.63685 15.4886 7.59794 15.3323 7.46125 15.2737L5.82033 14.4537C5.7032 14.3952 5.54715 14.4339 5.48848 14.5706Z" fill="white"/>
<path d="M10.4489 15.2539C10.3514 15.3908 10.1951 15.4299 10.0584 15.3321L6.67931 13.0861C6.54282 13.0079 6.52326 12.8321 6.60129 12.6954C6.67951 12.5587 6.85532 12.5196 6.99202 12.6172L10.3905 14.8829C10.5076 14.9611 10.5467 15.1369 10.4489 15.2539Z" fill="#F3F3F3"/>
<path d="M10.4686 15.2736C10.371 15.4105 10.1756 15.4494 10.0391 15.3714L6.66011 13.1057C6.52342 13.0081 6.4843 12.8323 6.58188 12.6762C6.67967 12.5393 6.87503 12.5002 7.01172 12.5784L10.3905 14.844C10.5468 14.9418 10.5663 15.1369 10.4686 15.2736ZM6.621 12.6956C6.54297 12.8127 6.56253 12.9885 6.67946 13.0665L10.078 15.3325C10.1952 15.4107 10.3514 15.3716 10.4296 15.2545C10.5077 15.1371 10.4881 14.9613 10.3712 14.8833L6.97241 12.6176C6.85527 12.5393 6.69922 12.5784 6.621 12.6956Z" fill="white"/>
<path d="M9.72646 12.4215C9.62888 12.5387 9.45307 12.5778 9.33593 12.48L7.91011 11.3669C7.79297 11.2691 7.77341 11.0933 7.87099 10.9762C7.96857 10.8591 8.14438 10.82 8.26172 10.9177L9.68735 12.0308C9.80469 12.1286 9.82425 12.3042 9.72646 12.4215Z" fill="#F3F3F3"/>
<path d="M9.74618 12.4415C9.6486 12.5784 9.45324 12.598 9.31655 12.5002L7.89077 11.3871C7.75408 11.2895 7.73453 11.0942 7.83231 10.9577C7.92988 10.8208 8.12524 10.8012 8.26173 10.899L9.68751 12.0121C9.8244 12.1099 9.84396 12.3046 9.74618 12.4415ZM7.87122 10.9768C7.77364 11.094 7.79319 11.2502 7.91033 11.3478L9.33611 12.4613C9.45324 12.5393 9.60949 12.5197 9.70707 12.4026C9.80485 12.2855 9.78529 12.1292 9.66815 12.0316L8.24238 10.9182C8.12524 10.8401 7.96859 10.8597 7.87122 10.9768Z" fill="white"/>
<path d="M12.6367 12.6175C12.5198 12.7348 12.3438 12.7348 12.2462 12.6175L9.33625 9.7465C9.21911 9.62936 9.23847 9.45355 9.33625 9.35577C9.45339 9.23883 9.6292 9.23883 9.72679 9.35577L12.6176 12.227C12.7347 12.3245 12.7343 12.5197 12.6367 12.6175Z" fill="#F3F3F3"/>
<path d="M12.6368 12.6366C12.5795 12.6929 12.5024 12.7244 12.4221 12.7244C12.3418 12.7244 12.2647 12.6929 12.2074 12.6366L9.31651 9.76529C9.26012 9.70797 9.22852 9.63078 9.22852 9.55037C9.22852 9.46996 9.26012 9.39278 9.31651 9.33546C9.37382 9.27912 9.45097 9.24756 9.53133 9.24756C9.61169 9.24756 9.68883 9.27912 9.74615 9.33546L12.6368 12.2066C12.7735 12.3237 12.7735 12.5195 12.6368 12.6366ZM9.35603 9.37457C9.25825 9.47235 9.25825 9.64815 9.35603 9.74553L12.2465 12.6167C12.3443 12.7145 12.5199 12.7145 12.6175 12.6167C12.7153 12.5191 12.7153 12.3433 12.6175 12.2457L9.72699 9.35521C9.62941 9.25763 9.47296 9.25743 9.35603 9.37457Z" fill="white"/>
<path d="M12.4609 9.7067C12.3438 9.80448 12.168 9.80448 12.0702 9.68714L10.8787 8.32C10.7813 8.20287 10.8007 8.02706 10.918 7.92948C11.035 7.8317 11.211 7.8317 11.3085 7.94883L12.5 9.31617C12.5976 9.41375 12.5781 9.58956 12.4609 9.7067Z" fill="#F3F3F3"/>
<path d="M12.4804 9.7067C12.3437 9.82384 12.1679 9.80448 12.0506 9.68715L10.8592 8.32C10.7421 8.20286 10.7617 8.0075 10.8984 7.89036C11.0351 7.77302 11.2109 7.79258 11.328 7.90991L12.5195 9.27686C12.6171 9.41376 12.6171 9.60912 12.4804 9.7067ZM10.9179 7.92947C10.8006 8.02705 10.8006 8.1833 10.8788 8.30044L12.0703 9.66759C12.1679 9.76537 12.3242 9.78493 12.4413 9.68715C12.5584 9.58956 12.5584 9.43311 12.4804 9.31618L11.2889 7.94883C11.1913 7.83189 11.0349 7.83189 10.9179 7.92947Z" fill="white"/>
<path d="M15.2736 10.4493C15.1369 10.5469 14.9611 10.5078 14.8828 10.3711L12.5978 6.99206C12.5195 6.85537 12.5587 6.67956 12.6758 6.60154C12.8125 6.50396 12.9883 6.54307 13.0665 6.67976L15.332 10.0586C15.4298 10.1953 15.3907 10.3713 15.2736 10.4493Z" fill="#F3F3F3"/>
<path d="M15.2737 10.4687C15.1371 10.5665 14.9417 10.5271 14.8439 10.3907L12.5785 7.0116C12.4809 6.8749 12.52 6.67974 12.6761 6.58216C12.8128 6.48438 13.0081 6.52349 13.1059 6.66019L15.3713 10.039C15.4689 10.1953 15.4298 10.3711 15.2737 10.4687ZM12.6954 6.62107C12.5783 6.6991 12.5392 6.85535 12.6174 6.97269L14.8828 10.3515C14.9611 10.4687 15.1173 10.4882 15.2538 10.41C15.3711 10.332 15.4102 10.1757 15.332 10.0586L13.0668 6.6991C12.9886 6.58216 12.8124 6.54285 12.6954 6.62107Z" fill="white"/>
<path d="M15.6839 7.55887C15.5472 7.6369 15.3714 7.59799 15.2934 7.46129L14.3949 5.87924C14.3169 5.74254 14.3753 5.56674 14.5122 5.48851C14.6489 5.41049 14.8247 5.4494 14.9027 5.58629L15.801 7.16815C15.8597 7.30484 15.8204 7.48065 15.6839 7.55887Z" fill="#F3F3F3"/>
<path d="M15.6834 7.57844C15.5271 7.65647 15.3513 7.61756 15.2733 7.48066L14.3747 5.8988C14.2967 5.7619 14.3358 5.56674 14.4921 5.48851C14.6483 5.41049 14.8241 5.4494 14.9021 5.58629L15.8005 7.16816C15.8787 7.30485 15.8394 7.48066 15.6834 7.57844ZM14.5116 5.50807C14.3943 5.58609 14.3358 5.74234 14.4138 5.85968L15.3124 7.44175C15.3904 7.55868 15.5467 7.598 15.6638 7.53933C15.7812 7.46131 15.8396 7.30485 15.7616 7.18771L14.863 5.60565C14.8046 5.48871 14.6288 5.42984 14.5116 5.50807Z" fill="white"/>
<path d="M18.2812 8.84707C18.1251 8.90554 17.9687 8.84707 17.9102 8.71037L16.3282 4.94062C16.2698 4.80392 16.3478 4.62812 16.4845 4.56945C16.6407 4.51098 16.7969 4.56945 16.8554 4.70614L18.4374 8.4757C18.4961 8.61239 18.418 8.7886 18.2812 8.84707Z" fill="#F3F3F3"/>
<path d="M18.2816 8.86755C18.1255 8.92602 17.9497 8.86755 17.8715 8.7111L16.2894 4.94177C16.261 4.86663 16.2636 4.78331 16.2966 4.71007C16.3295 4.63683 16.3902 4.57964 16.4652 4.55104C16.6215 4.49258 16.7973 4.55104 16.8755 4.70729L18.4574 8.47682C18.516 8.61352 18.4378 8.78932 18.2816 8.86755ZM16.5043 4.59016C16.3676 4.64862 16.309 4.80507 16.3676 4.92221L17.9495 8.69154C18.008 8.82823 18.1642 8.8867 18.3009 8.82823C18.4376 8.76977 18.4965 8.61332 18.4376 8.49618L16.8557 4.72665C16.7775 4.58995 16.641 4.53149 16.5043 4.59016Z" fill="white"/>
<path d="M19.2383 6.07428C19.082 6.13275 18.9258 6.05453 18.8673 5.89848L18.3009 4.17955C18.2424 4.04286 18.34 3.86705 18.4767 3.82814C18.6133 3.78903 18.7891 3.8477 18.8476 4.00395L19.4141 5.72268C19.4725 5.85937 19.3945 6.01582 19.2383 6.07428Z" fill="#F3F3F3"/>
<path d="M19.2578 6.09413C19.1827 6.12244 19.0994 6.11983 19.0262 6.08688C18.953 6.05393 18.8959 5.99332 18.8673 5.91832L18.3007 4.19957C18.2422 4.04332 18.3398 3.86772 18.4963 3.80905C18.5714 3.78074 18.6547 3.78334 18.7279 3.81629C18.8011 3.84925 18.8582 3.90986 18.8868 3.98485L19.4532 5.7036C19.4923 5.85985 19.4141 6.03566 19.2578 6.09413ZM18.4961 3.84816C18.3594 3.88707 18.2811 4.04332 18.3203 4.18002L18.8868 5.89897C18.9257 6.03566 19.082 6.09413 19.2189 6.05502C19.3556 6.0161 19.4336 5.85985 19.3945 5.72316L18.8281 4.00421C18.8182 3.97105 18.8014 3.94037 18.7788 3.91414C18.7562 3.88792 18.7283 3.86675 18.697 3.85201C18.6656 3.83727 18.6316 3.82929 18.597 3.8286C18.5623 3.8279 18.528 3.8347 18.4961 3.84816Z" fill="white"/>
<path d="M21.5431 7.8519C21.3869 7.89101 21.2306 7.79343 21.2111 7.63698L20.3908 3.63317C20.3516 3.47692 20.469 3.34023 20.625 3.30112C20.7815 3.262 20.9375 3.35958 20.9571 3.51604L21.7776 7.52004C21.7969 7.65653 21.6994 7.81278 21.5431 7.8519Z" fill="#F3F3F3"/>
<path d="M21.5431 7.87191C21.3672 7.91103 21.211 7.79369 21.1719 7.63744L20.3515 3.63361C20.3124 3.47736 20.4297 3.30155 20.586 3.282C20.7618 3.24288 20.9181 3.36022 20.957 3.51647L21.7775 7.5205C21.8164 7.67655 21.7189 7.833 21.5431 7.87191ZM20.6251 3.32111C20.4882 3.34066 20.3906 3.47736 20.4102 3.63361L21.2306 7.63764C21.2501 7.77413 21.4062 7.87191 21.5431 7.8328C21.6798 7.81325 21.7773 7.67655 21.7578 7.5203L20.9374 3.51627C20.8985 3.37978 20.762 3.30155 20.6251 3.32111Z" fill="white"/>
<path d="M23.0277 5.31257C22.8715 5.33212 22.7348 5.23454 22.6957 5.07829L22.4614 3.28129C22.4419 3.12504 22.559 2.98835 22.7154 2.96879C22.8715 2.94923 23.0082 3.04702 23.0473 3.20327L23.2815 5.00006C23.3011 5.15631 23.184 5.29301 23.0277 5.31257Z" fill="#F3F3F3"/>
<path d="M23.0276 5.33224C22.8518 5.35179 22.6955 5.23466 22.676 5.0782L22.4417 3.28142C22.4221 3.12517 22.5393 2.96892 22.7151 2.94936C22.8909 2.93001 23.0471 3.04714 23.0667 3.20339L23.3009 5.00018C23.3205 5.15643 23.2034 5.31268 23.0276 5.33224ZM22.7346 2.98847C22.5979 3.00803 22.4806 3.14472 22.5002 3.28142L22.7346 5.0784C22.7542 5.2151 22.8909 5.31268 23.0276 5.29312C23.1642 5.27377 23.2816 5.13687 23.262 5.00018L23.0276 3.20339C23.008 3.0667 22.8713 2.96892 22.7346 2.98847Z" fill="white"/>
<path d="M25.137 48.1055C37.9086 48.1055 48.262 37.752 48.262 24.9805C48.262 12.2089 37.9086 1.85547 25.137 1.85547C12.3654 1.85547 2.01202 12.2089 2.01202 24.9805C2.01202 37.752 12.3654 48.1055 25.137 48.1055Z" fill="url(#paint2_linear_2001_361)" fill-opacity="0.2"/>
<path d="M41.1525 10.312L22.5001 22.2652H22.4805V22.2846L22.4609 22.3041L10.8206 41.5035L27.9299 27.734L27.9495 27.7146V27.6951L41.1525 10.312Z" fill="black" fill-opacity="0.05"/>
<path d="M40.8008 9.19873L22.3633 22.3041L27.832 27.7338L40.8008 9.19873Z" fill="#CD151E"/>
<path d="M22.383 22.2652L25.137 24.9799L40.8008 9.19873L22.383 22.2652Z" fill="#FA5153"/>
<path d="M22.3829 22.2658L27.8517 27.6953L9.41418 40.8009L22.3829 22.2658Z" fill="#ACACAC"/>
<path d="M9.41418 40.8009L25.1368 24.9805L22.3827 22.2656L9.41418 40.8009Z" fill="#EEEEEE"/>
<defs>
<linearGradient id="paint0_linear_2001_361" x1="25" y1="50" x2="25" y2="0" gradientUnits="userSpaceOnUse">
<stop offset="0.25" stop-color="#DBDBDA"/>
<stop offset="1" stop-color="white"/>
</linearGradient>
<radialGradient id="paint1_radial_2001_361" cx="0" cy="0" r="1" gradientUnits="userSpaceOnUse" gradientTransform="translate(28.2492 19.9199) scale(28.2273 28.2273)">
<stop stop-color="#2ABCE1"/>
<stop offset="0.11363" stop-color="#2ABBE1"/>
<stop offset="1" stop-color="#3375F8"/>
</radialGradient>
<linearGradient id="paint2_linear_2001_361" x1="24.6976" y1="18.3681" x2="13.9043" y2="37.7325" gradientUnits="userSpaceOnUse">
<stop stop-opacity="0"/>
<stop offset="1"/>
</linearGradient>
</defs>
</svg>
