<svg width="50" height="50" viewBox="0 0 50 50" fill="none" xmlns="http://www.w3.org/2000/svg">
<path fill-rule="evenodd" clip-rule="evenodd" d="M50 25C50 38.8071 38.8071 50 25 50C11.1929 50 0 38.8071 0 25C0 11.1929 11.1929 0 25 0C38.8071 0 50 11.1929 50 25Z" fill="#EB4823"/>
<path fill-rule="evenodd" clip-rule="evenodd" d="M25 12.5C21.0318 12.5 17.8151 15.7468 17.8151 19.7519V30.0572C17.8151 31.0059 17.0533 31.7748 16.1134 31.7748C15.1736 31.7748 14.4117 31.0059 14.4117 30.0572V25.4771H8.92853V30.2481C8.92853 34.2532 12.1453 37.5 16.1134 37.5C20.0815 37.5 23.2983 34.2532 23.2983 30.2481V19.7519C23.2983 18.8032 24.0601 18.0344 25 18.0344C25.9399 18.0344 26.7016 18.8032 26.7016 19.7519V21.8511L29.2407 23.2412L32.1848 21.8511V19.7519C32.1848 15.7468 28.9681 12.5 25 12.5ZM26.7016 25.5725V30.2481C26.7016 34.2532 29.9184 37.5 33.8865 37.5C37.8546 37.5 41.0714 34.2532 41.0714 30.2481V25.6679H35.5882V30.2481C35.5882 31.1968 34.8264 31.9656 33.8865 31.9656C32.9466 31.9656 32.1848 31.1968 32.1848 30.2481V25.5725L28.9705 26.6221L26.7016 25.5725Z" fill="white"/>
</svg>
