<svg width="50" height="50" viewBox="0 0 50 50" fill="none" xmlns="http://www.w3.org/2000/svg">
<path d="M45.1927 23.0761C47.8477 23.0761 50 20.9238 50 18.2688C50 15.6138 47.8475 13.4615 45.1925 13.4615C42.5373 13.4615 40.3846 15.614 40.3846 18.2692V23.0761H45.1927ZM31.7308 23.0761C34.386 23.0761 36.5385 20.9236 36.5385 18.2684V4.80769C36.5385 2.15248 34.386 0 31.7308 0C29.0756 0 26.9231 2.15248 26.9231 4.80769V18.2684C26.9231 20.9236 29.0756 23.0761 31.7308 23.0761Z" fill="#2EB67D"/>
<path d="M4.80726 26.9239C2.15227 26.9239 -1.71661e-05 29.0762 -1.71661e-05 31.7312C-1.71661e-05 34.3862 2.15248 36.5385 4.80747 36.5385C7.46268 36.5385 9.61537 34.386 9.61537 31.7308V26.9239H4.80726ZM18.2692 26.9239C15.614 26.9239 13.4615 29.0764 13.4615 31.7316V45.1923C13.4615 47.8475 15.614 50 18.2692 50C20.9244 50 23.0769 47.8475 23.0769 45.1923V31.7316C23.0769 29.0764 20.9244 26.9239 18.2692 26.9239Z" fill="#E01E5A"/>
<path d="M26.9234 45.1925C26.9234 47.8475 29.0757 49.9998 31.7307 49.9998C34.3857 49.9998 36.538 47.8473 36.538 45.1923C36.538 42.5371 34.3855 40.3844 31.7303 40.3844L26.9234 40.3844L26.9234 45.1925ZM26.9234 31.7305C26.9234 34.3858 29.0759 36.5382 31.7311 36.5382L45.1918 36.5382C47.847 36.5382 49.9995 34.3858 49.9995 31.7305C49.9995 29.0753 47.847 26.9229 45.1918 26.9229L31.7311 26.9229C29.0759 26.9229 26.9234 29.0753 26.9234 31.7305Z" fill="#ECB22E"/>
<path d="M23.0766 4.8075C23.0766 2.15252 20.9243 0.000224039 18.2693 0.000223928C15.6143 0.000223816 13.462 2.15272 13.462 4.80771C13.462 7.46292 15.6145 9.61561 18.2697 9.61561L23.0766 9.61561L23.0766 4.8075ZM23.0766 18.2695C23.0766 15.6142 20.9241 13.4618 18.2689 13.4618L4.80818 13.4618C2.15296 13.4618 0.000488621 15.6142 0.0004885 18.2695C0.000488379 20.9247 2.15297 23.0771 4.80818 23.0771L18.2689 23.0771C20.9241 23.0771 23.0766 20.9247 23.0766 18.2695Z" fill="#36C5F0"/>
</svg>
