<svg width="50" height="50" viewBox="0 0 50 50" fill="none" xmlns="http://www.w3.org/2000/svg">
<circle cx="25" cy="25" r="25" fill="#FF5502"/>
<path d="M39.161 33.9285H24.5431V16.2686C25.8975 15.0318 27.6517 14.2856 29.568 14.2856C33.8087 14.2856 37.2554 17.9397 37.3325 22.4786C37.9044 22.2611 38.5198 22.1428 39.161 22.1428C42.1885 22.1428 44.6427 24.7811 44.6427 28.0356C44.6427 31.2902 42.1885 33.9285 39.161 33.9285Z" fill="white"/>
<path d="M23.2142 17.8571H21.4285V33.9285H23.2142V17.8571Z" fill="white"/>
<path d="M17.857 19.6428H19.6428V33.9285H17.857V19.6428Z" fill="white"/>
<path d="M16.0713 23.2142H14.2856V33.9285H16.0713V23.2142Z" fill="white"/>
<path d="M10.7142 21.4285H12.4999V33.9285H10.7142V21.4285Z" fill="white"/>
<path d="M8.92848 24.9999H7.14276V33.9285H8.92848V24.9999Z" fill="white"/>
</svg>
