<svg width="50" height="50" viewBox="0 0 50 50" fill="none" xmlns="http://www.w3.org/2000/svg">
<circle cx="25" cy="25" r="25" fill="#1ED760"/>
<path d="M36.3648 35.0409C35.9377 35.7186 35.0265 35.9084 34.3146 35.5018C28.7052 32.2487 21.672 31.5168 13.3575 33.306C12.5602 33.4686 11.7629 33.0078 11.592 32.2487C11.4212 31.4897 11.9053 30.7306 12.7025 30.568C21.7859 28.5891 29.5879 29.4294 35.8523 33.0891C36.5641 33.4957 36.7919 34.3632 36.3648 35.0409ZM39.2692 28.8602C38.7282 29.7005 37.5892 29.9445 36.7065 29.4565C30.2997 25.6884 20.533 24.6041 12.9588 26.7999C11.9622 27.071 10.9371 26.5559 10.6524 25.6342C10.3676 24.6854 10.9087 23.7095 11.9053 23.4384C20.5615 20.9444 31.3248 22.1372 38.6997 26.4475C39.5255 26.9354 39.8102 28.0198 39.2692 28.8602ZM39.5255 22.4083C31.8374 18.0709 19.1662 17.6643 11.8198 19.7788C10.6524 20.1312 9.39951 19.5077 9.02934 18.3691C8.65917 17.2576 9.34256 16.0649 10.51 15.7125C18.9384 13.2727 32.9479 13.7606 41.7749 18.7486C42.8285 19.345 43.1702 20.6462 42.5437 21.6493C41.9458 22.6794 40.579 23.0318 39.5255 22.4083Z" fill="white"/>
</svg>
