<svg width="50" height="50" viewBox="0 0 50 50" fill="none" xmlns="http://www.w3.org/2000/svg">
<path d="M25 0C11.2109 0 0 11.2109 0 25C0 38.7891 11.2109 50 25 50C38.7891 50 50 38.7891 50 25C50 11.2109 38.7891 0 25 0Z" fill="#F48024"/>
<path d="M31.3227 29.219L18.0508 27.3007L18.5108 24.3938L31.4891 26.8896L31.3227 29.219Z" fill="white"/>
<path d="M31.5576 26.1262L19.8126 20.6451L20.8892 18.2961L32.6343 23.7772L31.5576 26.1262Z" fill="white"/>
<path d="M33.1236 23.1899L23.1403 14.8705L24.8042 12.913L34.7875 21.2324L33.1236 23.1899Z" fill="white"/>
<path d="M27.4469 10.3682L29.5022 8.80225L37.2344 19.177L35.179 20.7431L27.4469 10.3682Z" fill="white"/>
<path d="M31.3619 33.0753H17.6593V30.1391H31.3619V33.0753Z" fill="white"/>
<path d="M33.3193 27.2026V35.0326H15.7018V27.2026H12.7655V37.9689H36.2556V27.2026H33.3193Z" fill="white"/>
</svg>
