<svg width="50" height="50" viewBox="0 0 50 50" fill="none" xmlns="http://www.w3.org/2000/svg">
<path d="M50 25C50 38.8 38.8125 50 25 50C11.1875 50 0 38.8 0 25C0 11.1875 11.1875 0 25 0C38.8125 0 50 11.1875 50 25Z" fill="#E95420"/>
<path d="M8.61006 21.7078C6.80703 21.7078 5.3573 23.1903 5.3573 25.0064C5.3573 26.8225 6.81921 28.305 8.61006 28.305C10.4009 28.305 11.8628 26.8225 11.8628 25.0064C11.8628 23.178 10.4009 21.7078 8.61006 21.7078ZM31.8423 36.6935C30.2829 37.6077 29.7591 39.6214 30.6484 41.2027C31.5499 42.7841 33.5357 43.3277 35.0951 42.4135C36.6544 41.4992 37.1783 39.4855 36.2889 37.9042C35.3753 36.3352 33.3895 35.7916 31.8423 36.6935ZM15.676 25.0064C15.676 21.7449 17.2719 18.8664 19.7206 17.1244L17.345 13.0846C14.4943 15.0118 12.3867 17.9645 11.4973 21.4113C12.5207 22.2638 13.1785 23.5609 13.1785 25.0064C13.1785 26.4518 12.5207 27.749 11.4973 28.6015C12.3745 32.0483 14.4943 35.0009 17.345 36.9282L19.7206 32.8884C17.2719 31.1464 15.676 28.2679 15.676 25.0064ZM25.1784 15.3701C30.1489 15.3701 34.2179 19.2246 34.6443 24.1539L39.2859 24.0798C39.0544 20.4477 37.495 17.1862 35.0829 14.7895C33.8402 15.2589 32.4149 15.1848 31.1844 14.4683C29.9418 13.7394 29.1743 12.5287 28.955 11.1944C27.7489 10.8608 26.4819 10.6755 25.1784 10.6755C22.9246 10.6755 20.8049 11.2068 18.9165 12.158L21.1825 16.2596C22.3886 15.6913 23.753 15.3701 25.1784 15.3701ZM25.1784 34.6427C23.753 34.6427 22.3886 34.3215 21.1703 33.7532L18.9044 37.8548C20.7927 38.806 22.9246 39.3373 25.1662 39.3373C26.4698 39.3373 27.7368 39.1519 28.9428 38.8184C29.1499 37.4965 29.9296 36.2734 31.1723 35.5445C32.4027 34.8156 33.8402 34.7539 35.0707 35.2233C37.4707 32.8266 39.0422 29.5651 39.2737 25.933L34.6321 25.8588C34.2179 30.7758 30.1489 34.6427 25.1784 34.6427ZM31.8301 13.307C33.3895 14.2212 35.3753 13.6776 36.2768 12.0963C37.1783 10.5149 36.6422 8.50118 35.0829 7.58697C33.5235 6.67276 31.5377 7.21635 30.6362 8.79768C29.7469 10.379 30.2829 12.3928 31.8301 13.307Z" fill="white"/>
</svg>
