<svg width="126" height="24" viewBox="0 0 126 24" fill="none" xmlns="http://www.w3.org/2000/svg">
<g clip-path="url(#clip0_2002_631)">
<path fill-rule="evenodd" clip-rule="evenodd" d="M112.54 18.4284L117.187 12.1879L112.9 6.2915H116.572L119.054 9.97043L121.559 6.2915H125.209L120.858 12.1668L125.442 18.4284H121.835L119.012 14.4687L116.274 18.4284H112.54Z" fill="#E5E5E5"/>
<path fill-rule="evenodd" clip-rule="evenodd" d="M100.854 12.6035C100.854 16.6092 103.046 18.7387 106.929 18.7387C110.563 18.7387 113.026 16.6092 113.026 12.6035V12.2662C113.026 8.2182 110.521 5.9834 106.929 5.9834C103.422 5.9834 100.854 8.17604 100.854 12.2662V12.6035ZM109.862 12.6044C109.862 14.8266 108.752 16.033 106.929 16.033C105.129 16.033 104.019 14.8055 104.019 12.6044V12.3081C104.019 9.93777 105.191 8.68906 106.95 8.68906C108.731 8.68906 109.862 10.0224 109.862 12.3081V12.6044Z" fill="#E5E5E5"/>
<path fill-rule="evenodd" clip-rule="evenodd" d="M90.237 16.2072C90.8955 17.7667 92.2126 18.7361 94.2308 18.7361C97.3532 18.7361 99.3932 16.46 99.3932 12.4138V12.0556C99.3932 8.00934 97.2262 6.00729 94.3157 5.98621C92.3825 5.98621 91.023 6.85025 90.3432 8.43082V2.19287H87.2205V18.42H89.9821L90.237 16.2072ZM96.2278 12.4428C96.2278 14.8486 95.1141 16.0304 93.2856 16.0304C91.5412 16.0304 90.3853 14.722 90.3853 12.4428V12.1896C90.3853 10.1004 91.5832 8.68646 93.3276 8.68646C95.009 8.68646 96.2278 9.91045 96.2278 12.1474V12.4428Z" fill="#E5E5E5"/>
<path fill-rule="evenodd" clip-rule="evenodd" d="M73.3387 6.30691V22.6039H76.456V16.5007C77.1135 17.9186 78.4071 18.7862 80.3581 18.7862C83.2422 18.7862 85.5112 16.6912 85.5112 12.6705V12.3319C85.5112 8.22654 83.4754 5.9834 80.3581 5.9834C78.3434 5.9834 76.9862 7.02032 76.3289 8.58629L76.0107 6.30691H73.3387ZM82.3464 12.5931C82.3464 14.8301 81.1904 16.033 79.3829 16.033C77.6385 16.033 76.5036 14.6824 76.5036 12.5299V12.2976C76.5036 10.0396 77.6806 8.68906 79.446 8.68906C81.1063 8.68906 82.3464 9.89198 82.3464 12.3188V12.5931Z" fill="#E5E5E5"/>
<path fill-rule="evenodd" clip-rule="evenodd" d="M59.4637 12.6035C59.4637 16.6092 61.6769 18.7387 65.5604 18.7387C69.1933 18.7387 71.6361 16.6092 71.6361 12.6035V12.2662C71.6361 8.2182 69.1515 5.9834 65.5604 5.9834C62.0527 5.9834 59.4637 8.17604 59.4637 12.2662V12.6035ZM68.4713 12.6044C68.4713 14.8266 67.3405 16.033 65.5394 16.033C63.7385 16.033 62.6286 14.8055 62.6286 12.6044V12.3081C62.6286 9.93777 63.8013 8.68906 65.5604 8.68906C67.3405 8.68906 68.4713 10.0224 68.4713 12.3081V12.6044Z" fill="#E5E5E5"/>
<path fill-rule="evenodd" clip-rule="evenodd" d="M50.9458 18.4287H54.1386V12.8531C54.1386 10.2765 54.7772 9.36846 57.4165 9.36846H58.7362V6.13721H57.9486C55.6712 6.13721 54.4153 7.12981 53.9257 9.07279L53.5213 6.2911H50.9458V18.4287Z" fill="#E5E5E5"/>
<path fill-rule="evenodd" clip-rule="evenodd" d="M36.8231 3.43213V18.4293H42.6202C46.3963 18.4293 49.2391 16.24 49.2391 11.3985V10.367C49.2391 5.54651 46.2267 3.43213 42.5353 3.43213H36.8231ZM39.988 6.13779H42.403C44.5841 6.13779 46.0742 7.51323 46.0742 10.5392V11.3222C46.0742 14.3481 44.6273 15.7236 42.511 15.7236H39.988V6.13779Z" fill="#E5E5E5"/>
<path d="M7.40801 0.308105L0.461426 4.71739L7.40801 9.12668L14.3557 4.71739L21.3024 9.12668L28.2489 4.71739L21.3024 0.308105L14.3557 4.71739L7.40801 0.308105Z" fill="#0056FE"/>
<path d="M7.40801 17.9461L0.461426 13.5368L7.40801 9.12744L14.3557 13.5368L7.40801 17.9461Z" fill="#0056FE"/>
<path d="M14.3566 13.5368L21.3032 9.12744L28.2497 13.5368L21.3032 17.9461L14.3566 13.5368Z" fill="#0056FE"/>
<path d="M14.3534 23.8254L7.40564 19.4161L14.3534 15.0068L21.3 19.4161L14.3534 23.8254Z" fill="#0056FE"/>
</g>
<defs>
<clipPath id="clip0_2002_631">
<rect width="126" height="24" fill="white"/>
</clipPath>
</defs>
</svg>
