<svg width="82" height="24" viewBox="0 0 82 24" fill="none" xmlns="http://www.w3.org/2000/svg">
<g clip-path="url(#clip0_2002_632)">
<path d="M8.87563 3.8501V10.4114H2.8525V3.8501H-0.00512695V19.5128H2.85327V13.1644H8.87485V19.5128H11.734V3.8501H8.87563ZM20.8832 14.4504C20.8832 15.0781 20.634 15.6802 20.1905 16.1241C19.7469 16.5681 19.1453 16.8175 18.518 16.8175C17.8907 16.8175 17.2891 16.5681 16.8455 16.1241C16.4019 15.6802 16.1527 15.0781 16.1527 14.4504V7.74119H13.4413V14.4504C13.4413 15.7965 13.9757 17.0875 14.9268 18.0394C15.8779 18.9912 17.1679 19.526 18.5129 19.526C19.858 19.526 21.148 18.9912 22.0991 18.0394C23.0502 17.0875 23.5846 15.7965 23.5846 14.4504V7.74119H20.8832V14.4504V14.4504ZM40.974 8.43255C40.974 7.05681 41.8829 6.62094 42.8786 6.62094C43.6815 6.62094 44.7413 7.23255 45.4353 7.97423L47.2106 5.87926C46.3241 4.67926 44.5263 3.8501 43.0542 3.8501C40.1122 3.8501 37.9849 5.57423 37.9849 8.43255C37.9849 13.7358 44.4613 12.0527 44.4613 15.0209C44.4613 15.936 43.5732 16.7443 42.5567 16.7443C40.9531 16.7443 40.4332 15.96 39.6968 15.1301L37.7257 17.1809C38.9866 18.7293 40.5416 19.5159 42.4036 19.5159C45.1985 19.5159 47.4466 17.7709 47.4466 15.0426C47.4466 9.15565 40.9693 10.9851 40.9693 8.43255M81.041 17.0106C79.4389 17.0106 78.9833 16.3169 78.9833 15.2547V10.5515H81.4743V8.16855H78.9833V5.02455L76.234 6.25939V15.8393C76.234 18.2896 77.9235 19.5244 80.2396 19.5244C80.6032 19.5306 80.9668 19.5012 81.3242 19.4377L81.9949 16.9665C81.6924 16.9874 81.3451 17.0083 81.041 17.0083M31.2044 7.81939C29.8614 7.81939 28.9239 8.20958 28.0172 9.09913V3.94377H25.3019V13.4996C25.3019 17.0764 27.8857 19.5275 30.7897 19.5275C34.0109 19.5275 36.8446 17.0331 36.8446 13.6746C36.8446 10.358 34.2368 7.82171 31.2044 7.82171M31.1874 16.7923C30.7827 16.7923 30.382 16.7125 30.0081 16.5575C29.6342 16.4025 29.2945 16.1754 29.0084 15.889C28.7222 15.6026 28.4952 15.2627 28.3404 14.8885C28.1855 14.5143 28.1058 14.1133 28.1058 13.7083C28.1058 13.3033 28.1855 12.9023 28.3404 12.5281C28.4952 12.1539 28.7222 11.814 29.0084 11.5276C29.2945 11.2412 29.6342 11.014 30.0081 10.859C30.382 10.7041 30.7827 10.6243 31.1874 10.6243C32.0046 10.6243 32.7885 10.9492 33.3664 11.5276C33.9443 12.1059 34.2689 12.8904 34.2689 13.7083C34.2689 14.5262 33.9443 15.3106 33.3664 15.889C32.7885 16.4674 32.0046 16.7923 31.1874 16.7923M60.6934 13.5322C60.6934 10.1675 57.866 7.67926 54.6386 7.67926C51.7353 7.67926 49.1508 10.1296 49.1508 13.7071V23.2684H51.8661V18.1061C52.7712 18.9941 53.7103 19.3858 55.0517 19.3858C58.0841 19.3858 60.6927 16.8496 60.6927 13.5322M58.122 13.4981C58.122 14.316 57.7974 15.1005 57.2195 15.6788C56.6416 16.2572 55.8578 16.5821 55.0405 16.5821C54.2232 16.5821 53.4394 16.2572 52.8615 15.6788C52.2836 15.1005 51.9589 14.316 51.9589 13.4981C51.9589 12.6802 52.2836 11.8957 52.8615 11.3174C53.4394 10.739 54.2232 10.4141 55.0405 10.4141C55.8578 10.4141 56.6416 10.739 57.2195 11.3174C57.7974 11.8957 58.122 12.6802 58.122 13.4981" fill="#E5E5E5"/>
<path d="M69.4673 7.54749V4.81691C69.8278 4.64827 70.1331 4.38061 70.3476 4.04509C70.562 3.70957 70.6769 3.31998 70.6787 2.92169V2.85898C70.6787 1.69769 69.738 0.756267 68.5776 0.756267H68.515C67.9577 0.756267 67.4233 0.977802 67.0293 1.37214C66.6353 1.76647 66.4139 2.3013 66.4139 2.85898V2.92169C66.4158 3.31998 66.5306 3.70957 66.7451 4.04509C66.9595 4.38061 67.2648 4.64827 67.6254 4.81691V7.54749C66.5891 7.70629 65.6132 8.13628 64.7964 8.79394L57.3135 2.96117C57.3668 2.7684 57.3947 2.5702 57.3978 2.37124C57.3987 1.90262 57.2607 1.44426 57.0013 1.05413C56.7419 0.664002 56.3727 0.359634 55.9404 0.179524C55.5082 -0.00058496 55.0322 -0.0483433 54.5728 0.0422904C54.1134 0.132924 53.6912 0.357878 53.3595 0.688697C53.0279 1.01952 52.8017 1.44134 52.7097 1.90081C52.6176 2.36028 52.6638 2.83675 52.8423 3.26996C53.0209 3.70317 53.3238 4.07365 53.7128 4.33454C54.1017 4.59543 54.5593 4.73501 55.0275 4.73562C55.4372 4.73369 55.8392 4.62424 56.1933 4.4182L63.5617 10.1565C62.8998 11.1573 62.5545 12.3344 62.5707 13.5345C62.587 14.7345 62.9642 15.9018 63.653 16.8843L61.4119 19.1279C61.2308 19.0699 61.042 19.0391 60.8518 19.0365C60.4675 19.0368 60.0918 19.1512 59.7724 19.3651C59.4529 19.579 59.204 19.8828 59.0571 20.2383C58.9101 20.5937 58.8717 20.9848 58.9468 21.362C59.0219 21.7393 59.207 22.0858 59.4788 22.3578C59.7505 22.6298 60.0968 22.815 60.4738 22.8902C60.8507 22.9653 61.2415 22.9269 61.5966 22.7798C61.9518 22.6328 62.2554 22.3836 62.4691 22.0639C62.6829 21.7442 62.7971 21.3683 62.7974 20.9836C62.7949 20.7933 62.7642 20.6044 62.7061 20.4231L64.9232 18.2035C65.6462 18.7605 66.487 19.1446 67.3812 19.3262C68.2754 19.5078 69.1992 19.4821 70.082 19.2512C70.9647 19.0203 71.783 18.5902 72.474 17.9939C73.165 17.3976 73.7105 16.651 74.0686 15.8111C74.4268 14.9713 74.588 14.0605 74.5402 13.1486C74.4923 12.2368 74.2364 11.348 73.7923 10.5503C73.3482 9.75268 72.7275 9.06736 71.9778 8.54687C71.2281 8.02638 70.3693 7.68452 69.4673 7.54749M68.5482 16.5281C68.1385 16.5394 67.7307 16.4684 67.3488 16.3193C66.9669 16.1701 66.6188 15.9459 66.325 15.6599C66.0312 15.3738 65.7977 15.0317 65.6382 14.6538C65.4788 14.2759 65.3966 13.8698 65.3966 13.4596C65.3966 13.0494 65.4788 12.6433 65.6382 12.2654C65.7977 11.8875 66.0312 11.5454 66.325 11.2594C66.6188 10.9733 66.9669 10.7491 67.3488 10.6C67.7307 10.4508 68.1385 10.3798 68.5482 10.3911C69.3424 10.4189 70.0948 10.7541 70.6469 11.3261C71.199 11.898 71.5078 12.6621 71.5082 13.4574C71.5086 14.2526 71.2006 15.017 70.649 15.5895C70.0975 16.162 69.3455 16.498 68.5513 16.5266" fill="#FF7A59"/>
</g>
<defs>
<clipPath id="clip0_2002_632">
<rect width="82" height="24" fill="white"/>
</clipPath>
</defs>
</svg>
