<svg width="116" height="24" viewBox="0 0 116 24" fill="none" xmlns="http://www.w3.org/2000/svg">
<g clip-path="url(#clip0_2002_633)">
<path fill-rule="evenodd" clip-rule="evenodd" d="M10.9103 10.9122L11.1075 10.8568C12.5762 10.414 14.017 9.88231 15.422 9.26454C16.8471 8.70186 18.1844 7.93553 19.3926 6.98915C20.6752 5.96216 21.6406 4.58853 22.1756 3.02915C22.291 2.77247 22.3757 2.50288 22.4278 2.22607C20.4975 4.87992 12.8452 5.15684 12.8452 5.15684L14.6517 3.49069C9.39442 3.50892 4.27425 5.1807 0.00726318 8.27223C2.8973 8.58388 5.61565 9.80669 7.77422 11.7661C8.81043 11.443 9.86956 11.2122 10.9103 10.9215V10.9122ZM22.9092 10.6492C18.0404 10.4221 13.1692 11.0467 8.5124 12.4953C9.4906 13.5228 10.307 14.6948 10.9333 15.9707C14.7892 13.8107 20.1353 11.0507 22.9092 10.6584V10.6492ZM11.4193 17.0738C11.8766 18.2585 12.1698 19.5009 12.2904 20.7661L19.0166 13.8107L11.4193 17.0738ZM14.9497 20.4845V20.4107C14.9486 20.3809 14.939 20.3521 14.9222 20.3276C14.9069 20.3045 14.881 20.2906 14.8534 20.2907H14.913C14.9496 20.2662 14.9705 20.2241 14.9681 20.1799C14.9744 20.1204 14.9407 20.0638 14.8855 20.0415C14.8386 20.0324 14.7903 20.0324 14.7434 20.0415H14.5554V20.563H14.6563V20.3738H14.7296C14.7613 20.3659 14.7943 20.3659 14.8259 20.3738C14.8573 20.3994 14.873 20.4397 14.8672 20.4799V20.5584H14.9681L14.9497 20.4845ZM14.6517 20.0784H14.7159C14.7506 20.0703 14.7866 20.0703 14.8213 20.0784C14.8415 20.0933 14.852 20.118 14.8488 20.143C14.8528 20.1754 14.8337 20.2062 14.803 20.2168C14.7757 20.2212 14.7478 20.2212 14.7205 20.2168H14.6517V20.0415V20.0784Z" fill="#47E4FC"/>
<path fill-rule="evenodd" clip-rule="evenodd" d="M15.0714 19.9269C14.9847 19.8337 14.8635 19.7808 14.7367 19.7808C14.6098 19.7808 14.4886 19.8337 14.4019 19.9269C14.3121 20.0154 14.2624 20.1372 14.2644 20.2638C14.2624 20.3903 14.3121 20.5121 14.4019 20.6007C14.4886 20.6939 14.6098 20.7468 14.7367 20.7468C14.8635 20.7468 14.9847 20.6939 15.0714 20.6007C15.164 20.5134 15.2165 20.3915 15.2165 20.2638C15.2165 20.1361 15.164 20.0141 15.0714 19.9269ZM14.7367 20.6561C14.6331 20.6574 14.5335 20.6157 14.4616 20.5407C14.3125 20.3866 14.3125 20.141 14.4616 19.9869C14.534 19.9124 14.6331 19.8705 14.7367 19.8705C14.8402 19.8705 14.9393 19.9124 15.0118 19.9869C15.1608 20.141 15.1608 20.3866 15.0118 20.5407C14.9398 20.6157 14.8402 20.6574 14.7367 20.6561Z" fill="#282828"/>
<path fill-rule="evenodd" clip-rule="evenodd" d="M63.7625 14.0479C62.6617 14.0479 61.6446 13.4568 61.0942 12.4971C60.5438 11.5375 60.5438 10.3552 61.0942 9.3956C61.6446 8.43598 62.6617 7.84483 63.7625 7.84483C65.4642 7.84483 66.8436 9.23343 66.8436 10.9464C66.8436 12.6593 65.4642 14.0479 63.7625 14.0479ZM63.7625 4.46175C61.1019 4.49345 58.7366 6.17417 57.816 8.68715C56.8954 11.2001 57.6103 14.0243 59.6134 15.7873C61.6165 17.5502 64.4924 17.8865 66.8436 16.6325V17.4171C66.8411 19.129 65.4631 20.5161 63.7625 20.5187C62.8357 20.5187 62.0844 21.275 62.0844 22.2079C62.0844 23.1408 62.8357 23.8971 63.7625 23.8971C67.3021 23.8847 70.1691 20.9987 70.1815 17.4356V10.9741C70.1691 7.41098 67.3021 4.52498 63.7625 4.51252V4.46175ZM32.0436 14.0479C30.342 14.0505 28.9604 12.6639 28.9579 10.951C28.9554 9.23805 30.3328 7.84738 32.0344 7.84483C33.7361 7.84228 35.1176 9.22882 35.1201 10.9418C35.1227 12.6547 33.7453 14.0454 32.0436 14.0479ZM32.0436 4.46175C28.504 4.47421 25.637 7.36021 25.6246 10.9233V20.1541C25.6246 20.7576 25.9445 21.3152 26.4637 21.617C26.9829 21.9187 27.6226 21.9187 28.1418 21.617C28.661 21.3152 28.9808 20.7576 28.9808 20.1541V16.6187C29.9239 17.1386 30.9822 17.4101 32.0574 17.4079C35.6139 17.4079 38.497 14.5058 38.497 10.9256C38.497 7.34544 35.6139 4.44329 32.0574 4.44329L32.0436 4.46175ZM50.0993 4.46175C46.5597 4.47421 43.6927 7.36021 43.6803 10.9233V15.7141C43.6803 16.647 44.4316 17.4033 45.3584 17.4033C46.2852 17.4033 47.0365 16.647 47.0365 15.7141V10.9464C47.0365 9.23598 48.4139 7.84944 50.113 7.84944C51.8121 7.84944 53.1895 9.23598 53.1895 10.9464V15.7371C53.1571 16.3609 53.4692 16.9517 54.0011 17.2734C54.533 17.5951 55.1977 17.5951 55.7296 17.2734C56.2615 16.9517 56.5736 16.3609 56.5412 15.7371V10.9464C56.5288 7.38329 53.6618 4.49729 50.1222 4.48483L50.0993 4.46175ZM91.0982 13.9925C89.3965 13.9951 88.015 12.6085 88.0125 10.8956C88.0099 9.18267 89.3873 7.79199 91.089 7.78944C92.7906 7.78689 94.1721 9.17343 94.1747 10.8864C94.1772 12.5993 92.7998 13.99 91.0982 13.9925ZM91.0982 4.40637C87.553 4.40637 84.6792 7.29929 84.6792 10.8679C84.6792 14.4365 87.553 17.3294 91.0982 17.3294C94.6433 17.3294 97.5171 14.4365 97.5171 10.8679C97.5047 7.30483 94.6378 4.41883 91.0982 4.40637ZM77.4303 14.0479C75.7287 14.0479 74.3492 12.6593 74.3492 10.9464C74.3492 9.23343 75.7287 7.84483 77.4303 7.84483C79.132 7.84483 80.5114 9.23343 80.5114 10.9464C80.5089 12.6582 79.1309 14.0454 77.4303 14.0479ZM82.185 0.0309826C81.2582 0.0309826 80.5068 0.787277 80.5068 1.72021V5.2556C77.9692 3.86603 74.8221 4.354 72.8176 6.44784C70.813 8.54169 70.4448 11.7255 71.918 14.2269C73.3912 16.7283 76.3428 17.9309 79.1296 17.1652C81.9165 16.3996 83.8519 13.8543 83.8585 10.9464V1.7156C83.8585 0.782662 83.1072 0.0263672 82.1804 0.0263672L82.185 0.0309826ZM40.9522 4.46175C40.0254 4.46175 39.2741 5.21805 39.2741 6.15098V15.7325C39.2741 16.6655 40.0254 17.4218 40.9522 17.4218C41.879 17.4218 42.6303 16.6655 42.6303 15.7325V6.1556C42.6303 5.22266 41.879 4.46637 40.9522 4.46637V4.46175ZM39.2741 1.72021C39.2741 2.65315 40.0254 3.40944 40.9522 3.40944C41.879 3.40944 42.6303 2.65315 42.6303 1.72021C42.6303 0.787277 41.879 0.0309826 40.9522 0.0309826C40.0254 0.0309826 39.2741 0.787277 39.2741 1.72021ZM107.136 17.371C107.582 17.371 108.01 17.1924 108.325 16.8746C108.639 16.5568 108.816 16.1259 108.815 15.6771V8.4956C108.815 8.1056 109.129 7.78944 109.516 7.78944C111.216 7.79199 112.593 9.17985 112.593 10.891V15.6587C112.593 16.5916 113.344 17.3479 114.271 17.3479C115.197 17.3479 115.949 16.5916 115.949 15.6587V10.891C115.936 7.32791 113.069 4.44191 109.53 4.42944C108.714 4.42729 107.906 4.58401 107.15 4.89098C106.394 4.58413 105.586 4.4274 104.771 4.42944C101.232 4.44467 98.3667 7.32883 98.3516 10.891V15.6587C98.3516 16.5916 99.1029 17.3479 100.03 17.3479C100.956 17.3479 101.708 16.5916 101.708 15.6587V10.891C101.708 9.17985 103.084 7.79199 104.784 7.78944C105.172 7.78944 105.486 8.1056 105.486 8.4956V15.6587C105.485 16.1075 105.661 16.5383 105.976 16.8561C106.291 17.1739 106.718 17.3525 107.164 17.3525L107.136 17.371Z" fill="#E5E5E5"/>
</g>
<defs>
<clipPath id="clip0_2002_633">
<rect width="116" height="24" fill="white"/>
</clipPath>
</defs>
</svg>
