<svg width="96" height="24" viewBox="0 0 96 24" fill="none" xmlns="http://www.w3.org/2000/svg">
<g clip-path="url(#clip0_2002_634)">
<path d="M30.85 19.6514C29.0431 19.5482 26.7734 18.3246 25.8625 17.4106L27.8635 14.8897C28.3563 15.4351 30.7156 16.7767 32.3283 16.4818C32.7612 16.3934 33.254 16.0248 33.254 15.4498C33.2839 15.0666 32.9554 14.7128 32.6716 14.5801C32.4028 14.3884 31.5517 14.359 30.9993 14.3295C30.3721 14.3 29.6554 14.2263 28.8938 13.9167C27.4901 13.2386 26.5046 11.8381 26.4598 10.3491C26.4598 8.59484 27.1765 7.62186 27.9083 7.01744C29.3866 5.8823 31.4472 5.77911 32.8658 6.14766C33.9857 6.41301 35.2251 7.01744 35.9568 7.71031L34.1201 10.2459C33.8513 10.0543 32.5522 9.4646 32.0595 9.33197C31.2979 9.11082 30.3273 9.22877 29.8942 9.49411C29.7598 9.5678 29.5658 9.8774 29.6255 10.2459C29.6255 10.5113 29.8793 10.8946 30.0585 10.9978C30.4468 11.1894 30.8052 11.2926 31.3128 11.3221C32.0296 11.3221 33.2242 11.3221 34.135 11.7497C35.6432 12.5604 36.5242 13.9462 36.4047 15.5383C36.3151 16.9241 35.3595 18.2656 34.1052 18.9143C33.1794 19.5186 31.9251 19.7398 30.85 19.6514Z" fill="#E5E5E5"/>
<path d="M44.1701 19.5186C42.3931 19.5186 40.7207 18.8405 39.4365 17.6317C38.1224 16.3934 37.3759 14.7128 37.3609 12.8995C37.3311 11.0862 38.0179 9.39091 39.2722 8.07888C40.5265 6.81106 42.2288 6.04448 44.0655 6.02973C45.9022 6.00025 47.6045 6.67838 48.9185 7.91671L46.6488 10.2459C45.9918 9.62682 45.1108 9.27296 44.185 9.27296H44.1253C43.1695 9.27296 42.2886 9.65625 41.6316 10.3344C40.9745 11.0125 40.6161 11.897 40.646 12.8553C40.646 13.7987 41.0343 14.6685 41.7211 15.3172C42.408 15.9658 43.3039 16.3196 44.2746 16.2902C45.1556 16.2902 45.9768 15.9363 46.6339 15.3466L48.8588 17.7202C47.6194 18.8553 46.0067 19.5039 44.3343 19.5334H44.1701V19.5186Z" fill="#E5E5E5"/>
<path d="M62.6113 6.07411V19.5483H59.8787V18.3247C58.7588 19.0766 57.4149 19.5483 55.9664 19.5483C52.1886 19.5483 49.1125 16.4967 49.1125 12.7817C49.1125 9.05196 52.1736 6.01514 55.9664 6.01514C57.4149 6.01514 58.7588 6.47214 59.8787 7.23873V6.07411H62.6113ZM59.5054 12.7817C59.5054 10.8358 57.9225 9.27312 55.9366 9.27312C53.9953 9.27312 52.3976 10.8358 52.3976 12.7817C52.3976 14.6982 53.9804 16.2756 55.9366 16.2756C57.9225 16.2756 59.5054 14.6982 59.5054 12.7817Z" fill="#E5E5E5"/>
<path d="M78.35 13.0466C78.35 16.7469 75.3038 19.7543 71.5857 19.7543C70.182 19.7543 68.8979 19.3267 67.8377 18.6191V23.9999H64.5825V6.16211H67.8377V7.51838C68.9128 6.78127 70.197 6.38325 71.5857 6.38325C75.3188 6.3685 78.35 9.37586 78.35 13.0466ZM75.0948 13.0466C75.0948 11.1302 73.5269 9.58226 71.5857 9.58226C69.6445 9.58226 68.0468 11.1302 68.0468 13.0466C68.0468 14.9631 69.6296 16.5405 71.5857 16.5405C73.5269 16.5405 75.0948 14.9778 75.0948 13.0466Z" fill="#E5E5E5"/>
<path d="M81.3063 4.55528C80.0819 4.55528 79.0963 3.58231 79.0963 2.32924V2.18182C79.0963 0.972969 80.0819 0 81.3063 0C82.5606 0 83.5909 0.972969 83.5909 2.18182V2.32924C83.5909 3.56756 82.5606 4.55528 81.3063 4.55528ZM83.0086 19.4595H79.7832V6.02948H83.0086V19.4595Z" fill="#E5E5E5"/>
<path d="M91.2514 19.5186C89.4745 19.5186 87.802 18.8405 86.5178 17.6317C85.2038 16.3934 84.4571 14.7128 84.4422 12.8995C84.4123 11.0862 85.0993 9.39091 86.3536 8.07888C87.6079 6.81106 89.3101 6.04448 91.1465 6.02973C92.9839 6.00025 94.6861 6.67838 95.9999 7.91671L93.7305 10.2459C93.0728 9.62682 92.1919 9.27296 91.2665 9.27296H91.207C90.2505 9.27296 89.3697 9.65625 88.7129 10.3344C88.0559 11.0125 87.6975 11.897 87.7273 12.8553C87.7273 13.7987 88.1156 14.6685 88.8025 15.3172C89.4897 15.9658 90.3857 16.3196 91.3563 16.2902C92.2372 16.2902 93.0585 15.9363 93.7154 15.3466L95.9403 17.7202C94.7003 18.8553 93.0879 19.5039 91.4159 19.5334H91.2514V19.5186Z" fill="#E5E5E5"/>
<path d="M10.6466 17.8524C10.3778 17.882 10.3032 17.5134 10.557 17.4397C10.572 17.4397 10.572 17.4397 10.5869 17.425C15.8879 15.9508 19.7703 13.2825 19.2625 11.4692C18.7399 9.65591 14.0213 9.37582 8.72032 10.85C3.41934 12.3242 -0.463072 14.9925 0.0446272 16.8058C1.53786 22.0392 7.04789 25.1055 12.3488 23.6314C16.6643 22.4372 19.5164 18.6044 19.6209 14.4028C15.7833 17.6608 10.6466 17.8524 10.6466 17.8524Z" fill="#F54547"/>
<path d="M15.9024 4.48173C14.9765 1.22374 11.5421 -0.67798 8.22714 0.236026C5.71851 0.943638 3.98636 3.08124 3.73251 5.51367C4.18048 5.21883 6.16649 4.03947 9.18285 3.84782C9.25752 3.84782 9.30232 3.83308 9.30232 3.83308C9.4665 3.80359 9.5113 4.05421 9.36196 4.09844H9.34703C6.0321 5.01244 3.61306 6.67829 3.92663 7.81342C4.25514 8.94852 7.18188 9.11074 10.4969 8.19671C13.8118 7.26797 16.2309 5.61686 15.9024 4.48173Z" fill="#F54547"/>
</g>
<defs>
<clipPath id="clip0_2002_634">
<rect width="96" height="24" fill="white"/>
</clipPath>
</defs>
</svg>
