<svg width="28" height="28" viewBox="0 0 28 28" fill="none" xmlns="http://www.w3.org/2000/svg">
<path d="M7.62631 1.45801C8.48864 1.458 9.19742 1.45798 9.77082 1.5125C10.3667 1.56916 10.9061 1.69079 11.3967 1.99147C11.8839 2.28996 12.2934 2.6995 12.5919 3.18661C12.8926 3.67725 13.0141 4.21666 13.0708 4.81251C13.1253 5.38592 13.1253 6.09468 13.1253 6.95701V7.04233C13.1253 7.90465 13.1253 8.61343 13.0708 9.18684C13.0141 9.78269 12.8926 10.3221 12.5919 10.8127C12.2934 11.2998 11.8839 11.7094 11.3967 12.0079C10.9061 12.3086 10.3667 12.4302 9.77082 12.4869C9.19742 12.5413 8.48866 12.5413 7.62634 12.5413H7.54101C6.67868 12.5413 5.9699 12.5413 5.3965 12.4869C4.80065 12.4302 4.26124 12.3086 3.7706 12.0079C3.28349 11.7094 2.87394 11.2998 2.57545 10.8127C2.27478 10.3221 2.15314 9.78269 2.09649 9.18684C2.04197 8.61343 2.04198 7.90466 2.04199 7.04233V6.95703C2.04198 6.0947 2.04197 5.38593 2.09649 4.81251C2.15314 4.21666 2.27478 3.67725 2.57545 3.18661C2.87394 2.6995 3.28349 2.28996 3.7706 1.99147C4.26124 1.69079 4.80065 1.56916 5.3965 1.5125C5.9699 1.45798 6.67868 1.458 7.54101 1.45801H7.62631Z" fill="#937AFF"/>
<path d="M6.76285 14.389C7.30195 14.2596 7.86404 14.2596 8.40316 14.389C8.94805 14.5198 9.40197 14.8073 9.84734 15.1754C10.2753 15.529 10.758 16.0116 11.3431 16.5968L11.4031 16.6568C11.9883 17.242 12.471 17.7246 12.8246 18.1526C13.1927 18.598 13.4802 19.052 13.6109 19.5968C13.7403 20.1359 13.7403 20.698 13.6109 21.2371C13.4802 21.782 13.1927 22.2359 12.8246 22.6813C12.471 23.1093 11.9883 23.5919 11.4031 24.1771L11.3431 24.2371C10.758 24.8223 10.2753 25.3049 9.84734 25.6586C9.40198 26.0266 8.94805 26.3141 8.40316 26.4449C7.86405 26.5743 7.30195 26.5743 6.76285 26.4449C6.21796 26.3141 5.76404 26.0266 5.31867 25.6586C4.89068 25.3049 4.40804 24.8223 3.8229 24.2371L3.76289 24.1771C3.17772 23.5919 2.69506 23.1093 2.34138 22.6813C1.97336 22.2359 1.68589 21.782 1.55507 21.2371C1.42565 20.698 1.42565 20.1359 1.55507 19.5968C1.68589 19.052 1.97336 18.598 2.34138 18.1526C2.69506 17.7246 3.17772 17.242 3.76289 16.6568L3.79289 16.6268L3.82287 16.5968C4.40803 16.0116 4.89068 15.529 5.31867 15.1754C5.76403 14.8073 6.21796 14.5198 6.76285 14.389Z" fill="#937AFF"/>
<path d="M21.0424 15.458C21.9047 15.458 22.6134 15.458 23.1868 15.5125C23.7826 15.5692 24.3221 15.6908 24.8127 15.9914C25.2999 16.29 25.7094 16.6995 26.0079 17.1867C26.3086 17.6772 26.4302 18.2167 26.4869 18.8125C26.5413 19.3859 26.5413 20.0947 26.5413 20.957V21.0424C26.5413 21.9047 26.5413 22.6134 26.4869 23.1868C26.4302 23.7826 26.3086 24.3221 26.0079 24.8127C25.7094 25.2999 25.2999 25.7094 24.8127 26.0079C24.3221 26.3086 23.7826 26.4302 23.1868 26.4869C22.6134 26.5413 21.9047 26.5413 21.0424 26.5413H20.957C20.0947 26.5413 19.3859 26.5413 18.8125 26.4869C18.2167 26.4302 17.6772 26.3086 17.1867 26.0079C16.6995 25.7094 16.29 25.2999 15.9914 24.8127C15.6908 24.3221 15.5692 23.7826 15.5125 23.1868C15.458 22.6134 15.458 21.9047 15.458 21.0424V20.9571C15.458 20.0948 15.458 19.3859 15.5125 18.8125C15.5692 18.2167 15.6908 17.6772 15.9914 17.1867C16.29 16.6995 16.6995 16.29 17.1867 15.9914C17.6772 15.6908 18.2167 15.5692 18.8125 15.5125C19.3859 15.458 20.0947 15.458 20.957 15.458H21.0424Z" fill="#937AFF"/>
<path fill-rule="evenodd" clip-rule="evenodd" d="M20.7083 1.45825C21.3527 1.45825 21.875 1.98059 21.875 2.62492V6.12492H25.375C26.0193 6.12492 26.5417 6.64726 26.5417 7.29158C26.5417 7.93591 26.0193 8.45825 25.375 8.45825H21.875V11.9583C21.875 12.6026 21.3527 13.1249 20.7083 13.1249C20.064 13.1249 19.5417 12.6026 19.5417 11.9583V8.45825H16.0417C15.3973 8.45825 14.875 7.93592 14.875 7.29158C14.875 6.64726 15.3973 6.12492 16.0417 6.12492H19.5417V2.62492C19.5417 1.98059 20.064 1.45825 20.7083 1.45825Z" fill="#937AFF"/>
</svg>
