<svg width="20" height="20" viewBox="0 0 20 20" fill="none" xmlns="http://www.w3.org/2000/svg">
<path fill-rule="evenodd" clip-rule="evenodd" d="M1.04166 10.0003C1.04166 14.9479 5.05244 18.9587 9.99999 18.9587C14.9476 18.9587 18.9583 14.9479 18.9583 10.0003C18.9583 5.05277 14.9476 1.04199 9.99999 1.04199C5.05244 1.04199 1.04166 5.05277 1.04166 10.0003ZM13.8964 6.88603C14.2357 7.19702 14.2586 7.72417 13.9477 8.06343L9.36432 13.0634C9.21066 13.231 8.99532 13.3285 8.76807 13.3335C8.54082 13.3384 8.32146 13.2503 8.16073 13.0896L6.0774 11.0062C5.75196 10.6808 5.75196 10.1532 6.0774 9.82774C6.40284 9.50232 6.93047 9.50232 7.25591 9.82774L8.72382 11.2957L12.719 6.93722C13.03 6.59796 13.5572 6.57504 13.8964 6.88603Z" fill="#28C114"/>
</svg>
