<svg width="181" height="50" viewBox="0 0 181 50" fill="none" xmlns="http://www.w3.org/2000/svg">
<rect width="50" height="50" rx="25" fill="#8450FF"/>
<path d="M25.5219 8.98419L14.8447 14.3228L9.5062 25L20.1833 19.6614L25.5219 8.98419Z" fill="white"/>
<path d="M25.5218 41.0159L36.1989 35.6773L41.5376 25.0001L30.8604 30.3387L25.5218 41.0159Z" fill="white"/>
<path d="M9.5062 25L14.8453 35.6777L25.5219 41.0158L20.1839 30.3391L9.5062 25Z" fill="white"/>
<path d="M25.5229 8.98303L30.8609 19.6618L41.5386 24.9988L36.1995 14.3232L25.5229 8.98303Z" fill="white"/>
<path d="M67.408 14.392H67.716L77.628 35H74.016L72.252 30.968H62.816L61.052 35H57.552L67.408 14.392ZM67.548 20.356L66.316 23.156L64.076 28.14H71.02L68.808 23.184L67.604 20.356H67.548ZM82.8566 35.28C81.5686 35.28 80.5886 35.0093 79.9166 34.468C79.2446 33.9267 78.7872 33.208 78.5446 32.312C78.3206 31.416 78.2086 30.4267 78.2086 29.344V22.148H81.2326V28.588C81.2326 29.5773 81.2886 30.38 81.4006 30.996C81.5312 31.612 81.7739 32.0693 82.1286 32.368C82.5019 32.648 83.0526 32.788 83.7806 32.788C84.3032 32.788 84.7979 32.648 85.2646 32.368C85.7499 32.0693 86.1512 31.668 86.4686 31.164C86.7859 30.6413 86.9446 30.0627 86.9446 29.428V22.148H89.9406V35H87.4766L87.1406 33.124C86.6739 33.8333 86.0952 34.3747 85.4046 34.748C84.7139 35.1027 83.8646 35.28 82.8566 35.28ZM94.2771 35V24.612H92.0091V22.148H94.2771V16.912L97.3291 16.24V22.148H100.297V24.612H97.3291V35H94.2771ZM107.859 35.28C106.515 35.28 105.329 34.9813 104.303 34.384C103.295 33.7867 102.511 32.9747 101.951 31.948C101.391 30.9213 101.111 29.7827 101.111 28.532C101.111 27.3 101.381 26.18 101.923 25.172C102.483 24.1453 103.267 23.3333 104.275 22.736C105.283 22.12 106.477 21.812 107.859 21.812C109.24 21.812 110.435 22.12 111.443 22.736C112.451 23.3333 113.225 24.1453 113.767 25.172C114.308 26.18 114.579 27.3 114.579 28.532C114.579 29.7827 114.299 30.9213 113.739 31.948C113.197 32.9747 112.423 33.7867 111.415 34.384C110.407 34.9813 109.221 35.28 107.859 35.28ZM107.943 32.816C109.063 32.816 109.921 32.4053 110.519 31.584C111.135 30.7627 111.443 29.764 111.443 28.588C111.443 27.7853 111.293 27.0667 110.995 26.432C110.696 25.7787 110.267 25.256 109.707 24.864C109.165 24.472 108.521 24.276 107.775 24.276C107.047 24.276 106.421 24.472 105.899 24.864C105.376 25.256 104.965 25.7787 104.667 26.432C104.387 27.0667 104.247 27.7853 104.247 28.588C104.247 29.372 104.405 30.0907 104.723 30.744C105.04 31.3787 105.469 31.8827 106.011 32.256C106.571 32.6293 107.215 32.816 107.943 32.816ZM116.975 35V22.148H119.999V24.472C120.428 23.5573 121.044 22.8853 121.847 22.456C122.649 22.0267 123.545 21.812 124.535 21.812C125.804 21.8307 126.765 22.0547 127.419 22.484C128.072 22.9133 128.52 23.4827 128.763 24.192C129.173 23.464 129.789 22.8853 130.611 22.456C131.432 22.0267 132.3 21.812 133.215 21.812C134.615 21.812 135.651 22.0827 136.323 22.624C137.013 23.1467 137.461 23.912 137.667 24.92C137.891 25.9093 138.003 27.1227 138.003 28.56V35H134.951V28.532C134.951 27.0947 134.801 26.0307 134.503 25.34C134.223 24.6493 133.625 24.304 132.711 24.304C131.479 24.304 130.573 24.7147 129.995 25.536C129.416 26.3573 129.127 27.384 129.127 28.616V35H126.103V28.084C126.103 27.2813 126.065 26.6 125.991 26.04C125.935 25.48 125.739 25.0507 125.403 24.752C125.085 24.4533 124.535 24.304 123.751 24.304C123.097 24.304 122.481 24.5 121.903 24.892C121.343 25.284 120.885 25.8067 120.531 26.46C120.195 27.0947 120.027 27.8133 120.027 28.616V35H116.975ZM146.763 35.28C145.624 35.28 144.56 35.0093 143.571 34.468C142.6 33.9267 141.816 33.152 141.219 32.144C140.621 31.136 140.323 29.932 140.323 28.532C140.323 27.188 140.575 26.012 141.079 25.004C141.601 23.996 142.329 23.212 143.263 22.652C144.215 22.092 145.344 21.812 146.651 21.812C147.435 21.812 148.144 21.952 148.779 22.232C149.432 22.4933 149.973 22.82 150.403 23.212C150.851 23.5853 151.149 23.9493 151.299 24.304L151.355 22.148H154.239V35H151.383L151.327 32.732C151.14 33.1427 150.823 33.544 150.375 33.936C149.945 34.328 149.423 34.6547 148.807 34.916C148.191 35.1587 147.509 35.28 146.763 35.28ZM147.267 32.76C147.957 32.76 148.583 32.6013 149.143 32.284C149.721 31.948 150.179 31.4813 150.515 30.884C150.869 30.2867 151.047 29.5773 151.047 28.756V28.56C151.047 27.72 150.869 26.992 150.515 26.376C150.179 25.7413 149.721 25.256 149.143 24.92C148.583 24.5653 147.957 24.388 147.267 24.388C146.016 24.388 145.073 24.7893 144.439 25.592C143.823 26.3947 143.515 27.384 143.515 28.56C143.515 29.7547 143.823 30.7533 144.439 31.556C145.073 32.3587 146.016 32.76 147.267 32.76ZM157.278 35V22.148H160.302V24.668C160.601 23.828 161.077 23.1467 161.73 22.624C162.402 22.0827 163.177 21.812 164.054 21.812C164.652 21.812 165.062 21.868 165.286 21.98L164.866 25.032C164.698 24.92 164.334 24.864 163.774 24.864C163.308 24.864 162.804 24.9667 162.262 25.172C161.721 25.3773 161.254 25.7413 160.862 26.264C160.489 26.768 160.302 27.4773 160.302 28.392V35H157.278ZM166.759 35V14.42H169.643V25.704L169.587 27.888L174.487 22.148H178.211L173.367 27.524L178.239 35H174.683L172.079 30.8L171.351 29.372L169.671 31.192V35H166.759Z" fill="white"/>
</svg>
