<svg width="48" height="48" viewBox="0 0 48 48" fill="none" xmlns="http://www.w3.org/2000/svg">
<path opacity="0.4" d="M24.1143 3.5C28.4958 3.49997 31.9371 3.49995 34.624 3.86119C37.3773 4.23136 39.5618 5.00543 41.2782 6.72183C42.9946 8.43822 43.7686 10.6227 44.1388 13.376C44.5 16.0629 44.5 19.5042 44.5 23.8856V23.8857V24.1143V24.1144C44.5 28.4958 44.5 31.9371 44.1388 34.624C43.7686 37.3773 42.9946 39.5618 41.2782 41.2782C39.5618 42.9946 37.3773 43.7686 34.624 44.1388C31.9371 44.5 28.4958 44.5 24.1144 44.5H24.1143H23.8857H23.8856C19.5042 44.5 16.0629 44.5 13.376 44.1388C10.6227 43.7686 8.43822 42.9946 6.72183 41.2782C5.00543 39.5618 4.23136 37.3773 3.86119 34.624C3.49995 31.9371 3.49997 28.4958 3.5 24.1143V23.8857C3.49997 19.5042 3.49995 16.0629 3.86119 13.376C4.23136 10.6227 5.00543 8.43822 6.72183 6.72183C8.43822 5.00543 10.6227 4.23136 13.376 3.86119C16.0629 3.49995 19.5042 3.49997 23.8857 3.5H24.1143Z" fill="white"/>
<path fill-rule="evenodd" clip-rule="evenodd" d="M14 30.5C14.8284 30.5 15.5 31.1716 15.5 32L15.5 36C15.5 36.8284 14.8284 37.5 14 37.5C13.1716 37.5 12.5 36.8284 12.5 36L12.5 32C12.5 31.1716 13.1716 30.5 14 30.5Z" fill="white"/>
<path fill-rule="evenodd" clip-rule="evenodd" d="M24 28.5C24.8284 28.5 25.5 29.1716 25.5 30L25.5 36C25.5 36.8284 24.8284 37.5 24 37.5C23.1716 37.5 22.5 36.8284 22.5 36L22.5 30C22.5 29.1716 23.1716 28.5 24 28.5Z" fill="white"/>
<path fill-rule="evenodd" clip-rule="evenodd" d="M34 24.5C34.8284 24.5 35.5 25.1716 35.5 26L35.5 36C35.5 36.8284 34.8284 37.5 34 37.5C33.1716 37.5 32.5 36.8284 32.5 36L32.5 26C32.5 25.1716 33.1716 24.5 34 24.5Z" fill="white"/>
<path fill-rule="evenodd" clip-rule="evenodd" d="M33.2895 10.839C32.7386 10.5259 32.1804 10.4835 31.7178 10.5046C31.3092 10.5232 30.8325 10.602 30.3575 10.6804C30.3354 10.6841 30.3133 10.6877 30.2912 10.6914L27.7559 11.1096C26.9385 11.2444 26.3852 12.0163 26.52 12.8337C26.6548 13.6511 27.4267 14.2044 28.2441 14.0696L29.6919 13.8308C25.9269 19.1156 19.9053 21.5 12 21.5C11.1716 21.5 10.5 22.1716 10.5 23C10.5 23.8284 11.1716 24.5 12 24.5C20.6441 24.5 27.7972 21.8118 32.2646 15.389L32.558 16.4131C32.7862 17.2095 33.6167 17.6702 34.4131 17.442C35.2095 17.2138 35.6701 16.3833 35.442 15.5869L34.8057 13.3659C34.7992 13.3432 34.7926 13.3202 34.786 13.2972C34.6699 12.8913 34.5428 12.4469 34.3782 12.0821C34.1778 11.6382 33.8607 11.1637 33.2895 10.839Z" fill="white"/>
</svg>
