<svg width="28" height="28" viewBox="0 0 28 28" fill="none" xmlns="http://www.w3.org/2000/svg">
<path fill-rule="evenodd" clip-rule="evenodd" d="M2.9988 15.5205C4.72245 14.3659 6.77843 14.0247 8.69802 14.498C9.15001 14.6095 9.37596 14.6655 9.39626 14.8242C9.41627 14.9833 9.19533 15.1022 8.75368 15.3389C8.41886 15.5183 8.09054 15.7064 7.84939 15.8555C7.27229 16.1929 6.18526 16.828 5.40017 17.626C4.89345 18.141 4.22727 18.9979 4.10329 20.1758C4.06504 20.5394 4.08265 20.888 4.14529 21.2188C4.20788 21.5493 4.23952 21.7149 4.15603 21.8018C4.07227 21.8886 3.93222 21.8677 3.6531 21.8252C2.45875 21.6434 1.65142 20.9921 0.989035 20.2822C0.493711 19.7513 0.238083 19.1404 0.301535 18.4873C0.361149 17.8742 0.688602 17.3805 1.01638 17.0195C1.53377 16.4498 2.29697 15.9669 2.75368 15.6777C2.85102 15.6161 2.93463 15.5635 2.9988 15.5205ZM6.99978 6.125C7.19305 6.125 7.38362 6.1391 7.56911 6.16699C7.79023 6.20025 7.90096 6.21768 7.95779 6.30957C8.01433 6.40147 7.97444 6.52368 7.89529 6.76758C7.6927 7.39187 7.58376 8.05818 7.58376 8.75C7.58376 10.1966 8.06227 11.5313 8.86989 12.6045C9.02377 12.809 9.10038 12.9114 9.07693 13.0166C9.05319 13.1219 8.95462 13.1747 8.75661 13.2783C8.23157 13.5532 7.63351 13.708 6.99978 13.708C4.90595 13.7078 3.20894 12.0108 3.20876 9.91699C3.20876 7.82302 4.90584 6.12517 6.99978 6.125Z" fill="#937AFF"/>
<path fill-rule="evenodd" clip-rule="evenodd" d="M19.303 14.498C21.2226 14.0247 23.2786 14.3659 25.0022 15.5205C25.0664 15.5635 25.15 15.6161 25.2473 15.6777C25.7041 15.9669 26.4673 16.4498 26.9846 17.0195C27.3124 17.3805 27.6399 17.8743 27.6995 18.4873C27.7629 19.1404 27.5073 19.7513 27.012 20.2822C26.3496 20.9921 25.5423 21.6434 24.3479 21.8252C24.0688 21.8677 23.9288 21.8886 23.845 21.8018C23.7615 21.7149 23.7931 21.5493 23.8557 21.2188C23.9184 20.888 23.936 20.5394 23.8977 20.1758C23.7738 18.9979 23.1076 18.141 22.6009 17.626C21.8158 16.828 20.7287 16.1929 20.1516 15.8555C19.9105 15.7064 19.5821 15.5183 19.2473 15.3389C18.8057 15.1022 18.5848 14.9833 18.6048 14.8242C18.6251 14.6655 18.851 14.6095 19.303 14.498ZM21.0003 6.125C23.0944 6.125 24.7923 7.82291 24.7923 9.91699C24.7921 12.0109 23.0942 13.708 21.0003 13.708C20.3667 13.7079 19.7693 13.5531 19.2444 13.2783C19.0463 13.1746 18.9478 13.1219 18.9241 13.0166C18.9006 12.9114 18.9772 12.809 19.1311 12.6045C19.9387 11.5313 20.4173 10.1966 20.4173 8.75C20.4173 8.05821 20.3083 7.39185 20.1057 6.76758C20.0266 6.52361 19.9866 6.40148 20.0432 6.30957C20.1001 6.21765 20.2107 6.20027 20.4319 6.16699C20.6173 6.13912 20.8072 6.12502 21.0003 6.125Z" fill="#937AFF"/>
<path d="M8.97337 16.8857C12.0508 14.9828 15.9541 14.9828 19.0315 16.8857C19.1223 16.9418 19.2371 17.009 19.3692 17.0862L19.3692 17.0863C19.9669 17.436 20.9156 17.9911 21.563 18.6492C21.9696 19.0625 22.3751 19.6259 22.4491 20.3284C22.5282 21.0799 22.2092 21.7755 21.6007 22.3775C20.5955 23.372 19.3503 24.2085 17.7176 24.2085H10.2873C8.65465 24.2085 7.40943 23.372 6.4042 22.3775C5.79571 21.7755 5.47674 21.0799 5.55584 20.3284C5.62978 19.6259 6.03531 19.0625 6.44192 18.6492C7.08931 17.9911 8.03803 17.436 8.63568 17.0863L8.6357 17.0863C8.76774 17.009 8.88264 16.9418 8.97337 16.8857Z" fill="#937AFF"/>
<path d="M9.04395 8.74984C9.04395 6.01143 11.2639 3.7915 14.0023 3.7915C16.7407 3.7915 18.9606 6.01143 18.9606 8.74984C18.9606 11.4882 16.7407 13.7082 14.0023 13.7082C11.2639 13.7082 9.04395 11.4882 9.04395 8.74984Z" fill="#937AFF"/>
</svg>
