<svg width="28" height="28" viewBox="0 0 28 28" fill="none" xmlns="http://www.w3.org/2000/svg">
<path d="M7.29071 5.8335C7.29071 3.41725 9.24946 1.4585 11.6657 1.4585C14.082 1.4585 16.0407 3.41725 16.0407 5.8335C16.0407 5.9356 16.0372 6.03695 16.0303 6.13744C16.8906 6.15509 17.6361 6.19891 18.2747 6.31C19.1881 6.46889 19.964 6.77789 20.5926 7.40657C21.2213 8.03525 21.5303 8.81115 21.6892 9.72449C21.8003 10.3631 21.8441 11.1086 21.8618 11.9689C21.9623 11.962 22.0636 11.9585 22.1657 11.9585C24.582 11.9585 26.5407 13.9172 26.5407 16.3335C26.5407 18.7497 24.582 20.7085 22.1657 20.7085C22.0636 20.7085 21.9623 20.705 21.8618 20.6981C21.8441 21.5584 21.8003 22.3039 21.6892 22.9425C21.5303 23.8558 21.2213 24.6317 20.5926 25.2604C19.964 25.889 19.1882 26.198 18.275 26.3569C17.3871 26.5114 16.2924 26.5359 14.9701 26.5407C14.6856 26.5417 14.4183 26.4044 14.2535 26.1724C14.0888 25.9404 14.0471 25.6427 14.1419 25.3744C14.238 25.1021 14.2907 24.8082 14.2907 24.5002C14.2907 23.0504 13.1155 21.8752 11.6657 21.8752C10.216 21.8752 9.04071 23.0504 9.04071 24.5002C9.04071 24.8082 9.09341 25.1021 9.18956 25.3744C9.28429 25.6427 9.24264 25.9404 9.07787 26.1724C8.91311 26.4044 8.64583 26.5417 8.36127 26.5407C7.03898 26.5359 5.94433 26.5114 5.05644 26.3569C4.14321 26.198 3.36741 25.889 2.73879 25.2604C2.11017 24.6318 1.80117 23.856 1.64227 22.9428C1.48777 22.0549 1.46334 20.9602 1.4585 19.6379C1.45746 19.3534 1.59485 19.0861 1.82685 18.9213C2.05885 18.7566 2.35648 18.7149 2.6248 18.8096C2.89713 18.9058 3.19099 18.9585 3.49904 18.9585C4.94879 18.9585 6.12404 17.7832 6.12404 16.3335C6.12404 14.8837 4.94879 13.7085 3.49904 13.7085C3.19099 13.7085 2.89713 13.7612 2.6248 13.8573C2.35648 13.9521 2.05885 13.9104 1.82685 13.7457C1.59485 13.5809 1.45746 13.3136 1.4585 13.0291C1.46334 11.7068 1.48777 10.6121 1.64227 9.72422C1.80117 8.81099 2.11017 8.03519 2.73879 7.40657C3.36747 6.77789 4.14336 6.46889 5.05671 6.31C5.6953 6.19891 6.44085 6.15509 7.30114 6.13744C7.29422 6.03695 7.29071 5.9356 7.29071 5.8335Z" fill="#937AFF"/>
</svg>
