<svg width="48" height="48" viewBox="0 0 48 48" fill="none" xmlns="http://www.w3.org/2000/svg">
<path opacity="0.4" d="M2.5 24C2.5 12.1259 12.1259 2.5 24 2.5C35.8741 2.5 45.5 12.1259 45.5 24C45.5 35.8741 35.8741 45.5 24 45.5C12.1259 45.5 2.5 35.8741 2.5 24Z" fill="white"/>
<path d="M9.63676 40.0007C8.31942 38.8175 7.14901 37.4739 6.15625 36.0007H9.99932C12.2458 36.0007 14.5812 35.4835 16.8195 34.6965C17.8615 34.3302 19.0033 34.8779 19.3696 35.92C19.736 36.962 19.1883 38.1037 18.1462 38.4701C15.6323 39.354 12.8337 40.0007 9.99932 40.0007H9.63676Z" fill="white"/>
<path d="M41.8407 36.0007C40.8479 37.4739 39.6775 38.8175 38.3602 40.0007H37.9993C32.2935 40.0007 26.64 37.3738 23.0006 35.2761C21.2755 34.2817 19.5962 33.1789 18.0018 31.9452C13.7254 28.6361 11.5942 24.8967 11.224 21.4304C10.856 17.984 12.275 14.8656 14.8975 13.3162C18.5494 11.1585 21.9184 11.9788 23.9993 13.4577C26.0802 11.9788 29.4492 11.1585 33.1011 13.3162C35.5863 14.7845 37.1366 17.6625 36.972 20.9777C36.8067 24.3093 34.9453 27.9065 31.015 31.1579C30.1639 31.8619 28.9032 31.7428 28.1991 30.8917C27.4951 30.0406 27.6142 28.7799 28.4653 28.0758C31.7732 25.3393 32.8812 22.7093 32.977 20.7795C33.0735 18.8334 32.1765 17.4159 31.0664 16.76C28.9384 15.5027 27.2619 16.0341 26.2921 16.7357C26.017 16.9347 25.6953 17.1674 25.4611 17.3151C25.3343 17.3951 25.1611 17.4977 24.9623 17.5843C24.7773 17.6648 24.4342 17.7928 23.9993 17.7928C23.5644 17.7928 23.2213 17.6648 23.0364 17.5843C22.8375 17.4977 22.6643 17.3951 22.5375 17.3151C22.3033 17.1674 21.9817 16.9347 21.7066 16.7357C20.7367 16.0341 19.0602 15.5027 16.9322 16.76C15.863 17.3917 14.9732 18.8685 15.2014 21.0057C15.4275 23.123 16.7976 25.9556 20.4497 28.7816C21.8822 29.8901 23.4077 30.8938 24.9981 31.8105C28.4736 33.8138 33.3725 36.0007 37.9993 36.0007H41.8407Z" fill="white"/>
</svg>
