<svg width="28" height="28" viewBox="0 0 28 28" fill="none" xmlns="http://www.w3.org/2000/svg">
<path fill-rule="evenodd" clip-rule="evenodd" d="M18.2215 18.6777C18.3423 18.6852 18.5147 18.7038 18.6961 18.7773C19.2494 19.0019 19.5968 19.5318 19.6229 20.1025C19.6314 20.2893 19.5966 20.4533 19.5663 20.5713C19.5377 20.6825 19.4968 20.8118 19.4559 20.9404C19.3134 21.3894 19.1646 21.8558 18.9784 22.1631C18.6952 22.6302 18.2895 23.0041 17.8104 23.2471L17.7069 23.7676C17.6007 24.3035 17.5046 24.7884 17.2743 25.1953C16.9213 25.8189 16.3421 26.3 15.6395 26.5322C15.1785 26.6845 14.537 26.6836 13.9969 26.6826C13.4569 26.6836 12.8162 26.6845 12.3553 26.5322C11.6526 26.3 11.0736 25.8189 10.7205 25.1953C10.4903 24.7884 10.3941 24.3035 10.2879 23.7676L10.1834 23.2461C9.70581 23.0031 9.30189 22.6291 9.01938 22.1631C8.83311 21.8558 8.68436 21.3894 8.54184 20.9404C8.50089 20.8118 8.46007 20.6825 8.43149 20.5713C8.40118 20.4533 8.3663 20.2893 8.37485 20.1025C8.40096 19.5318 8.74829 19.0019 9.3016 18.7773C9.48302 18.7038 9.65545 18.6852 9.77621 18.6777C9.8894 18.6707 10.023 18.6709 10.1512 18.6709H17.8465C17.9747 18.6709 18.1083 18.6707 18.2215 18.6777ZM12.4549 23.5527C12.5528 24.0259 12.5862 24.131 12.6258 24.2012C12.7282 24.382 12.8875 24.507 13.0614 24.5645C13.1314 24.5875 13.2444 24.6006 13.9969 24.6006C14.7507 24.6006 14.8635 24.5876 14.9334 24.5645C15.1073 24.507 15.2657 24.382 15.368 24.2012C15.4077 24.131 15.4419 24.0263 15.5399 23.5527H12.4549Z" fill="#937AFF"/>
<path fill-rule="evenodd" clip-rule="evenodd" d="M14 7.72933C10.4902 7.72933 7.58333 10.6751 7.58333 14.3862C7.58333 15.3838 7.79418 16.3265 8.17022 17.1718C8.43212 17.7605 8.16719 18.45 7.57849 18.7119C6.98978 18.9738 6.30023 18.7089 6.03833 18.1202C5.53142 16.9808 5.25 15.7153 5.25 14.3862C5.25 9.4556 9.13348 5.396 14 5.396C18.8665 5.396 22.75 9.4556 22.75 14.3862C22.75 15.7153 22.4686 16.9808 21.9617 18.1202C21.6998 18.7089 21.0102 18.9738 20.4215 18.7119C19.8328 18.45 19.5679 17.7605 19.8298 17.1718C20.2058 16.3265 20.4167 15.3838 20.4167 14.3862C20.4167 10.6751 17.5098 7.72933 14 7.72933Z" fill="#937AFF"/>
<path fill-rule="evenodd" clip-rule="evenodd" d="M13.9998 1.3125C14.6442 1.3125 15.1665 1.83483 15.1665 2.47917V3.64583C15.1665 4.29017 14.6442 4.8125 13.9998 4.8125C13.3555 4.8125 12.8332 4.29017 12.8332 3.64583V2.47917C12.8332 1.83483 13.3555 1.3125 13.9998 1.3125ZM23.0735 5.07132C23.5291 5.52694 23.5291 6.26563 23.0735 6.72124L22.2485 7.5462C21.7929 8.00181 21.0542 8.00181 20.5986 7.5462C20.143 7.09058 20.143 6.35189 20.5986 5.89628L21.4236 5.07132C21.8792 4.61571 22.6179 4.61571 23.0735 5.07132ZM4.92609 5.0718C5.38171 4.61619 6.1204 4.61619 6.57601 5.0718L7.40097 5.89676C7.85658 6.35237 7.85658 7.09107 7.40097 7.54668C6.94535 8.00229 6.20666 8.00229 5.75105 7.54668L4.92609 6.72172C4.47048 6.26611 4.47048 5.52742 4.92609 5.0718ZM1.1665 14.1458C1.1665 13.5015 1.68884 12.9792 2.33317 12.9792H3.49984C4.14417 12.9792 4.6665 13.5015 4.6665 14.1458C4.6665 14.7902 4.14417 15.3125 3.49984 15.3125H2.33317C1.68884 15.3125 1.1665 14.7902 1.1665 14.1458ZM23.3332 14.1458C23.3332 13.5015 23.8555 12.9792 24.4998 12.9792H25.6665C26.3108 12.9792 26.8332 13.5015 26.8332 14.1458C26.8332 14.7902 26.3108 15.3125 25.6665 15.3125H24.4998C23.8555 15.3125 23.3332 14.7902 23.3332 14.1458Z" fill="#937AFF"/>
</svg>
