<svg width="28" height="28" viewBox="0 0 28 28" fill="none" xmlns="http://www.w3.org/2000/svg">
<path d="M16.4043 3.20801C18.5451 3.20799 20.2466 3.20808 21.5791 3.39844C22.9569 3.59528 24.0681 4.01073 24.9385 4.93555C25.8019 5.85288 26.1833 7.01137 26.3652 8.44922C26.543 9.85436 26.543 11.6532 26.543 13.9375V14.0625C26.543 16.3468 26.543 18.1456 26.3652 19.5508C26.1833 20.9886 25.8018 22.1471 24.9385 23.0645C24.0681 23.9893 22.9569 24.4047 21.5791 24.6016C20.2466 24.7919 18.5451 24.792 16.4043 24.792H11.5986C9.45789 24.792 7.7564 24.7919 6.42383 24.6016C5.04612 24.4048 3.93489 23.9891 3.06445 23.0645C2.2011 22.1471 1.81967 20.9886 1.6377 19.5508C1.45989 18.1456 1.45897 16.3468 1.45898 14.0625V13.9375C1.45897 11.6532 1.45989 9.85436 1.6377 8.44922C1.81967 7.01141 2.2011 5.85286 3.06445 4.93555C3.93489 4.0109 5.04611 3.59524 6.42383 3.39844C7.7564 3.20813 9.45787 3.20799 11.5986 3.20801H16.4043ZM13.0811 15.6084C11.1458 14.328 8.69014 14.3281 6.75488 15.6084C5.9296 16.1544 3.76606 17.269 5.08398 18.6641C5.72774 19.3455 6.4443 19.833 7.3457 19.833H12.4902C13.3915 19.8328 14.1083 19.3454 14.752 18.6641C16.0696 17.2691 13.9064 16.1544 13.0811 15.6084ZM17.501 14.875C17.0178 14.8751 16.626 15.2668 16.626 15.75C16.626 16.2332 17.0178 16.6249 17.501 16.625H19.834C20.3172 16.625 20.709 16.2332 20.709 15.75C20.709 15.2668 20.3172 14.875 19.834 14.875H17.501ZM9.91797 8.16699C8.46837 8.16699 7.29322 9.32715 7.29297 10.7588C7.29297 12.1906 8.46822 13.3516 9.91797 13.3516C11.3676 13.3515 12.543 12.1906 12.543 10.7588C12.5427 9.3272 11.3675 8.16708 9.91797 8.16699ZM17.501 10.208C17.0179 10.2081 16.6262 10.5999 16.626 11.083C16.626 11.5662 17.0178 11.958 17.501 11.958H22.168C22.6511 11.9579 23.043 11.5662 23.043 11.083C23.0428 10.6 22.651 10.2081 22.168 10.208H17.501Z" fill="#937AFF"/>
</svg>
