<svg width="48" height="48" viewBox="0 0 48 48" fill="none" xmlns="http://www.w3.org/2000/svg">
<path opacity="0.4" d="M14.4275 29.9999C19.367 29.9999 23.8232 31.3365 28.2233 32.6562C32.5754 33.9616 36.9293 35.264 42.0004 35.5445C42.9686 35.5981 43.4527 35.6249 43.7264 35.914C44 36.2032 44 36.6688 44 37.5999V41.9999C44 42.9427 44 43.4141 43.7071 43.707C43.4142 43.9999 42.9428 43.9999 42 43.9999H6C5.05719 43.9999 4.58579 43.9999 4.29289 43.707C4 43.4141 4 42.9427 4 41.9999V32.934C4 32.2353 4 31.8859 4.20397 31.6176C4.40794 31.3494 4.72568 31.2612 5.36118 31.0849C5.83892 30.9524 6.3215 30.8351 6.81076 30.7329C8.5812 30.3628 11.1526 29.9999 14.4275 29.9999Z" fill="white"/>
<path d="M23.4505 3.57747C24.5126 3.27402 25.6195 3.889 25.923 4.95107C26.0925 5.54428 26.2234 5.66208 26.8445 5.58956C32.8239 4.89134 38.5161 8.25503 41.1914 13.7728C41.4485 14.3022 41.7182 14.8345 41.8737 15.4047C42.0631 16.0992 42.1003 16.9916 41.539 17.862C40.9343 18.7998 40.018 19.093 39.3117 19.1736C38.7618 19.2364 38.1095 19.1939 37.5577 19.158L34.705 18.9747C34.4257 18.9567 34.4207 18.9582 34.192 19.1197L31.7098 20.8737C31.4899 21.0292 31.3799 21.1069 31.3372 21.2249C31.2945 21.3429 31.3292 21.473 31.3985 21.7332L33.497 29.6024C33.6604 30.2153 33.7422 30.5218 33.5735 30.6852C33.4049 30.8486 33.1012 30.7573 32.4937 30.5747L30.0071 29.8271C29.3802 29.6386 29.3618 29.6197 29.1931 28.9871L27.6686 23.2702C27.5971 23.0021 27.5614 22.8681 27.4618 22.7864C27.3623 22.7047 27.2238 22.6958 26.9469 22.678L22.7349 22.4074C22.4556 22.3895 22.4505 22.3909 22.2219 22.5525L19.8795 24.2078C19.4076 24.5418 18.8584 24.9305 18.3473 25.1703C17.7008 25.4735 16.7262 25.7234 15.6917 25.188C14.7298 24.6902 14.3324 23.8458 14.1732 23.1348C14.0403 22.541 14.0305 21.9261 14.0097 21.3204C13.8071 15.5204 16.7765 9.96522 21.7327 7.23187C22.3321 6.90133 22.2555 6.67507 22.0769 6.04996C21.7734 4.98789 22.3884 3.88092 23.4505 3.57747Z" fill="white"/>
</svg>
