<svg width="28" height="28" viewBox="0 0 28 28" fill="none" xmlns="http://www.w3.org/2000/svg">
<path d="M12.8332 0H15.1665V4.66667H12.8332V0ZM5.83434 0.683667L4.18467 2.33333L7.58317 5.733L9.234 4.08333L5.83434 0.683667ZM1.1665 16.023L6.32317 7H21.6765L26.8332 16.023V25.6667H1.1665V16.023ZM7.6765 9.33333L4.34334 15.1667H10.3843L10.6095 16.0417C10.8042 16.7928 11.2427 17.458 11.8563 17.9328C12.47 18.4077 13.2239 18.6654 13.9998 18.6654C14.7758 18.6654 15.5297 18.4077 16.1433 17.9328C16.757 17.458 17.1955 16.7928 17.3902 16.0417L17.6153 15.1667H23.6563L20.3232 9.33333H7.6765ZM22.1653 0.683667L18.7657 4.08333L20.4153 5.733L23.815 2.33333L22.1653 0.683667Z" fill="#937AFF"/>
</svg>
