<svg width="28" height="28" viewBox="0 0 28 28" fill="none" xmlns="http://www.w3.org/2000/svg">
<path d="M8.16683 2.33317C8.16683 1.68884 7.6445 1.1665 7.00016 1.1665C6.35583 1.1665 5.8335 1.68884 5.8335 2.33317V2.85683C6.27721 2.71609 6.74995 2.61559 7.25138 2.54271C7.54065 2.50067 7.84567 2.46706 8.16683 2.44019V2.33317Z" fill="#937AFF"/>
<path d="M22.1668 2.85683C21.7231 2.71609 21.2504 2.61559 20.7489 2.54271C20.4597 2.50067 20.1547 2.46706 19.8335 2.44019V2.33317C19.8335 1.68884 20.3558 1.1665 21.0002 1.1665C21.6445 1.1665 22.1668 1.68884 22.1668 2.33317V2.85683Z" fill="#937AFF"/>
<path fill-rule="evenodd" clip-rule="evenodd" d="M15.2002 2.3335H12.7998C10.5268 2.33346 8.69332 2.33343 7.25122 2.54304C5.74624 2.76178 4.4996 3.22928 3.52102 4.2872C2.55441 5.33219 2.13825 6.64167 1.94152 8.2236C1.74996 9.76393 1.74998 11.7299 1.75 14.203V14.964C1.74998 17.4371 1.74996 19.4031 1.94152 20.9434C2.13825 22.5253 2.55441 23.8348 3.52102 24.8798C4.4996 25.9377 5.74624 26.4052 7.25122 26.624C8.69332 26.8336 10.5267 26.8335 12.7998 26.8335H15.2002C17.4732 26.8335 19.3067 26.8336 20.7488 26.624C22.2538 26.4052 23.5004 25.9377 24.479 24.8798C25.4456 23.8348 25.8617 22.5253 26.0585 20.9434C26.25 19.4031 26.25 17.4371 26.25 14.9639V14.203C26.25 11.7299 26.25 9.76393 26.0585 8.2236C25.8617 6.64167 25.4456 5.33219 24.479 4.2872C23.5004 3.22928 22.2538 2.76178 20.7488 2.54304C19.3067 2.33343 17.4732 2.33346 15.2002 2.3335ZM5.24746 10.5002C4.71241 10.5002 4.44488 10.5002 4.27449 10.6684C4.10411 10.8365 4.10069 11.1007 4.09383 11.6289C4.08365 12.4143 4.08333 13.2934 4.08333 14.2839V14.883C4.08333 17.4554 4.08546 19.276 4.25702 20.6554C4.42548 22.0101 4.73973 22.7611 5.23392 23.2954C5.71615 23.8167 6.37548 24.1388 7.58683 24.3149C8.84167 24.4973 10.505 24.5002 12.8917 24.5002H15.1083C17.495 24.5002 19.1583 24.4973 20.4132 24.3149C21.6245 24.1388 22.2838 23.8167 22.7661 23.2954C23.2603 22.7611 23.5745 22.0101 23.743 20.6554C23.9145 19.276 23.9167 17.4554 23.9167 14.883V14.2839C23.9167 13.2934 23.9164 12.4143 23.9062 11.6289C23.8993 11.1007 23.8959 10.8365 23.7255 10.6684C23.5551 10.5002 23.2876 10.5002 22.7525 10.5002H5.24746Z" fill="#937AFF"/>
<path d="M13.9988 12.8335C14.7017 12.8335 15.1612 13.3596 15.4017 13.8465L15.4022 13.8475L15.9121 14.8755C15.9854 15.0232 16.0221 15.0971 16.0857 15.1443C16.1493 15.1915 16.2306 15.2051 16.3933 15.2324L17.2472 15.3755C17.7842 15.4657 18.3948 15.7584 18.6025 16.41C18.8098 17.0604 18.483 17.6525 18.0978 18.0388L18.0967 18.0399L17.4289 18.714C17.3044 18.8397 17.2422 18.9025 17.2189 18.9838C17.1957 19.065 17.2153 19.1513 17.2546 19.3238L17.437 20.1258C17.56 20.6639 17.5833 21.4582 16.9593 21.9169C16.3319 22.3782 15.5799 22.1119 15.1062 21.8298L14.3368 21.3704C14.1724 21.2722 14.0901 21.2231 13.9993 21.2231C13.9085 21.2231 13.8263 21.2722 13.6618 21.3704L12.8928 21.8295C12.417 22.1141 11.6669 22.3762 11.0405 21.9153C10.4181 21.4573 10.4377 20.6656 10.5618 20.125L10.7445 19.328C10.7841 19.1555 10.8039 19.0693 10.7808 18.988C10.7577 18.9067 10.6955 18.8438 10.5713 18.7179L9.89995 18.0379C9.51714 17.6519 9.19159 17.0606 9.39713 16.4115C9.60367 15.7592 10.214 15.4658 10.7518 15.3754L11.6019 15.2326C11.7645 15.2053 11.8458 15.1917 11.9094 15.1445C11.973 15.0973 12.0096 15.0234 12.0829 14.8757L12.5934 13.846L12.5941 13.8445C12.8364 13.3585 13.297 12.8335 13.9988 12.8335Z" fill="#937AFF"/>
</svg>
