<svg width="48" height="48" viewBox="0 0 48 48" fill="none" xmlns="http://www.w3.org/2000/svg">
<path fill-rule="evenodd" clip-rule="evenodd" d="M14.0004 42.5C10.3491 42.5 7.07085 41.7785 4.63511 40.6409C3.88452 40.2904 2.99185 40.6146 2.64128 41.3652C2.29072 42.1158 2.615 43.0085 3.3656 43.3591C6.26003 44.7109 9.98337 45.5 14.0004 45.5C18.0173 45.5 21.7407 44.7109 24.6351 43.3591C27.0708 42.2215 30.3491 41.5 34.0004 41.5C37.6516 41.5 40.9299 42.2215 43.3656 43.3591C44.1162 43.7096 45.0089 43.3854 45.3594 42.6348C45.71 41.8842 45.3857 40.9915 44.6351 40.6409C41.7407 39.2891 38.0173 38.5 34.0004 38.5C29.9834 38.5 26.26 39.2891 23.3656 40.6409C20.9299 41.7785 17.6517 42.5 14.0004 42.5Z" fill="white"/>
<path opacity="0.4" d="M23.3655 4.64093C26.2599 3.28908 29.9833 2.5 34.0003 2.5C36.24 2.5 38.3813 2.74513 40.3352 3.19266L40.4519 3.21934C41.5457 3.46919 42.4367 3.67273 43.4131 4.44527C43.9971 4.90744 44.6464 5.72216 44.9664 6.39468C45.5028 7.52162 45.5017 8.63649 45.5004 10.0169V10.0169L45.5003 10.2279V31.7721C45.5003 34.9064 42.3183 36.7246 39.6654 36.1169C37.9405 35.7219 36.0243 35.5 34.0003 35.5C30.349 35.5 27.0708 36.2215 24.635 37.3591C21.7406 38.7109 18.0173 39.5 14.0003 39.5C11.7606 39.5 9.61924 39.2549 7.66537 38.8073L7.54864 38.7807C6.45486 38.5308 5.56381 38.3273 4.58748 37.5547C4.00339 37.0926 3.35418 36.2778 3.03409 35.6053C2.49771 34.4784 2.49879 33.3635 2.50013 31.9831L2.50027 31.7721V10.2279C2.50027 7.09357 5.68227 5.27544 8.33516 5.88307C10.06 6.27814 11.9763 6.5 14.0003 6.5C17.6516 6.5 20.9298 5.77854 23.3655 4.64093Z" fill="white"/>
<path fill-rule="evenodd" clip-rule="evenodd" d="M11 21C12.1046 21 13 21.8954 13 23L13 23.018C13 24.1225 12.1046 25.018 11 25.018C9.89543 25.018 9 24.1225 9 23.018L9 23C9 21.8954 9.89543 21 11 21Z" fill="white"/>
<path fill-rule="evenodd" clip-rule="evenodd" d="M37 16.9844C38.1046 16.9844 39 17.8798 39 18.9844L39 19.0023C39 20.1069 38.1046 21.0023 37 21.0023C35.8954 21.0023 35 20.1069 35 19.0023L35 18.9844C35 17.8798 35.8954 16.9844 37 16.9844Z" fill="white"/>
<path d="M30 21C30 24.3137 27.3137 27 24 27C20.6863 27 18 24.3137 18 21C18 17.6863 20.6863 15 24 15C27.3137 15 30 17.6863 30 21Z" fill="white"/>
</svg>
