<svg width="385" height="247" viewBox="0 0 385 247" fill="none" xmlns="http://www.w3.org/2000/svg">
<path opacity="0.9" d="M29.2218 149.416H0V246.865H384.449V109.669H376.231C356.141 108.651 347.237 127.6 341.53 139.941C327.284 164.713 307.97 155.099 304.318 147.105C295.916 125.845 288.337 117.942 281.716 119.837C255.234 127.416 243.439 107.435 240.852 96.4969C222.588 44.364 206.303 68.4586 200.443 87.0224C191.859 121.223 164.829 124.364 151.36 118.681C131.498 110.301 113.006 142.021 103.189 159.583C91.7747 176.221 60.27 170.813 52.7362 159.583C47.2298 151.376 35.2336 149.107 29.2218 149.416Z" fill="url(#paint0_linear_110_26770)" fill-opacity="0.5"/>
<path d="M0 149.291H29.2218C35.2336 148.984 47.2298 151.249 52.7362 159.444C60.27 170.657 91.7747 176.058 103.189 159.444C113.006 141.907 131.498 110.234 151.36 118.602C164.829 124.277 191.859 121.14 200.443 86.99C206.303 68.4534 222.588 44.3944 240.852 96.4506C243.439 107.373 255.234 127.324 281.716 119.756C288.337 117.864 295.916 125.755 304.318 146.984C307.97 154.966 327.284 164.567 341.53 139.831C347.237 127.507 356.141 108.586 376.231 109.603H384.449" stroke="#C084FC" stroke-width="1.65355"/>
<rect opacity="0.5" x="157.084" y="50.0945" width="32.2441" height="196.772" fill="#937AFF"/>
<path d="M172.795 114.582C175.078 114.582 176.929 116.433 176.929 118.716C176.929 120.998 175.078 122.849 172.795 122.849C170.512 122.849 168.661 120.999 168.661 118.716C168.661 116.433 170.512 114.582 172.795 114.582Z" fill="#C084FC" stroke="white" stroke-width="1.65355"/>
<g filter="url(#filter0_d_110_26770)">
<path d="M134.764 17.3622C134.764 12.7961 138.465 9.09448 143.031 9.09448H200.905C205.472 9.09448 209.173 12.7961 209.173 17.3622V57.0473C209.173 61.6134 205.472 65.315 200.905 65.315H184.124C181.662 65.315 179.327 66.4128 177.756 68.3095L173.919 72.9439C172.931 74.1369 171.103 74.1425 170.108 72.9556L166.179 68.2704C164.608 66.3971 162.289 65.315 159.844 65.315H143.031C138.465 65.315 134.764 61.6134 134.764 57.0473V17.3622Z" fill="#937AFF"/>
</g>
<path d="M165.001 30.3621L164.249 28.1744H161.135L160.394 30.3621H158.82L161.853 22.0629H163.543L166.575 30.3621H165.001ZM163.149 24.7714C163.118 24.6634 163.072 24.5168 163.01 24.3316C162.949 24.1464 162.887 23.9573 162.825 23.7644C162.771 23.5638 162.729 23.3979 162.698 23.2667C162.659 23.421 162.609 23.5985 162.547 23.7991C162.493 23.9998 162.439 24.1888 162.385 24.3663C162.339 24.5438 162.3 24.6788 162.27 24.7714L161.54 26.9012H163.867L163.149 24.7714ZM170.822 23.9728C171.555 23.9728 172.146 24.2467 172.593 24.7946C173.041 25.3347 173.265 26.1411 173.265 27.2137C173.265 27.9236 173.16 28.5217 172.952 29.0078C172.744 29.4939 172.454 29.8605 172.084 30.1074C171.713 30.3543 171.281 30.4778 170.787 30.4778C170.487 30.4778 170.22 30.4392 169.989 30.3621C169.757 30.2772 169.561 30.173 169.399 30.0495C169.236 29.9184 169.098 29.7795 168.982 29.6328H168.889C168.92 29.7717 168.943 29.9299 168.959 30.1074C168.974 30.2772 168.982 30.4392 168.982 30.5936V33.14H167.523V24.0885H168.704L168.912 24.9219H168.982C169.098 24.7444 169.236 24.5862 169.399 24.4473C169.568 24.3007 169.769 24.185 170 24.1001C170.24 24.0152 170.514 23.9728 170.822 23.9728ZM170.406 25.1534C170.066 25.1534 169.792 25.2228 169.584 25.3617C169.375 25.4929 169.225 25.6974 169.132 25.9752C169.04 26.253 168.99 26.6002 168.982 27.0169V27.2021C168.982 27.6497 169.024 28.0278 169.109 28.3365C169.202 28.6451 169.352 28.8805 169.561 29.0425C169.777 29.2046 170.066 29.2856 170.429 29.2856C170.737 29.2856 170.988 29.2007 171.181 29.031C171.382 28.8612 171.528 28.622 171.621 28.3133C171.721 27.9969 171.771 27.6227 171.771 27.1906C171.771 26.5424 171.659 26.0408 171.436 25.6858C171.22 25.3309 170.876 25.1534 170.406 25.1534ZM178.056 23.9728C178.149 23.9728 178.257 23.9766 178.38 23.9843C178.504 23.9921 178.608 24.0075 178.693 24.0306L178.566 25.3849C178.496 25.3695 178.403 25.3579 178.288 25.3502C178.18 25.3347 178.083 25.327 177.998 25.327C177.767 25.327 177.543 25.3656 177.327 25.4428C177.119 25.5122 176.93 25.6202 176.76 25.7669C176.598 25.9058 176.467 26.0871 176.366 26.3109C176.274 26.5347 176.227 26.8009 176.227 27.1095V30.3621H174.769V24.0885H175.892L176.1 25.1765H176.17C176.293 24.9528 176.447 24.7521 176.633 24.5747C176.818 24.3895 177.03 24.2428 177.269 24.1348C177.516 24.0268 177.778 23.9728 178.056 23.9728ZM181.314 24.0885V30.3621H179.856V24.0885H181.314ZM180.585 21.6694C180.801 21.6694 180.99 21.7272 181.152 21.843C181.314 21.951 181.395 22.1478 181.395 22.4333C181.395 22.7111 181.314 22.9117 181.152 23.0352C180.99 23.1509 180.801 23.2088 180.585 23.2088C180.361 23.2088 180.168 23.1509 180.006 23.0352C179.852 22.9117 179.775 22.7111 179.775 22.4333C179.775 22.1478 179.852 21.951 180.006 21.843C180.168 21.7272 180.361 21.6694 180.585 21.6694ZM184.637 30.3621H183.179V21.5652H184.637V30.3621Z" fill="white"/>
<path d="M152.585 52.3757C151.98 52.3559 151.42 52.2963 150.904 52.1971C150.398 52.0979 149.956 51.964 149.579 51.7953V50.1285C149.956 50.3071 150.423 50.4708 150.978 50.6196C151.534 50.7685 152.07 50.8528 152.585 50.8726V48.3427C152.04 48.1443 151.573 47.9508 151.187 47.7623C150.8 47.5639 150.487 47.3555 150.249 47.1373C150.021 46.9091 149.847 46.6561 149.728 46.3783C149.619 46.1005 149.564 45.783 149.564 45.4259C149.564 44.9298 149.688 44.5032 149.936 44.146C150.194 43.7888 150.552 43.5061 151.008 43.2977C151.464 43.0795 151.99 42.9505 152.585 42.9108V41.7203H153.568V42.881C154.113 42.9009 154.619 42.9654 155.086 43.0745C155.552 43.1836 155.998 43.3275 156.425 43.5061L155.845 44.9794C155.477 44.8306 155.096 44.7115 154.699 44.6222C154.312 44.523 153.935 44.4585 153.568 44.4288V46.8992C154.143 47.0877 154.664 47.296 155.13 47.5242C155.606 47.7524 155.979 48.0401 156.246 48.3874C156.524 48.7247 156.663 49.1662 156.663 49.7118C156.663 50.4262 156.4 51.0165 155.874 51.4828C155.349 51.9491 154.58 52.2318 153.568 52.3311V53.8788H152.585V52.3757ZM153.568 50.8131C153.994 50.7536 154.307 50.6395 154.505 50.4708C154.714 50.3022 154.818 50.0839 154.818 49.816C154.818 49.6374 154.773 49.4837 154.684 49.3547C154.604 49.2257 154.47 49.1116 154.282 49.0124C154.103 48.9033 153.865 48.7991 153.568 48.6999V50.8131ZM152.585 44.4585C152.327 44.4883 152.109 44.5429 151.931 44.6222C151.762 44.7016 151.633 44.8058 151.544 44.9347C151.454 45.0637 151.41 45.2125 151.41 45.3812C151.41 45.5598 151.444 45.7185 151.514 45.8574C151.593 45.9864 151.717 46.1055 151.886 46.2146C152.065 46.3237 152.298 46.4279 152.585 46.5271V44.4585ZM161.667 46.3336C162.342 46.3336 162.937 46.4577 163.453 46.7057C163.969 46.9537 164.371 47.3159 164.659 47.7921C164.956 48.2584 165.105 48.8338 165.105 49.5184C165.105 50.2724 164.946 50.9222 164.629 51.4679C164.311 52.0136 163.845 52.4352 163.23 52.7329C162.615 53.0206 161.861 53.1644 160.968 53.1644C160.412 53.1644 159.891 53.1148 159.405 53.0156C158.919 52.9164 158.498 52.7726 158.14 52.584V50.9173C158.507 51.1157 158.949 51.2794 159.465 51.4084C159.981 51.5374 160.467 51.6018 160.923 51.6018C161.399 51.6018 161.806 51.5374 162.144 51.4084C162.481 51.2695 162.739 51.0611 162.917 50.7833C163.096 50.4956 163.185 50.1335 163.185 49.697C163.185 49.1017 162.997 48.6503 162.62 48.3427C162.243 48.0351 161.657 47.8814 160.864 47.8814C160.586 47.8814 160.283 47.9062 159.956 47.9558C159.638 48.0054 159.376 48.055 159.167 48.1046L158.364 47.6581L158.765 42.3899H164.361V44.027H160.417L160.194 46.4825C160.363 46.4527 160.561 46.4229 160.789 46.3932C161.027 46.3535 161.32 46.3336 161.667 46.3336ZM169.008 51.453C168.919 51.8003 168.805 52.1773 168.666 52.584C168.527 52.9809 168.378 53.3778 168.219 53.7746C168.061 54.1814 167.897 54.5683 167.728 54.9354H166.374C166.473 54.5485 166.567 54.1367 166.657 53.7002C166.746 53.2736 166.83 52.8519 166.91 52.4352C166.989 52.0185 167.054 51.6366 167.103 51.2893H168.904L169.008 51.453ZM170.65 48.4915C170.65 47.8764 170.689 47.2712 170.769 46.6759C170.858 46.0807 171.012 45.5201 171.23 44.9943C171.448 44.4585 171.751 43.9873 172.138 43.5805C172.535 43.1638 173.031 42.8414 173.626 42.6132C174.221 42.3751 174.945 42.256 175.799 42.256C176.007 42.256 176.245 42.2659 176.513 42.2858C176.781 42.3056 177.004 42.3354 177.183 42.3751V43.9228C176.994 43.8633 176.786 43.8236 176.558 43.8037C176.339 43.774 176.121 43.7591 175.903 43.7591C175.228 43.7591 174.668 43.8533 174.221 44.0418C173.785 44.2204 173.437 44.4784 173.179 44.8157C172.931 45.153 172.748 45.5449 172.629 45.9914C172.52 46.4279 172.45 46.914 172.42 47.4498H172.51C172.659 47.2117 172.837 46.9984 173.045 46.8099C173.264 46.6214 173.527 46.4725 173.834 46.3634C174.142 46.2543 174.499 46.1997 174.906 46.1997C175.521 46.1997 176.057 46.3336 176.513 46.6015C176.969 46.8595 177.322 47.2365 177.57 47.7325C177.828 48.2187 177.957 48.814 177.957 49.5184C177.957 50.2724 177.813 50.9222 177.525 51.4679C177.237 52.0136 176.83 52.4352 176.305 52.7329C175.779 53.0206 175.154 53.1644 174.43 53.1644C173.894 53.1644 173.398 53.0702 172.941 52.8817C172.485 52.6932 172.083 52.4104 171.736 52.0334C171.389 51.6465 171.121 51.1603 170.932 50.575C170.744 49.9797 170.65 49.2852 170.65 48.4915ZM174.385 51.6316C174.901 51.6316 175.317 51.4629 175.635 51.1256C175.952 50.7784 176.111 50.2476 176.111 49.5333C176.111 48.9578 175.972 48.5064 175.694 48.179C175.417 47.8417 175 47.673 174.444 47.673C174.057 47.673 173.72 47.7574 173.432 47.926C173.155 48.0848 172.936 48.2931 172.778 48.5511C172.619 48.7991 172.54 49.057 172.54 49.3249C172.54 49.6027 172.574 49.8755 172.644 50.1434C172.723 50.4113 172.842 50.6593 173.001 50.8875C173.16 51.1157 173.353 51.2992 173.581 51.4381C173.819 51.5671 174.087 51.6316 174.385 51.6316ZM180.312 53.0156L184.449 44.0121H179.017V42.3899H186.458V43.6549L182.321 53.0156H180.312ZM194.543 44.8157C194.543 45.2919 194.444 45.7086 194.245 46.0658C194.057 46.4229 193.794 46.7156 193.456 46.9438C193.119 47.1621 192.727 47.3208 192.281 47.42V47.4647C193.134 47.5639 193.779 47.8268 194.215 48.2534C194.652 48.68 194.87 49.2455 194.87 49.95C194.87 50.5651 194.721 51.1157 194.424 51.6018C194.126 52.088 193.665 52.47 193.04 52.7478C192.425 53.0255 191.631 53.1644 190.659 53.1644C190.083 53.1644 189.548 53.1148 189.051 53.0156C188.555 52.9263 188.089 52.7825 187.653 52.584V50.9322C188.099 51.1603 188.575 51.334 189.081 51.453C189.587 51.5721 190.063 51.6316 190.51 51.6316C191.373 51.6316 191.983 51.4778 192.34 51.1703C192.698 50.8528 192.876 50.4163 192.876 49.8607C192.876 49.5035 192.787 49.2108 192.608 48.9826C192.43 48.7544 192.137 48.5858 191.73 48.4766C191.333 48.3576 190.812 48.2981 190.168 48.2981H189.275V46.795H190.182C190.808 46.795 191.299 46.7255 191.656 46.5866C192.023 46.4477 192.281 46.2543 192.43 46.0062C192.588 45.7582 192.668 45.4705 192.668 45.1431C192.668 44.7165 192.529 44.3841 192.251 44.146C191.973 43.9079 191.557 43.7888 191.001 43.7888C190.644 43.7888 190.321 43.8285 190.034 43.9079C189.746 43.9873 189.483 44.0914 189.245 44.2204C189.007 44.3395 188.784 44.4684 188.575 44.6073L187.682 43.3126C187.95 43.1142 188.253 42.9356 188.59 42.7769C188.927 42.6082 189.304 42.4792 189.721 42.3899C190.138 42.2907 190.594 42.2411 191.09 42.2411C192.192 42.2411 193.04 42.4743 193.635 42.9406C194.24 43.397 194.543 44.022 194.543 44.8157Z" fill="white"/>
<defs>
<filter id="filter0_d_110_26770" x="119.882" y="-1.4782e-05" width="104.173" height="94.5116" filterUnits="userSpaceOnUse" color-interpolation-filters="sRGB">
<feFlood flood-opacity="0" result="BackgroundImageFix"/>
<feColorMatrix in="SourceAlpha" type="matrix" values="0 0 0 0 0 0 0 0 0 0 0 0 0 0 0 0 0 0 127 0" result="hardAlpha"/>
<feOffset dy="5.78741"/>
<feGaussianBlur stdDeviation="7.44095"/>
<feComposite in2="hardAlpha" operator="out"/>
<feColorMatrix type="matrix" values="0 0 0 0 0 0 0 0 0 0 0 0 0 0 0 0 0 0 0.21 0"/>
<feBlend mode="normal" in2="BackgroundImageFix" result="effect1_dropShadow_110_26770"/>
<feBlend mode="normal" in="SourceGraphic" in2="effect1_dropShadow_110_26770" result="shape"/>
</filter>
<linearGradient id="paint0_linear_110_26770" x1="192.225" y1="64.9753" x2="192.225" y2="246.865" gradientUnits="userSpaceOnUse">
<stop stop-color="#D9B6FB"/>
<stop offset="1" stop-color="#D9B6FB" stop-opacity="0"/>
</linearGradient>
</defs>
</svg>
