<svg width="294" height="250" viewBox="0 0 294 250" fill="none" xmlns="http://www.w3.org/2000/svg">
<g filter="url(#filter0_d_110_26984)">
<path d="M4.40723 16.5279C4.40723 9.22547 10.327 3.30566 17.6294 3.30566H275.463C282.765 3.30566 288.685 9.22546 288.685 16.5279V230.528C288.685 237.83 282.765 243.75 275.463 243.75H17.6295C10.327 243.75 4.40723 237.83 4.40723 230.528V16.5279Z" fill="white" fill-opacity="0.06" shape-rendering="crispEdges"/>
<path d="M30.8516 56.1944C30.8516 41.5896 42.6911 29.75 57.296 29.75C71.9009 29.75 83.7404 41.5896 83.7404 56.1944C83.7404 70.7993 71.9009 82.6389 57.296 82.6389C42.6911 82.6389 30.8516 70.7993 30.8516 56.1944Z" fill="url(#paint0_linear_110_26984)"/>
<g clip-path="url(#clip0_110_26984)">
<path d="M70.7937 53.302C69.5894 53.0979 68.4784 52.5242 67.6146 51.6605C66.7509 50.7968 66.1772 49.6858 65.9731 48.4814M65.9731 63.9074C66.1772 62.703 66.7509 61.592 67.6146 60.7283C68.4784 59.8646 69.5894 59.2909 70.7937 59.0868M43.7983 59.0868C45.0027 59.2909 46.1137 59.8646 46.9774 60.7283C47.8411 61.592 48.4148 62.703 48.6189 63.9074M48.6189 48.4814C48.4148 49.6858 47.8411 50.7968 46.9774 51.6605C46.1137 52.5242 45.0027 53.0979 43.7983 53.302M61.1525 56.1944C61.1525 58.3243 59.4259 60.0509 57.296 60.0509C55.1661 60.0509 53.4395 58.3243 53.4395 56.1944C53.4395 54.0645 55.1661 52.3379 57.296 52.3379C59.4259 52.3379 61.1525 54.0645 61.1525 56.1944ZM43.7983 48.4814H70.7937V63.9074H43.7983V48.4814Z" stroke="white" stroke-width="1.98333" stroke-linecap="round" stroke-linejoin="round"/>
</g>
<path d="M34.4388 103.04V115.861H32.1162V103.04H34.4388ZM39.1201 110.227V115.861H36.8538V106.245H39.02V107.879H39.1327C39.3539 107.341 39.7065 106.913 40.1907 106.596C40.679 106.278 41.2821 106.12 42 106.12C42.6636 106.12 43.2417 106.262 43.7342 106.545C44.2308 106.829 44.6148 107.24 44.8861 107.779C45.1616 108.317 45.2972 108.97 45.293 109.738V115.861H43.0267V110.089C43.0267 109.446 42.8598 108.943 42.5259 108.58C42.1961 108.217 41.7391 108.035 41.1548 108.035C40.7583 108.035 40.4056 108.123 40.0968 108.298C39.7921 108.469 39.5521 108.718 39.3768 109.043C39.2057 109.369 39.1201 109.763 39.1201 110.227ZM51.7914 116.049C50.8315 116.049 50.0072 115.838 49.3185 115.417C48.6341 114.995 48.1061 114.413 47.7346 113.67C47.3673 112.923 47.1837 112.063 47.1837 111.091C47.1837 110.114 47.3715 109.252 47.7471 108.505C48.1228 107.754 48.6528 107.169 49.3373 106.752C50.026 106.33 50.8398 106.12 51.7789 106.12C52.5594 106.12 53.2501 106.264 53.8512 106.552C54.4563 106.835 54.9384 107.238 55.2973 107.76C55.6563 108.278 55.8608 108.883 55.9109 109.576H53.7447C53.6571 109.112 53.4484 108.726 53.1187 108.417C52.7931 108.104 52.357 107.948 51.8102 107.948C51.3469 107.948 50.94 108.073 50.5894 108.323C50.2388 108.57 49.9655 108.924 49.7693 109.388C49.5773 109.851 49.4813 110.406 49.4813 111.053C49.4813 111.708 49.5773 112.272 49.7693 112.743C49.9613 113.211 50.2305 113.572 50.5769 113.826C50.9275 114.077 51.3386 114.202 51.8102 114.202C52.1441 114.202 52.4425 114.139 52.7055 114.014C52.9726 113.885 53.1959 113.699 53.3754 113.457C53.5548 113.215 53.6779 112.921 53.7447 112.574H55.9109C55.8566 113.255 55.6563 113.858 55.3099 114.384C54.9634 114.905 54.4918 115.314 53.895 115.611C53.2981 115.903 52.597 116.049 51.7914 116.049ZM61.9664 116.049C61.0273 116.049 60.2134 115.842 59.5248 115.429C58.8361 115.016 58.3019 114.438 57.9221 113.695C57.5464 112.952 57.3586 112.084 57.3586 111.091C57.3586 110.097 57.5464 109.227 57.9221 108.48C58.3019 107.733 58.8361 107.153 59.5248 106.74C60.2134 106.326 61.0273 106.12 61.9664 106.12C62.9054 106.12 63.7193 106.326 64.408 106.74C65.0966 107.153 65.6288 107.733 66.0044 108.48C66.3842 109.227 66.5741 110.097 66.5741 111.091C66.5741 112.084 66.3842 112.952 66.0044 113.695C65.6288 114.438 65.0966 115.016 64.408 115.429C63.7193 115.842 62.9054 116.049 61.9664 116.049ZM61.9789 114.233C62.4881 114.233 62.9138 114.094 63.256 113.814C63.5983 113.53 63.8529 113.15 64.0198 112.674C64.1909 112.199 64.2765 111.669 64.2765 111.084C64.2765 110.496 64.1909 109.964 64.0198 109.488C63.8529 109.008 63.5983 108.626 63.256 108.342C62.9138 108.058 62.4881 107.916 61.9789 107.916C61.4572 107.916 61.0231 108.058 60.6767 108.342C60.3344 108.626 60.0778 109.008 59.9066 109.488C59.7397 109.964 59.6562 110.496 59.6562 111.084C59.6562 111.669 59.7397 112.199 59.9066 112.674C60.0778 113.15 60.3344 113.53 60.6767 113.814C61.0231 114.094 61.4572 114.233 61.9789 114.233ZM68.4976 115.861V106.245H70.6638V107.879H70.7765C70.9768 107.328 71.3086 106.898 71.7719 106.589C72.2352 106.276 72.7882 106.12 73.4309 106.12C74.082 106.12 74.6309 106.278 75.0775 106.596C75.5282 106.909 75.8454 107.336 76.0291 107.879H76.1292C76.3421 107.345 76.701 106.919 77.206 106.602C77.7152 106.28 78.3183 106.12 79.0153 106.12C79.9001 106.12 80.6222 106.399 81.1815 106.959C81.7407 107.518 82.0204 108.334 82.0204 109.406V115.861H79.7478V109.757C79.7478 109.16 79.5892 108.724 79.272 108.449C78.9548 108.169 78.5666 108.029 78.1075 108.029C77.5608 108.029 77.133 108.2 76.8241 108.543C76.5195 108.881 76.3671 109.321 76.3671 109.864V115.861H74.1446V109.663C74.1446 109.166 73.9944 108.77 73.6939 108.474C73.3975 108.177 73.0094 108.029 72.5294 108.029C72.2039 108.029 71.9075 108.113 71.6404 108.28C71.3733 108.442 71.1605 108.674 71.0019 108.975C70.8433 109.271 70.764 109.617 70.764 110.014V115.861H68.4976ZM88.5767 116.049C87.6126 116.049 86.7799 115.849 86.0788 115.448C85.3817 115.043 84.8454 114.471 84.4698 113.733C84.0942 112.99 83.9064 112.115 83.9064 111.109C83.9064 110.12 84.0942 109.252 84.4698 108.505C84.8496 107.754 85.3797 107.169 86.06 106.752C86.7403 106.33 87.5395 106.12 88.4578 106.12C89.0504 106.12 89.6097 106.216 90.1356 106.408C90.6656 106.596 91.1331 106.888 91.5379 107.284C91.947 107.681 92.2683 108.186 92.502 108.799C92.7358 109.409 92.8526 110.135 92.8526 110.978V111.673H84.9706V110.145H90.6802C90.6761 109.711 90.5822 109.325 90.3985 108.987C90.2149 108.645 89.9582 108.376 89.6285 108.179C89.3029 107.983 88.9231 107.885 88.4891 107.885C88.0258 107.885 87.6188 107.998 87.2683 108.223C86.9177 108.444 86.6443 108.737 86.4481 109.1C86.2561 109.459 86.1581 109.853 86.1539 110.283V111.616C86.1539 112.176 86.2561 112.656 86.4606 113.056C86.6652 113.453 86.9511 113.758 87.3183 113.97C87.6856 114.179 88.1155 114.283 88.608 114.283C88.9377 114.283 89.2361 114.238 89.5033 114.146C89.7704 114.05 90.002 113.91 90.1982 113.726C90.3943 113.543 90.5425 113.315 90.6427 113.044L92.7587 113.282C92.6252 113.841 92.3706 114.329 91.9949 114.747C91.6235 115.16 91.1477 115.481 90.5675 115.711C89.9874 115.936 89.3238 116.049 88.5767 116.049Z" fill="#A6A1A9"/>
<path d="M41.3943 178.696V146.642H43.4477V178.696H41.3943ZM47.3167 156.897C47.1999 155.803 46.7074 154.952 45.8393 154.343C44.9795 153.733 43.8609 153.429 42.4836 153.429C41.5153 153.429 40.6848 153.575 39.9919 153.867C39.2991 154.159 38.769 154.556 38.4018 155.056C38.0345 155.557 37.8467 156.129 37.8383 156.772C37.8383 157.306 37.9593 157.769 38.2014 158.162C38.4518 158.554 38.7899 158.888 39.2156 159.163C39.6413 159.43 40.113 159.656 40.6305 159.839C41.148 160.023 41.6697 160.177 42.1956 160.303L44.5997 160.904C45.568 161.129 46.4987 161.434 47.3919 161.818C48.2934 162.202 49.0989 162.686 49.8084 163.27C50.5263 163.854 51.0939 164.56 51.5113 165.386C51.9287 166.213 52.1373 167.181 52.1373 168.291C52.1373 169.794 51.7534 171.117 50.9854 172.26C50.2174 173.396 49.1072 174.285 47.6548 174.927C46.2107 175.562 44.4619 175.879 42.4085 175.879C40.4135 175.879 38.6814 175.57 37.2123 174.952C35.7515 174.335 34.6079 173.433 33.7815 172.248C32.9634 171.062 32.521 169.618 32.4543 167.915H37.0244C37.0912 168.809 37.3667 169.552 37.8508 170.144C38.335 170.737 38.9652 171.179 39.7415 171.471C40.5262 171.764 41.4026 171.91 42.3709 171.91C43.381 171.91 44.2658 171.759 45.0254 171.459C45.7933 171.15 46.3944 170.724 46.8284 170.182C47.2625 169.631 47.4837 168.988 47.492 168.254C47.4837 167.586 47.2875 167.035 46.9035 166.601C46.5196 166.158 45.9812 165.791 45.2883 165.499C44.6038 165.198 43.8025 164.931 42.8843 164.698L39.9669 163.946C37.855 163.404 36.1855 162.582 34.9585 161.48C33.7397 160.369 33.1304 158.896 33.1304 157.06C33.1304 155.549 33.5394 154.226 34.3575 153.091C35.1838 151.955 36.3066 151.075 37.7256 150.449C39.1447 149.814 40.7515 149.497 42.5462 149.497C44.3659 149.497 45.9603 149.814 47.3293 150.449C48.7066 151.075 49.7876 151.947 50.5722 153.066C51.3569 154.176 51.7617 155.453 51.7867 156.897H47.3167ZM66.4583 149.848V175.491H61.813V154.368H61.6627L55.6651 158.199V153.942L62.0384 149.848H66.4583ZM82.4477 175.979C80.3859 175.979 78.6162 175.457 77.1387 174.414C75.6696 173.362 74.5385 171.847 73.7455 169.869C72.9609 167.882 72.5685 165.491 72.5685 162.694C72.5769 159.898 72.9734 157.519 73.758 155.557C74.551 153.587 75.6821 152.085 77.1513 151.05C78.6287 150.015 80.3942 149.497 82.4477 149.497C84.5011 149.497 86.2666 150.015 87.7441 151.05C89.2215 152.085 90.3526 153.587 91.1373 155.557C91.9303 157.527 92.3268 159.906 92.3268 162.694C92.3268 165.499 91.9303 167.895 91.1373 169.881C90.3526 171.86 89.2215 173.37 87.7441 174.414C86.2749 175.457 84.5095 175.979 82.4477 175.979ZM82.4477 172.06C84.0503 172.06 85.315 171.271 86.2415 169.693C87.1764 168.107 87.6439 165.774 87.6439 162.694C87.6439 160.657 87.431 158.946 87.0053 157.561C86.5796 156.175 85.9786 155.132 85.2023 154.43C84.426 153.721 83.5078 153.366 82.4477 153.366C80.8533 153.366 79.5929 154.159 78.6663 155.745C77.7397 157.323 77.2723 159.639 77.2639 162.694C77.2556 164.739 77.4601 166.459 77.8775 167.853C78.3032 169.247 78.9042 170.299 79.6805 171.008C80.4568 171.709 81.3792 172.06 82.4477 172.06ZM100.86 171.985L100.697 173.362C100.58 174.414 100.372 175.482 100.071 176.568C99.7789 177.661 99.47 178.667 99.1445 179.585C98.8189 180.503 98.556 181.225 98.3556 181.751H95.3005C95.4174 181.242 95.576 180.549 95.7763 179.673C95.985 178.796 96.1853 177.811 96.3773 176.718C96.5693 175.624 96.6987 174.514 96.7655 173.387L96.8531 171.985H100.86ZM114.367 175.979C112.305 175.979 110.535 175.457 109.058 174.414C107.589 173.362 106.458 171.847 105.665 169.869C104.88 167.882 104.488 165.491 104.488 162.694C104.496 159.898 104.893 157.519 105.677 155.557C106.47 153.587 107.601 152.085 109.071 151.05C110.548 150.015 112.313 149.497 114.367 149.497C116.42 149.497 118.186 150.015 119.663 151.05C121.141 152.085 122.272 153.587 123.057 155.557C123.85 157.527 124.246 159.906 124.246 162.694C124.246 165.499 123.85 167.895 123.057 169.881C122.272 171.86 121.141 173.37 119.663 174.414C118.194 175.457 116.429 175.979 114.367 175.979ZM114.367 172.06C115.97 172.06 117.234 171.271 118.161 169.693C119.096 168.107 119.563 165.774 119.563 162.694C119.563 160.657 119.35 158.946 118.925 157.561C118.499 156.175 117.898 155.132 117.122 154.43C116.345 153.721 115.427 153.366 114.367 153.366C112.773 153.366 111.512 154.159 110.586 155.745C109.659 157.323 109.192 159.639 109.183 162.694C109.175 164.739 109.379 166.459 109.797 167.853C110.222 169.247 110.823 170.299 111.6 171.008C112.376 171.709 113.298 172.06 114.367 172.06ZM137.885 175.979C135.823 175.979 134.053 175.457 132.576 174.414C131.107 173.362 129.975 171.847 129.182 169.869C128.398 167.882 128.005 165.491 128.005 162.694C128.014 159.898 128.41 157.519 129.195 155.557C129.988 153.587 131.119 152.085 132.588 151.05C134.066 150.015 135.831 149.497 137.885 149.497C139.938 149.497 141.703 150.015 143.181 151.05C144.658 152.085 145.79 153.587 146.574 155.557C147.367 157.527 147.764 159.906 147.764 162.694C147.764 165.499 147.367 167.895 146.574 169.881C145.79 171.86 144.658 173.37 143.181 174.414C141.712 175.457 139.946 175.979 137.885 175.979ZM137.885 172.06C139.487 172.06 140.752 171.271 141.678 169.693C142.613 168.107 143.081 165.774 143.081 162.694C143.081 160.657 142.868 158.946 142.442 157.561C142.017 156.175 141.416 155.132 140.639 154.43C139.863 153.721 138.945 153.366 137.885 153.366C136.29 153.366 135.03 154.159 134.103 155.745C133.177 157.323 132.709 159.639 132.701 162.694C132.693 164.739 132.897 166.459 133.314 167.853C133.74 169.247 134.341 170.299 135.117 171.008C135.894 171.709 136.816 172.06 137.885 172.06ZM161.402 175.979C159.34 175.979 157.571 175.457 156.093 174.414C154.624 173.362 153.493 171.847 152.7 169.869C151.915 167.882 151.523 165.491 151.523 162.694C151.531 159.898 151.928 157.519 152.713 155.557C153.506 153.587 154.637 152.085 156.106 151.05C157.583 150.015 159.349 149.497 161.402 149.497C163.456 149.497 165.221 150.015 166.699 151.05C168.176 152.085 169.307 153.587 170.092 155.557C170.885 157.527 171.281 159.906 171.281 162.694C171.281 165.499 170.885 167.895 170.092 169.881C169.307 171.86 168.176 173.37 166.699 174.414C165.229 175.457 163.464 175.979 161.402 175.979ZM161.402 172.06C163.005 172.06 164.27 171.271 165.196 169.693C166.131 168.107 166.598 165.774 166.598 162.694C166.598 160.657 166.386 158.946 165.96 157.561C165.534 156.175 164.933 155.132 164.157 154.43C163.381 153.721 162.462 153.366 161.402 153.366C159.808 153.366 158.547 154.159 157.621 155.745C156.694 157.323 156.227 159.639 156.219 162.694C156.21 164.739 156.415 166.459 156.832 167.853C157.258 169.247 157.859 170.299 158.635 171.008C159.411 171.709 160.334 172.06 161.402 172.06Z" fill="white"/>
<path d="M187.074 155.195C187.074 152.76 189.047 150.787 191.481 150.787H244.722C247.156 150.787 249.129 152.76 249.129 155.195V170.787C249.129 173.221 247.156 175.195 244.722 175.195H191.481C189.047 175.195 187.074 173.221 187.074 170.787V155.195Z" fill="#EFF6FF"/>
<path d="M197.194 167.991V166.939L200.448 163.568C200.795 163.201 201.082 162.881 201.307 162.605C201.536 162.327 201.706 162.062 201.819 161.812C201.932 161.561 201.988 161.295 201.988 161.013C201.988 160.694 201.913 160.419 201.763 160.187C201.612 159.952 201.407 159.772 201.148 159.647C200.888 159.519 200.595 159.455 200.27 159.455C199.925 159.455 199.625 159.525 199.368 159.666C199.111 159.807 198.914 160.005 198.776 160.262C198.639 160.519 198.57 160.819 198.57 161.164H197.185C197.185 160.578 197.319 160.066 197.588 159.628C197.858 159.19 198.227 158.85 198.697 158.609C199.166 158.365 199.7 158.243 200.298 158.243C200.902 158.243 201.434 158.364 201.894 158.605C202.357 158.843 202.719 159.168 202.979 159.581C203.239 159.991 203.368 160.455 203.368 160.971C203.368 161.328 203.301 161.677 203.167 162.018C203.035 162.359 202.805 162.74 202.476 163.159C202.148 163.575 201.691 164.081 201.105 164.676L199.194 166.676V166.746H203.523V167.991H197.194ZM206.247 168.08C205.99 168.08 205.769 167.989 205.585 167.808C205.4 167.623 205.308 167.401 205.308 167.141C205.308 166.884 205.4 166.665 205.585 166.484C205.769 166.299 205.99 166.206 206.247 166.206C206.503 166.206 206.724 166.299 206.909 166.484C207.093 166.665 207.186 166.884 207.186 167.141C207.186 167.313 207.142 167.471 207.054 167.615C206.97 167.756 206.857 167.869 206.716 167.953C206.575 168.038 206.419 168.08 206.247 168.08ZM212.047 168.15C211.305 168.147 210.671 167.952 210.145 167.563C209.619 167.175 209.217 166.61 208.938 165.868C208.66 165.127 208.52 164.233 208.52 163.187C208.52 162.145 208.66 161.254 208.938 160.516C209.22 159.777 209.624 159.213 210.15 158.825C210.679 158.437 211.311 158.243 212.047 158.243C212.782 158.243 213.413 158.439 213.939 158.83C214.465 159.218 214.867 159.782 215.146 160.52C215.427 161.256 215.568 162.145 215.568 163.187C215.568 164.236 215.429 165.131 215.15 165.873C214.872 166.612 214.47 167.177 213.944 167.568C213.418 167.956 212.785 168.15 212.047 168.15ZM212.047 166.897C212.698 166.897 213.206 166.579 213.573 165.944C213.942 165.308 214.127 164.389 214.127 163.187C214.127 162.389 214.042 161.715 213.873 161.164C213.707 160.61 213.468 160.19 213.155 159.905C212.845 159.617 212.476 159.473 212.047 159.473C211.399 159.473 210.89 159.793 210.521 160.431C210.151 161.07 209.965 161.988 209.962 163.187C209.962 163.989 210.045 164.666 210.211 165.22C210.38 165.771 210.619 166.189 210.929 166.474C211.239 166.756 211.612 166.897 212.047 166.897ZM220.408 168.122C219.82 168.122 219.291 168.01 218.821 167.784C218.355 167.556 217.982 167.243 217.704 166.845C217.425 166.448 217.276 165.994 217.257 165.483H218.666C218.7 165.897 218.884 166.236 219.215 166.502C219.547 166.768 219.945 166.901 220.408 166.901C220.777 166.901 221.105 166.817 221.389 166.648C221.677 166.476 221.903 166.239 222.066 165.939C222.231 165.638 222.314 165.296 222.314 164.911C222.314 164.519 222.23 164.17 222.061 163.863C221.892 163.557 221.659 163.316 221.361 163.14C221.067 162.965 220.729 162.876 220.347 162.873C220.056 162.873 219.763 162.923 219.469 163.023C219.175 163.123 218.937 163.255 218.755 163.417L217.426 163.22L217.966 158.375H223.253V159.619H219.173L218.868 162.309H218.924C219.112 162.128 219.361 161.976 219.671 161.854C219.984 161.732 220.319 161.671 220.676 161.671C221.261 161.671 221.782 161.81 222.239 162.089C222.699 162.367 223.061 162.748 223.324 163.23C223.59 163.709 223.721 164.259 223.718 164.882C223.721 165.505 223.581 166.061 223.296 166.549C223.014 167.038 222.623 167.423 222.122 167.704C221.624 167.983 221.053 168.122 220.408 168.122Z" fill="#937AFF"/>
<g clip-path="url(#clip1_110_26984)">
<path d="M235.907 167.536V158.446M235.907 158.446L232.188 162.164M235.907 158.446L239.626 162.164" stroke="#937AFF" stroke-width="1.65278" stroke-linecap="round" stroke-linejoin="round"/>
</g>
<path d="M35.1791 209.509V201.927H36.8992V209.509H35.1791ZM32.2484 206.578V204.858H39.8299V206.578H32.2484ZM45.8434 212.708V198.684H46.7417V212.708H45.8434ZM48.4344 203.171C48.3833 202.692 48.1678 202.32 47.788 202.053C47.4119 201.787 46.9225 201.653 46.3199 201.653C45.8963 201.653 45.5329 201.717 45.2298 201.845C44.9267 201.973 44.6948 202.146 44.5341 202.365C44.3734 202.585 44.2913 202.835 44.2876 203.116C44.2876 203.35 44.3406 203.552 44.4465 203.724C44.556 203.896 44.7039 204.042 44.8902 204.162C45.0764 204.279 45.2828 204.378 45.5092 204.458C45.7356 204.538 45.9639 204.606 46.1939 204.661L47.2457 204.924C47.6693 205.022 48.0765 205.156 48.4673 205.323C48.8617 205.491 49.2141 205.703 49.5245 205.959C49.8386 206.215 50.087 206.523 50.2695 206.885C50.4521 207.246 50.5434 207.67 50.5434 208.156C50.5434 208.813 50.3755 209.392 50.0395 209.892C49.7035 210.389 49.2178 210.778 48.5823 211.059C47.9505 211.336 47.1855 211.475 46.2871 211.475C45.4143 211.475 44.6565 211.34 44.0137 211.07C43.3746 210.8 42.8743 210.405 42.5128 209.887C42.1549 209.368 41.9613 208.736 41.9321 207.991H43.9316C43.9608 208.382 44.0813 208.707 44.2931 208.966C44.5049 209.226 44.7806 209.419 45.1203 209.547C45.4636 209.675 45.847 209.739 46.2706 209.739C46.7125 209.739 47.0996 209.673 47.432 209.542C47.7679 209.406 48.0309 209.22 48.2208 208.983C48.4107 208.742 48.5075 208.461 48.5111 208.139C48.5075 207.847 48.4217 207.606 48.2537 207.416C48.0857 207.223 47.8501 207.062 47.547 206.934C47.2475 206.803 46.897 206.686 46.4952 206.583L45.2189 206.255C44.2949 206.017 43.5645 205.658 43.0277 205.176C42.4945 204.69 42.2279 204.045 42.2279 203.242C42.2279 202.581 42.4069 202.002 42.7647 201.505C43.1263 201.009 43.6175 200.623 44.2383 200.35C44.8592 200.072 45.5622 199.933 46.3473 199.933C47.1435 199.933 47.841 200.072 48.4399 200.35C49.0425 200.623 49.5154 201.005 49.8587 201.494C50.202 201.98 50.3791 202.539 50.3901 203.171H48.4344ZM56.146 211.459C55.4156 211.459 54.7619 211.322 54.1849 211.048C53.6079 210.77 53.1496 210.391 52.81 209.909C52.474 209.426 52.295 208.875 52.2731 208.254H54.2452C54.2817 208.714 54.4807 209.09 54.8423 209.383C55.2038 209.671 55.6384 209.815 56.146 209.815C56.5441 209.815 56.8983 209.724 57.2088 209.542C57.5192 209.359 57.7638 209.105 57.9428 208.78C58.1217 208.455 58.2094 208.084 58.2057 207.668C58.2094 207.244 58.1199 206.868 57.9373 206.54C57.7547 206.211 57.5046 205.953 57.1868 205.767C56.8691 205.577 56.5039 205.482 56.0912 205.482C55.7553 205.479 55.4248 205.541 55.0997 205.669C54.7747 205.796 54.5172 205.964 54.3273 206.173L52.4922 205.871L53.0784 200.087H59.5862V201.785H54.7601L54.4369 204.759H54.5026C54.7108 204.515 55.0048 204.312 55.3846 204.151C55.7644 203.987 56.1807 203.905 56.6336 203.905C57.3128 203.905 57.9191 204.065 58.4522 204.387C58.9854 204.704 59.4054 205.143 59.7122 205.701C60.0189 206.26 60.1723 206.899 60.1723 207.619C60.1723 208.36 60.0007 209.021 59.6574 209.602C59.3178 210.179 58.8448 210.633 58.2386 210.966C57.636 211.294 56.9385 211.459 56.146 211.459ZM66.1543 211.519C65.2522 211.519 64.478 211.291 63.8316 210.834C63.1889 210.374 62.694 209.711 62.3471 208.846C62.0038 207.977 61.8321 206.93 61.8321 205.707C61.8358 204.484 62.0093 203.443 62.3526 202.585C62.6995 201.723 63.1943 201.065 63.8371 200.612C64.4835 200.16 65.2559 199.933 66.1543 199.933C67.0526 199.933 67.825 200.16 68.4714 200.612C69.1178 201.065 69.6127 201.723 69.956 202.585C70.3029 203.446 70.4764 204.487 70.4764 205.707C70.4764 206.934 70.3029 207.982 69.956 208.851C69.6127 209.717 69.1178 210.378 68.4714 210.834C67.8287 211.291 67.0563 211.519 66.1543 211.519ZM66.1543 209.804C66.8554 209.804 67.4087 209.459 67.8141 208.769C68.2231 208.075 68.4276 207.055 68.4276 205.707C68.4276 204.816 68.3345 204.067 68.1482 203.461C67.962 202.855 67.699 202.398 67.3594 202.091C67.0198 201.781 66.6181 201.626 66.1543 201.626C65.4567 201.626 64.9053 201.973 64.4999 202.667C64.0945 203.357 63.89 204.37 63.8864 205.707C63.8827 206.602 63.9722 207.354 64.1548 207.964C64.341 208.574 64.604 209.034 64.9436 209.344C65.2833 209.651 65.6868 209.804 66.1543 209.804ZM76.4432 211.519C75.5412 211.519 74.767 211.291 74.1206 210.834C73.4778 210.374 72.983 209.711 72.636 208.846C72.2928 207.977 72.1211 206.93 72.1211 205.707C72.1248 204.484 72.2982 203.443 72.6415 202.585C72.9885 201.723 73.4833 201.065 74.126 200.612C74.7724 200.16 75.5448 199.933 76.4432 199.933C77.3416 199.933 78.114 200.16 78.7604 200.612C79.4068 201.065 79.9016 201.723 80.2449 202.585C80.5919 203.446 80.7653 204.487 80.7653 205.707C80.7653 206.934 80.5919 207.982 80.2449 208.851C79.9016 209.717 79.4068 210.378 78.7604 210.834C78.1177 211.291 77.3453 211.519 76.4432 211.519ZM76.4432 209.804C77.1444 209.804 77.6977 209.459 78.103 208.769C78.5121 208.075 78.7166 207.055 78.7166 205.707C78.7166 204.816 78.6235 204.067 78.4372 203.461C78.251 202.855 77.988 202.398 77.6484 202.091C77.3087 201.781 76.907 201.626 76.4432 201.626C75.7457 201.626 75.1943 201.973 74.7889 202.667C74.3835 203.357 74.179 204.37 74.1754 205.707C74.1717 206.602 74.2612 207.354 74.4438 207.964C74.63 208.574 74.893 209.034 75.2326 209.344C75.5722 209.651 75.9758 209.804 76.4432 209.804ZM86.7322 211.519C85.8302 211.519 85.0559 211.291 84.4095 210.834C83.7668 210.374 83.272 209.711 82.925 208.846C82.5817 207.977 82.4101 206.93 82.4101 205.707C82.4137 204.484 82.5872 203.443 82.9305 202.585C83.2774 201.723 83.7723 201.065 84.415 200.612C85.0614 200.16 85.8338 199.933 86.7322 199.933C87.6306 199.933 88.403 200.16 89.0494 200.612C89.6958 201.065 90.1906 201.723 90.5339 202.585C90.8808 203.446 91.0543 204.487 91.0543 205.707C91.0543 206.934 90.8808 207.982 90.5339 208.851C90.1906 209.717 89.6958 210.378 89.0494 210.834C88.4066 211.291 87.6342 211.519 86.7322 211.519ZM86.7322 209.804C87.4334 209.804 87.9866 209.459 88.392 208.769C88.801 208.075 89.0055 207.055 89.0055 205.707C89.0055 204.816 88.9124 204.067 88.7262 203.461C88.5399 202.855 88.277 202.398 87.9373 202.091C87.5977 201.781 87.196 201.626 86.7322 201.626C86.0347 201.626 85.4832 201.973 85.0779 202.667C84.6725 203.357 84.468 204.37 84.4643 205.707C84.4607 206.602 84.5501 207.354 84.7327 207.964C84.919 208.574 85.1819 209.034 85.5216 209.344C85.8612 209.651 86.2647 209.804 86.7322 209.804Z" fill="#937AFF"/>
<path d="M104.279 202.891L101.168 211.305H99.8533L96.7418 202.891H98.1442L100.467 209.596H100.554L102.877 202.891H104.279ZM111.946 204.776L110.785 205.104C110.711 204.911 110.604 204.723 110.461 204.54C110.323 204.354 110.133 204.201 109.892 204.08C109.651 203.959 109.342 203.899 108.966 203.899C108.451 203.899 108.022 204.018 107.679 204.255C107.339 204.489 107.169 204.787 107.169 205.148C107.169 205.47 107.286 205.723 107.52 205.91C107.753 206.096 108.119 206.251 108.615 206.375L109.864 206.682C110.617 206.865 111.177 207.144 111.546 207.52C111.915 207.893 112.099 208.373 112.099 208.961C112.099 209.443 111.96 209.874 111.683 210.254C111.409 210.633 111.026 210.933 110.533 211.152C110.04 211.371 109.466 211.481 108.812 211.481C107.954 211.481 107.244 211.294 106.682 210.922C106.119 210.549 105.763 210.005 105.613 209.29L106.84 208.983C106.957 209.436 107.178 209.775 107.503 210.002C107.832 210.228 108.261 210.341 108.791 210.341C109.393 210.341 109.872 210.213 110.226 209.958C110.584 209.699 110.763 209.388 110.763 209.027C110.763 208.734 110.66 208.49 110.456 208.293C110.251 208.092 109.937 207.942 109.514 207.843L108.111 207.515C107.341 207.332 106.775 207.049 106.413 206.666C106.055 206.278 105.876 205.795 105.876 205.214C105.876 204.739 106.01 204.319 106.276 203.954C106.546 203.589 106.913 203.302 107.377 203.094C107.845 202.886 108.374 202.782 108.966 202.782C109.799 202.782 110.452 202.964 110.927 203.33C111.405 203.695 111.745 204.177 111.946 204.776ZM118.384 214.461V202.891H119.633V204.228H119.786C119.881 204.082 120.013 203.896 120.181 203.669C120.352 203.439 120.597 203.235 120.915 203.056C121.236 202.873 121.671 202.782 122.218 202.782C122.927 202.782 123.551 202.959 124.092 203.313C124.632 203.667 125.054 204.169 125.357 204.82C125.66 205.47 125.812 206.236 125.812 207.12C125.812 208.011 125.66 208.784 125.357 209.437C125.054 210.087 124.634 210.591 124.097 210.949C123.56 211.304 122.941 211.481 122.24 211.481C121.7 211.481 121.267 211.391 120.942 211.212C120.617 211.03 120.367 210.823 120.192 210.593C120.016 210.36 119.881 210.166 119.786 210.013H119.677V214.461H118.384ZM119.655 207.098C119.655 207.734 119.748 208.294 119.934 208.78C120.12 209.262 120.392 209.64 120.75 209.914C121.108 210.184 121.546 210.319 122.065 210.319C122.606 210.319 123.057 210.177 123.418 209.892C123.783 209.604 124.057 209.216 124.24 208.731C124.426 208.241 124.519 207.697 124.519 207.098C124.519 206.507 124.428 205.974 124.245 205.499C124.066 205.02 123.794 204.642 123.429 204.365C123.067 204.084 122.613 203.943 122.065 203.943C121.539 203.943 121.097 204.076 120.739 204.343C120.381 204.606 120.111 204.975 119.929 205.449C119.746 205.921 119.655 206.47 119.655 207.098ZM127.784 211.305V202.891H129.033V204.162H129.121C129.274 203.746 129.552 203.408 129.953 203.149C130.355 202.889 130.808 202.76 131.312 202.76C131.407 202.76 131.525 202.762 131.668 202.765C131.81 202.769 131.918 202.774 131.991 202.782V204.096C131.947 204.085 131.847 204.069 131.69 204.047C131.536 204.022 131.374 204.009 131.202 204.009C130.793 204.009 130.428 204.095 130.107 204.266C129.789 204.434 129.537 204.668 129.351 204.967C129.168 205.263 129.077 205.601 129.077 205.981V211.305H127.784ZM136.795 211.481C135.985 211.481 135.285 211.302 134.697 210.944C134.113 210.582 133.662 210.078 133.344 209.432C133.03 208.782 132.873 208.026 132.873 207.164C132.873 206.302 133.03 205.543 133.344 204.885C133.662 204.224 134.104 203.709 134.67 203.34C135.24 202.968 135.904 202.782 136.664 202.782C137.102 202.782 137.535 202.855 137.962 203.001C138.389 203.147 138.778 203.384 139.129 203.713C139.479 204.038 139.759 204.469 139.967 205.006C140.175 205.543 140.279 206.204 140.279 206.989V207.537H133.793V206.419H138.965C138.965 205.944 138.87 205.521 138.68 205.148C138.493 204.776 138.227 204.482 137.88 204.266C137.537 204.051 137.131 203.943 136.664 203.943C136.149 203.943 135.703 204.071 135.327 204.327C134.955 204.578 134.668 204.907 134.467 205.313C134.266 205.718 134.166 206.152 134.166 206.616V207.361C134.166 207.997 134.275 208.535 134.494 208.977C134.717 209.416 135.026 209.75 135.42 209.98C135.815 210.206 136.273 210.319 136.795 210.319C137.135 210.319 137.442 210.272 137.716 210.177C137.993 210.078 138.232 209.932 138.433 209.739C138.634 209.542 138.789 209.297 138.899 209.005L140.148 209.355C140.016 209.779 139.795 210.151 139.485 210.473C139.174 210.79 138.791 211.039 138.335 211.218C137.878 211.393 137.365 211.481 136.795 211.481ZM148.87 202.891L145.759 211.305H144.444L141.332 202.891H142.735L145.057 209.596H145.145L147.468 202.891H148.87ZM158.728 211.459C158.227 211.451 157.734 211.36 157.249 211.185C156.767 211.01 156.328 210.717 155.934 210.308C155.539 209.899 155.224 209.35 154.986 208.66C154.752 207.969 154.636 207.107 154.636 206.074C154.636 205.095 154.732 204.226 154.926 203.466C155.123 202.707 155.406 202.066 155.775 201.544C156.144 201.018 156.589 200.618 157.112 200.344C157.634 200.07 158.22 199.933 158.87 199.933C159.538 199.933 160.132 200.065 160.65 200.328C161.169 200.591 161.589 200.954 161.91 201.418C162.235 201.882 162.442 202.409 162.529 203.001H160.859C160.745 202.533 160.521 202.152 160.185 201.856C159.849 201.56 159.411 201.412 158.87 201.412C158.048 201.412 157.407 201.77 156.947 202.486C156.491 203.202 156.261 204.197 156.257 205.471H156.339C156.533 205.154 156.77 204.883 157.051 204.661C157.336 204.434 157.654 204.261 158.005 204.14C158.359 204.016 158.731 203.954 159.122 203.954C159.772 203.954 160.36 204.113 160.886 204.431C161.415 204.745 161.837 205.179 162.151 205.734C162.465 206.289 162.622 206.925 162.622 207.641C162.622 208.356 162.46 209.005 162.135 209.585C161.814 210.166 161.361 210.626 160.776 210.966C160.192 211.302 159.509 211.466 158.728 211.459ZM158.722 210.035C159.153 210.035 159.538 209.929 159.878 209.717C160.218 209.505 160.486 209.22 160.683 208.862C160.88 208.504 160.979 208.104 160.979 207.663C160.979 207.232 160.882 206.839 160.689 206.485C160.499 206.131 160.236 205.849 159.9 205.641C159.568 205.433 159.188 205.329 158.76 205.329C158.435 205.329 158.134 205.391 157.857 205.515C157.583 205.639 157.342 205.811 157.134 206.03C156.925 206.249 156.761 206.501 156.641 206.786C156.524 207.067 156.465 207.365 156.465 207.679C156.465 208.099 156.562 208.488 156.756 208.846C156.953 209.204 157.221 209.492 157.561 209.711C157.904 209.927 158.291 210.035 158.722 210.035ZM168.524 211.492C167.658 211.488 166.919 211.26 166.305 210.807C165.691 210.354 165.222 209.695 164.897 208.829C164.572 207.964 164.41 206.921 164.41 205.701C164.41 204.485 164.572 203.446 164.897 202.585C165.226 201.723 165.697 201.065 166.31 200.612C166.928 200.16 167.665 199.933 168.524 199.933C169.382 199.933 170.118 200.161 170.731 200.618C171.345 201.071 171.814 201.728 172.139 202.59C172.468 203.448 172.632 204.485 172.632 205.701C172.632 206.925 172.47 207.969 172.144 208.835C171.819 209.697 171.35 210.356 170.737 210.812C170.123 211.265 169.385 211.492 168.524 211.492ZM168.524 210.029C169.283 210.029 169.877 209.658 170.304 208.917C170.735 208.176 170.95 207.104 170.95 205.701C170.95 204.77 170.852 203.983 170.654 203.34C170.461 202.694 170.182 202.205 169.816 201.872C169.455 201.536 169.024 201.368 168.524 201.368C167.768 201.368 167.174 201.741 166.743 202.486C166.312 203.231 166.095 204.303 166.091 205.701C166.091 206.636 166.188 207.427 166.382 208.073C166.579 208.716 166.858 209.204 167.22 209.536C167.581 209.865 168.016 210.029 168.524 210.029ZM182.195 211.481C181.494 211.481 180.875 211.304 180.338 210.949C179.801 210.591 179.381 210.087 179.078 209.437C178.775 208.784 178.624 208.011 178.624 207.12C178.624 206.236 178.775 205.47 179.078 204.82C179.381 204.169 179.803 203.667 180.344 203.313C180.884 202.959 181.509 202.782 182.217 202.782C182.765 202.782 183.198 202.873 183.515 203.056C183.837 203.235 184.081 203.439 184.249 203.669C184.421 203.896 184.554 204.082 184.649 204.228H184.759V200.087H186.052V211.305H184.803V210.013H184.649C184.554 210.166 184.419 210.36 184.244 210.593C184.069 210.823 183.818 211.03 183.493 211.212C183.168 211.391 182.736 211.481 182.195 211.481ZM182.37 210.319C182.889 210.319 183.327 210.184 183.685 209.914C184.043 209.64 184.315 209.262 184.501 208.78C184.688 208.294 184.781 207.734 184.781 207.098C184.781 206.47 184.689 205.921 184.507 205.449C184.324 204.975 184.054 204.606 183.696 204.343C183.338 204.076 182.896 203.943 182.37 203.943C181.823 203.943 181.366 204.084 181.001 204.365C180.639 204.642 180.367 205.02 180.185 205.499C180.006 205.974 179.916 206.507 179.916 207.098C179.916 207.697 180.008 208.241 180.19 208.731C180.376 209.216 180.65 209.604 181.012 209.892C181.377 210.177 181.83 210.319 182.37 210.319ZM191.075 211.503C190.542 211.503 190.058 211.402 189.623 211.201C189.189 210.997 188.844 210.703 188.588 210.319C188.332 209.932 188.204 209.465 188.204 208.917C188.204 208.435 188.299 208.044 188.489 207.745C188.679 207.442 188.933 207.204 189.251 207.033C189.569 206.861 189.919 206.733 190.303 206.649C190.69 206.562 191.079 206.492 191.469 206.441C191.981 206.375 192.395 206.326 192.713 206.293C193.034 206.257 193.268 206.196 193.414 206.112C193.564 206.028 193.639 205.882 193.639 205.674V205.63C193.639 205.09 193.491 204.67 193.195 204.37C192.903 204.071 192.459 203.921 191.864 203.921C191.247 203.921 190.763 204.056 190.412 204.327C190.062 204.597 189.815 204.885 189.673 205.192L188.446 204.754C188.665 204.243 188.957 203.844 189.322 203.56C189.691 203.271 190.093 203.07 190.527 202.957C190.965 202.84 191.396 202.782 191.82 202.782C192.09 202.782 192.401 202.815 192.751 202.88C193.105 202.942 193.447 203.072 193.776 203.269C194.108 203.466 194.384 203.764 194.603 204.162C194.822 204.56 194.931 205.093 194.931 205.762V211.305H193.639V210.166H193.573C193.485 210.349 193.339 210.544 193.135 210.752C192.93 210.96 192.658 211.137 192.318 211.284C191.979 211.43 191.564 211.503 191.075 211.503ZM191.272 210.341C191.783 210.341 192.214 210.241 192.565 210.04C192.919 209.839 193.186 209.58 193.365 209.262C193.547 208.944 193.639 208.61 193.639 208.26V207.076C193.584 207.142 193.463 207.202 193.277 207.257C193.094 207.308 192.883 207.354 192.642 207.394C192.404 207.431 192.172 207.464 191.946 207.493C191.723 207.518 191.542 207.54 191.404 207.558C191.068 207.602 190.754 207.674 190.461 207.772C190.173 207.867 189.939 208.011 189.76 208.205C189.585 208.395 189.497 208.654 189.497 208.983C189.497 209.432 189.663 209.772 189.996 210.002C190.332 210.228 190.757 210.341 191.272 210.341ZM197.822 214.461C197.603 214.461 197.408 214.442 197.236 214.406C197.065 214.373 196.946 214.34 196.88 214.307L197.209 213.168C197.523 213.248 197.8 213.277 198.042 213.256C198.283 213.234 198.496 213.126 198.682 212.932C198.872 212.742 199.046 212.434 199.203 212.007L199.444 211.349L196.332 202.891H197.735L200.057 209.596H200.145L202.468 202.891H203.87L200.298 212.532C200.138 212.967 199.939 213.327 199.701 213.612C199.464 213.9 199.188 214.114 198.874 214.253C198.564 214.391 198.213 214.461 197.822 214.461ZM211.536 204.776L210.375 205.104C210.302 204.911 210.194 204.723 210.052 204.54C209.913 204.354 209.723 204.201 209.482 204.08C209.241 203.959 208.933 203.899 208.556 203.899C208.042 203.899 207.612 204.018 207.269 204.255C206.93 204.489 206.76 204.787 206.76 205.148C206.76 205.47 206.877 205.723 207.11 205.91C207.344 206.096 207.709 206.251 208.206 206.375L209.455 206.682C210.207 206.865 210.768 207.144 211.137 207.52C211.505 207.893 211.69 208.373 211.69 208.961C211.69 209.443 211.551 209.874 211.274 210.254C211 210.633 210.616 210.933 210.123 211.152C209.63 211.371 209.057 211.481 208.403 211.481C207.545 211.481 206.835 211.294 206.272 210.922C205.71 210.549 205.354 210.005 205.204 209.29L206.431 208.983C206.548 209.436 206.769 209.775 207.094 210.002C207.423 210.228 207.852 210.341 208.381 210.341C208.984 210.341 209.462 210.213 209.816 209.958C210.174 209.699 210.353 209.388 210.353 209.027C210.353 208.734 210.251 208.49 210.046 208.293C209.842 208.092 209.528 207.942 209.104 207.843L207.702 207.515C206.931 207.332 206.365 207.049 206.004 206.666C205.646 206.278 205.467 205.795 205.467 205.214C205.467 204.739 205.6 204.319 205.867 203.954C206.137 203.589 206.504 203.302 206.968 203.094C207.435 202.886 207.965 202.782 208.556 202.782C209.389 202.782 210.043 202.964 210.518 203.33C210.996 203.695 211.336 204.177 211.536 204.776Z" fill="#A6A1A9"/>
</g>
<defs>
<filter id="filter0_d_110_26984" x="-0.000180721" y="0.0001086" width="293.093" height="249.259" filterUnits="userSpaceOnUse" color-interpolation-filters="sRGB">
<feFlood flood-opacity="0" result="BackgroundImageFix"/>
<feColorMatrix in="SourceAlpha" type="matrix" values="0 0 0 0 0 0 0 0 0 0 0 0 0 0 0 0 0 0 127 0" result="hardAlpha"/>
<feOffset dy="1.10185"/>
<feGaussianBlur stdDeviation="2.2037"/>
<feComposite in2="hardAlpha" operator="out"/>
<feColorMatrix type="matrix" values="0 0 0 0 0.0588235 0 0 0 0 0.0901961 0 0 0 0 0.164706 0 0 0 0.04 0"/>
<feBlend mode="normal" in2="BackgroundImageFix" result="effect1_dropShadow_110_26984"/>
<feBlend mode="normal" in="SourceGraphic" in2="effect1_dropShadow_110_26984" result="shape"/>
</filter>
<linearGradient id="paint0_linear_110_26984" x1="57.296" y1="82.6389" x2="57.296" y2="29.75" gradientUnits="userSpaceOnUse">
<stop stop-color="#4D36D0"/>
<stop offset="1" stop-color="#8474FE"/>
</linearGradient>
<clipPath id="clip0_110_26984">
<rect width="30.8519" height="30.8519" fill="white" transform="translate(41.8701 40.7686)"/>
</clipPath>
<clipPath id="clip1_110_26984">
<rect width="13.2222" height="13.2222" fill="white" transform="translate(229.296 156.38)"/>
</clipPath>
</defs>
</svg>
