<svg width="513" height="508" viewBox="0 0 513 508" fill="none" xmlns="http://www.w3.org/2000/svg">
<g filter="url(#filter0_d_110_26592)">
<rect x="117.455" y="119.613" width="362.727" height="229.727" rx="5.18182" fill="white" fill-opacity="0.06"/>
</g>
<rect x="117.273" y="157.226" width="363" height="192" rx="5.18182" fill="white" fill-opacity="0.06"/>
<g filter="url(#filter1_d_110_26592)">
<rect x="331.637" y="174.02" width="120.909" height="79.4545" rx="5.18182" fill="white" fill-opacity="0.06"/>
</g>
<line opacity="0.3" x1="392.523" y1="223.248" x2="392.523" y2="243.976" stroke="#B4B6C4" stroke-width="0.863636"/>
<path d="M393.399 185.521C390.813 184.971 388.118 185.255 385.702 186.33C383.286 187.406 381.273 189.219 379.951 191.509C378.628 193.799 378.065 196.449 378.342 199.079C378.618 201.709 379.72 204.184 381.489 206.15C383.259 208.115 385.605 209.47 388.192 210.019C390.779 210.569 393.473 210.286 395.889 209.21C398.305 208.135 400.318 206.322 401.641 204.032C402.963 201.741 403.526 199.091 403.25 196.461L390.796 197.77L393.399 185.521Z" fill="#937AFF"/>
<path d="M395.521 182.997C398.276 183.63 400.76 185.119 402.617 187.25C404.473 189.382 405.608 192.046 405.857 194.862L392.523 196.043L395.521 182.997Z" fill="#FFDC60"/>
<path d="M351.181 225.419L353.091 222.819H354.856L352.74 225.636C352.958 225.576 353.188 225.54 353.405 225.54C355.231 225.54 356.464 226.821 356.464 228.611C356.464 230.497 355.062 231.815 353.176 231.815C351.265 231.815 349.838 230.412 349.838 228.599C349.838 227.535 350.189 226.761 351.181 225.419ZM351.422 228.611C351.422 229.687 352.136 230.437 353.176 230.437C354.179 230.437 354.905 229.687 354.905 228.611C354.905 227.547 354.191 226.809 353.176 226.809C352.124 226.809 351.422 227.547 351.422 228.611ZM363.387 231.646L357.256 231.658V230.497L360.146 228.055C361.343 227.039 361.742 226.459 361.742 225.612C361.742 224.609 361.198 224.04 360.267 224.04C359.3 224.04 358.695 224.718 358.683 225.854H357.148C357.16 223.92 358.393 222.662 360.267 222.662C362.153 222.662 363.326 223.738 363.326 225.528C363.326 226.761 362.649 227.692 361.307 228.841L359.711 230.207H363.387V231.646ZM368.85 224.971C368.85 226.338 367.883 227.293 366.541 227.293C365.199 227.293 364.231 226.338 364.231 224.971C364.231 223.617 365.199 222.65 366.541 222.65C367.883 222.65 368.85 223.617 368.85 224.971ZM373.698 222.831L366.988 231.658H365.513L372.223 222.831H373.698ZM367.677 224.971C367.677 224.27 367.218 223.787 366.541 223.787C365.864 223.787 365.416 224.27 365.416 224.971C365.416 225.673 365.876 226.156 366.541 226.156C367.218 226.156 367.677 225.673 367.677 224.971ZM374.992 229.493C374.992 230.848 374.037 231.815 372.695 231.815C371.341 231.815 370.386 230.848 370.386 229.493C370.386 228.139 371.341 227.172 372.695 227.172C374.037 227.172 374.992 228.139 374.992 229.493ZM373.819 229.493C373.819 228.792 373.36 228.309 372.695 228.309C372.018 228.309 371.558 228.792 371.558 229.493C371.558 230.195 372.018 230.678 372.695 230.678C373.36 230.678 373.819 230.195 373.819 229.493Z" fill="white"/>
<path d="M354.065 237.057H354.976L357.11 242.269H357.186L359.32 237.057H360.26V243.34H359.514V238.566H359.455L357.477 243.34H356.794L354.841 238.566H354.782V243.34H354.065V237.057ZM362.668 243.449C362.37 243.449 362.099 243.393 361.854 243.281C361.609 243.166 361.415 243 361.272 242.783C361.129 242.567 361.057 242.305 361.057 241.999C361.057 241.729 361.11 241.511 361.217 241.345C361.324 241.177 361.466 241.044 361.643 240.949C361.823 240.85 362.02 240.777 362.234 240.73C362.45 240.682 362.668 240.644 362.887 240.616C363.174 240.579 363.406 240.551 363.583 240.531C363.763 240.512 363.894 240.478 363.975 240.43C364.06 240.382 364.102 240.301 364.102 240.186V240.16C364.102 239.859 364.019 239.626 363.853 239.46C363.69 239.292 363.441 239.207 363.106 239.207C362.764 239.207 362.494 239.283 362.297 239.435C362.1 239.584 361.962 239.744 361.884 239.916L361.192 239.671C361.316 239.384 361.48 239.161 361.685 239.001C361.893 238.84 362.118 238.728 362.36 238.663C362.605 238.599 362.845 238.566 363.081 238.566C363.233 238.566 363.407 238.585 363.604 238.621C363.801 238.655 363.992 238.728 364.178 238.84C364.366 238.95 364.521 239.117 364.641 239.342C364.765 239.564 364.827 239.862 364.827 240.236V243.34H364.102V242.699H364.068C364.02 242.8 363.939 242.91 363.823 243.028C363.708 243.143 363.555 243.243 363.364 243.327C363.175 243.409 362.943 243.449 362.668 243.449ZM362.778 242.8C363.064 242.8 363.306 242.744 363.503 242.631C363.7 242.519 363.849 242.374 363.95 242.197C364.051 242.017 364.102 241.83 364.102 241.636V240.97C364.071 241.006 364.003 241.04 363.899 241.071C363.798 241.099 363.68 241.125 363.545 241.147C363.413 241.17 363.284 241.189 363.157 241.206C363.031 241.22 362.929 241.231 362.853 241.24C362.665 241.265 362.489 241.306 362.326 241.362C362.163 241.415 362.031 241.496 361.93 241.602C361.832 241.709 361.782 241.855 361.782 242.041C361.782 242.291 361.875 242.481 362.061 242.61C362.249 242.737 362.488 242.8 362.778 242.8ZM366.472 240.506V243.34H365.755V238.625H366.446V239.367H366.514C366.623 239.126 366.791 238.932 367.016 238.786C367.241 238.639 367.532 238.566 367.889 238.566C368.206 238.566 368.485 238.631 368.723 238.76C368.962 238.89 369.148 239.086 369.28 239.351C369.415 239.612 369.483 239.944 369.483 240.346V243.34H368.766V240.396C368.766 240.028 368.669 239.74 368.475 239.532C368.281 239.321 368.016 239.216 367.682 239.216C367.451 239.216 367.245 239.266 367.062 239.367C366.879 239.469 366.734 239.615 366.628 239.806C366.524 239.997 366.472 240.231 366.472 240.506Z" fill="#A6A1A9"/>
<path d="M413.747 227.281H412.671V226.277L414.944 224.186H411.268V222.819H416.878V224.053L414.726 226.035C416.08 226.301 417.132 227.293 417.132 228.853C417.132 230.666 415.718 231.815 413.928 231.815C412.199 231.815 410.857 230.751 410.857 228.841H412.381C412.381 229.856 413.009 230.437 413.952 230.437C414.92 230.437 415.56 229.808 415.56 228.828C415.56 227.934 414.98 227.281 413.747 227.281ZM418.007 229.155C418.007 228.103 418.599 227.257 419.518 226.906C418.744 226.555 418.321 225.89 418.321 225.032C418.321 223.629 419.567 222.662 421.392 222.662C423.206 222.662 424.427 223.617 424.427 225.056C424.427 225.915 423.992 226.58 423.206 226.906C424.137 227.232 424.742 228.091 424.742 229.155C424.742 230.751 423.424 231.803 421.368 231.803C419.325 231.803 418.007 230.763 418.007 229.155ZM419.724 225.165C419.724 225.902 420.365 226.374 421.368 226.374C422.36 226.374 422.988 225.915 422.988 225.177C422.988 224.439 422.36 223.98 421.368 223.98C420.365 223.98 419.724 224.439 419.724 225.165ZM419.518 229.046C419.518 229.905 420.232 230.437 421.38 230.437C422.505 230.437 423.218 229.905 423.218 229.046C423.218 228.188 422.505 227.656 421.368 227.656C420.232 227.656 419.518 228.188 419.518 229.046ZM430.275 224.971C430.275 226.338 429.307 227.293 427.965 227.293C426.623 227.293 425.656 226.338 425.656 224.971C425.656 223.617 426.623 222.65 427.965 222.65C429.307 222.65 430.275 223.617 430.275 224.971ZM435.123 222.831L428.413 231.658H426.938L433.648 222.831H435.123ZM429.102 224.971C429.102 224.27 428.642 223.787 427.965 223.787C427.288 223.787 426.841 224.27 426.841 224.971C426.841 225.673 427.3 226.156 427.965 226.156C428.642 226.156 429.102 225.673 429.102 224.971ZM436.417 229.493C436.417 230.848 435.462 231.815 434.12 231.815C432.765 231.815 431.81 230.848 431.81 229.493C431.81 228.139 432.765 227.172 434.12 227.172C435.462 227.172 436.417 228.139 436.417 229.493ZM435.244 229.493C435.244 228.792 434.785 228.309 434.12 228.309C433.442 228.309 432.983 228.792 432.983 229.493C432.983 230.195 433.442 230.678 434.12 230.678C434.785 230.678 435.244 230.195 435.244 229.493Z" fill="white"/>
<path d="M410.459 243.34L408.747 237.057H409.515L410.83 242.176H410.889L412.23 237.057H413.091L414.423 242.176H414.491L415.798 237.057H416.574L414.853 243.34H414.069L412.686 238.339H412.635L411.252 243.34H410.459ZM418.518 243.441C418.093 243.441 417.721 243.34 417.4 243.137C417.08 242.935 416.83 242.651 416.65 242.286C416.473 241.92 416.384 241.496 416.384 241.012C416.384 240.52 416.473 240.091 416.65 239.726C416.83 239.358 417.08 239.072 417.4 238.87C417.721 238.667 418.093 238.566 418.518 238.566C418.945 238.566 419.319 238.667 419.64 238.87C419.96 239.072 420.21 239.358 420.39 239.726C420.57 240.091 420.66 240.52 420.66 241.012C420.66 241.496 420.57 241.92 420.39 242.286C420.21 242.651 419.96 242.935 419.64 243.137C419.319 243.34 418.945 243.441 418.518 243.441ZM418.518 242.792C418.844 242.792 419.111 242.709 419.319 242.543C419.527 242.377 419.682 242.159 419.783 241.889C419.884 241.617 419.935 241.324 419.935 241.012C419.935 240.694 419.884 240.399 419.783 240.127C419.682 239.854 419.527 239.635 419.319 239.469C419.111 239.3 418.844 239.216 418.518 239.216C418.197 239.216 417.933 239.3 417.725 239.469C417.517 239.635 417.362 239.854 417.261 240.127C417.16 240.399 417.109 240.694 417.109 241.012C417.109 241.324 417.16 241.617 417.261 241.889C417.362 242.159 417.517 242.377 417.725 242.543C417.933 242.709 418.197 242.792 418.518 242.792ZM421.36 243.34V238.625H422.052V239.367H422.119C422.218 239.114 422.376 238.918 422.596 238.777C422.815 238.637 423.078 238.566 423.384 238.566C423.693 238.566 423.951 238.637 424.156 238.777C424.364 238.918 424.526 239.114 424.641 239.367H424.691C424.815 239.123 424.997 238.929 425.235 238.786C425.477 238.639 425.765 238.566 426.1 238.566C426.522 238.566 426.867 238.698 427.137 238.963C427.407 239.224 427.542 239.632 427.542 240.186V243.34H426.817V240.186C426.817 239.837 426.721 239.588 426.53 239.439C426.339 239.29 426.114 239.216 425.855 239.216C425.526 239.216 425.271 239.317 425.088 239.519C424.908 239.719 424.818 239.969 424.818 240.27V243.34H424.076V240.11C424.076 239.843 423.99 239.628 423.819 239.464C423.647 239.299 423.424 239.216 423.148 239.216C422.96 239.216 422.784 239.266 422.621 239.367C422.458 239.469 422.326 239.608 422.225 239.785C422.126 239.962 422.077 240.166 422.077 240.396V243.34H421.36ZM430.443 243.441C429.991 243.441 429.599 243.34 429.267 243.137C428.938 242.935 428.685 242.652 428.508 242.29C428.331 241.924 428.242 241.501 428.242 241.021C428.242 240.537 428.329 240.111 428.504 239.743C428.678 239.374 428.923 239.086 429.237 238.878C429.555 238.67 429.926 238.566 430.351 238.566C430.595 238.566 430.838 238.607 431.08 238.689C431.322 238.77 431.541 238.902 431.738 239.085C431.938 239.268 432.097 239.509 432.215 239.81C432.333 240.111 432.392 240.481 432.392 240.919V241.231H428.757V240.607H432L431.666 240.843C431.666 240.529 431.617 240.249 431.519 240.004C431.42 239.76 431.273 239.567 431.076 239.426C430.882 239.286 430.64 239.216 430.351 239.216C430.061 239.216 429.812 239.287 429.604 239.431C429.399 239.571 429.242 239.755 429.132 239.983C429.022 240.211 428.968 240.455 428.968 240.717V241.13C428.968 241.487 429.029 241.789 429.153 242.037C429.277 242.284 429.45 242.473 429.672 242.602C429.894 242.728 430.151 242.792 430.443 242.792C430.632 242.792 430.803 242.765 430.958 242.712C431.113 242.655 431.246 242.572 431.359 242.463C431.471 242.35 431.557 242.213 431.616 242.049L432.316 242.252C432.243 242.488 432.119 242.696 431.945 242.876C431.773 243.053 431.56 243.192 431.304 243.293C431.048 243.392 430.761 243.441 430.443 243.441ZM433.792 240.506V243.34H433.075V238.625H433.766V239.367H433.834C433.944 239.126 434.111 238.932 434.336 238.786C434.561 238.639 434.852 238.566 435.209 238.566C435.526 238.566 435.805 238.631 436.044 238.76C436.283 238.89 436.468 239.086 436.6 239.351C436.735 239.612 436.803 239.944 436.803 240.346V243.34H436.086V240.396C436.086 240.028 435.989 239.74 435.795 239.532C435.601 239.321 435.337 239.216 435.002 239.216C434.771 239.216 434.565 239.266 434.382 239.367C434.199 239.469 434.055 239.615 433.948 239.806C433.844 239.997 433.792 240.231 433.792 240.506Z" fill="#A6A1A9"/>
<g filter="url(#filter2_d_110_26592)">
<rect x="331.637" y="271.612" width="120.909" height="39.7273" rx="5.18182" fill="white" fill-opacity="0.06"/>
</g>
<rect x="340.273" y="282.84" width="103.636" height="5.18182" rx="2.59091" fill="#B4B6C4"/>
<rect x="340.273" y="294.931" width="103.636" height="5.18182" rx="2.59091" fill="#B4B6C4"/>
<rect x="174.455" y="293.203" width="139.909" height="5.18182" rx="2.59091" fill="#B4B6C4"/>
<rect x="145.091" y="293.203" width="20.7273" height="5.18182" rx="2.59091" fill="#B4B6C4"/>
<rect x="174.455" y="305.294" width="139.909" height="5.18182" rx="2.59091" fill="#B4B6C4"/>
<rect x="145.091" y="305.294" width="20.7273" height="5.18182" rx="2.59091" fill="#B4B6C4"/>
<g filter="url(#filter3_d_110_26592)">
<rect x="145.091" y="174.02" width="169.273" height="97.5909" rx="5.18182" fill="white" fill-opacity="0.06"/>
</g>
<path opacity="0.4" d="M177.668 242.758C172.137 242.758 163.278 243.387 158.909 257.795H299.682V187.84C294.377 187.84 284.65 204.735 279.017 204.735C273.828 204.735 269.681 211.932 267.554 211.932C265.63 211.932 262.042 205.987 260.599 205.987C259.156 205.987 259.497 221.837 256.611 221.837C254.687 221.837 252.422 211.932 249.296 211.932C246.169 211.932 243.867 223.832 241.239 223.832C234.265 223.832 234.866 237.527 230.297 237.527C226.449 237.527 228.894 215.953 224.565 215.953C219.033 215.953 220.196 201.607 216.588 201.607C212.019 201.607 216.91 223.832 209.454 223.832C203.441 223.832 202.006 231.602 198.772 231.643C195.537 231.684 191.096 223.832 188.21 223.832C183.881 223.832 182.478 242.758 177.668 242.758Z" fill="url(#paint0_linear_110_26592)"/>
<path d="M159.773 257.795C164.142 243.387 173 242.758 178.532 242.758C183.342 242.758 184.745 223.832 189.073 223.832C191.959 223.832 196.401 231.684 199.635 231.643C202.87 231.602 204.305 223.832 210.317 223.832C217.774 223.832 212.883 201.607 217.452 201.607C221.06 201.607 219.897 215.953 225.429 215.953C229.758 215.953 227.313 237.527 231.16 237.527C235.73 237.527 235.129 223.832 242.103 223.832C244.731 223.832 247.033 211.932 250.16 211.932C253.286 211.932 255.551 221.837 257.475 221.837C260.361 221.837 260.02 205.987 261.463 205.987C262.906 205.987 266.493 211.932 268.417 211.932C270.545 211.932 274.692 204.735 279.881 204.735C285.514 204.735 294.377 187.84 299.682 187.84" stroke="#6241D4" stroke-width="1.72727" stroke-linecap="round" stroke-linejoin="round"/>
<circle cx="203.818" cy="228.429" r="3.45455" fill="#6241D4"/>
<path d="M204.371 221.061C204.051 221.328 203.586 221.328 203.266 221.061L197.12 215.94C195.879 214.906 196.61 212.886 198.226 212.886L209.411 212.886C211.027 212.886 211.758 214.906 210.517 215.94L204.371 221.061Z" fill="#937AFF"/>
<rect x="173.591" y="188.703" width="60.4545" height="29.3636" rx="3.45455" fill="#937AFF"/>
<rect opacity="0.4" x="180.5" y="209.431" width="24.1818" height="2.59091" rx="1.29545" fill="white"/>
<path d="M187.864 203.204H186.788V204.884H185.325V203.204H180.839V201.849L184.841 196.046H186.788V201.849H187.864V203.204ZM182.483 201.849H185.325V197.714L182.483 201.849ZM188.837 200.483C188.837 197.739 190.312 195.877 192.573 195.877C194.834 195.877 196.321 197.739 196.321 200.483C196.321 203.216 194.919 205.041 192.573 205.041C190.227 205.041 188.837 203.216 188.837 200.483ZM190.36 200.483C190.36 202.527 191.183 203.675 192.573 203.675C193.976 203.675 194.798 202.527 194.798 200.483C194.798 198.391 193.976 197.243 192.573 197.243C191.183 197.243 190.36 198.391 190.36 200.483ZM201.872 198.198C201.872 199.564 200.905 200.519 199.563 200.519C198.22 200.519 197.253 199.564 197.253 198.198C197.253 196.844 198.22 195.877 199.563 195.877C200.905 195.877 201.872 196.844 201.872 198.198ZM206.72 196.058L200.01 204.884H198.535L205.245 196.058H206.72ZM200.699 198.198C200.699 197.497 200.24 197.013 199.563 197.013C198.885 197.013 198.438 197.497 198.438 198.198C198.438 198.899 198.898 199.383 199.563 199.383C200.24 199.383 200.699 198.899 200.699 198.198ZM208.014 202.72C208.014 204.074 207.059 205.041 205.717 205.041C204.363 205.041 203.407 204.074 203.407 202.72C203.407 201.366 204.363 200.399 205.717 200.399C207.059 200.399 208.014 201.366 208.014 202.72ZM206.841 202.72C206.841 202.019 206.382 201.535 205.717 201.535C205.04 201.535 204.58 202.019 204.58 202.72C204.58 203.421 205.04 203.905 205.717 203.905C206.382 203.905 206.841 203.421 206.841 202.72Z" fill="white"/>
<circle cx="221.091" cy="202.52" r="6.04545" fill="white"/>
<path d="M221.535 201.003C221.306 200.759 220.876 200.759 220.648 201.003L218.385 203.419C218.084 203.741 218.349 204.221 218.829 204.221L223.354 204.221C223.833 204.221 224.099 203.741 223.797 203.419L221.535 201.003Z" fill="#38E7B2"/>
<circle cx="139.046" cy="138.611" r="4.31818" fill="#D280FF"/>
<circle cx="158.046" cy="138.611" r="4.31818" fill="#FFDC60"/>
<circle cx="177.046" cy="138.611" r="4.31818" fill="#38E7B2"/>
<g filter="url(#filter4_d_110_26592)">
<rect x="101.046" y="39.7261" width="51.8182" height="51.8182" rx="5.18182" fill="white" fill-opacity="0.06"/>
</g>
<g clip-path="url(#clip0_110_26592)">
<path d="M135.282 54.5305H118.627C117.095 54.5305 115.851 55.7751 115.851 57.3065V73.9623C115.851 75.4928 117.095 76.7383 118.627 76.7383H135.282C136.813 76.7383 138.058 75.4928 138.058 73.9623V57.3065C138.058 55.7751 136.813 54.5305 135.282 54.5305Z" fill="#3B5999"/>
<path d="M131.119 65.6335V62.8576C131.119 62.0914 131.74 62.1636 132.507 62.1636H133.895V58.6936H131.119C128.818 58.6936 126.955 60.5572 126.955 62.8576V65.6335H124.179V69.1035H126.955V76.7374H131.119V69.1035H133.201L134.589 65.6335H131.119Z" fill="white"/>
</g>
<g filter="url(#filter5_d_110_26592)">
<rect x="375.682" y="12.0908" width="60.4545" height="60.4545" rx="5.18182" fill="white" fill-opacity="0.06"/>
</g>
<g clip-path="url(#clip1_110_26592)">
<path d="M417.94 36.9632C417.94 36.6899 417.93 36.4241 417.917 36.1622C419.147 35.2893 420.181 34.1999 421.023 32.9455V32.9442C419.898 33.4367 418.702 33.7641 417.453 33.9228C418.737 33.1558 419.718 31.9505 420.179 30.4983C418.982 31.2124 417.659 31.7162 416.25 31.9983C415.112 30.7867 413.492 30.0374 411.723 30.0374C408.292 30.0374 405.53 32.822 405.53 36.2352C405.53 36.7264 405.572 37.1987 405.674 37.6483C400.523 37.3964 395.964 34.9279 392.9 31.1658C392.366 32.0941 392.052 33.1558 392.052 34.2981C392.052 36.4443 393.156 38.3461 394.805 39.4481C393.809 39.4292 392.832 39.1395 392.005 38.6849V38.7529C392.005 41.7643 394.152 44.2656 396.97 44.8424C396.023 45.1019 394.856 45.0918 394.173 44.9407C394.975 47.3941 397.254 49.1989 399.962 49.2581C397.854 50.9068 395.176 51.9005 392.278 51.9005C391.771 51.9005 391.283 51.8778 390.796 51.8161C393.542 53.5857 396.793 54.597 400.302 54.597C411.706 54.597 417.94 45.151 417.94 36.9632Z" fill="#55ACEE"/>
</g>
<g filter="url(#filter6_d_110_26592)">
<rect x="316.091" y="398.998" width="86.3636" height="86.3636" rx="5.18182" fill="white" fill-opacity="0.06"/>
</g>
<g clip-path="url(#clip2_110_26592)">
<path d="M352.646 443.547C349.724 443.547 347.354 445.917 347.354 448.839V462.076C347.354 464.998 349.724 467.368 352.646 467.368C355.568 467.368 357.938 464.998 357.938 462.076V448.839C357.936 445.917 355.566 443.547 352.646 443.547Z" fill="#E91E63"/>
<path d="M334.124 448.837C334.124 451.761 336.496 454.133 339.42 454.133C342.344 454.133 344.716 451.761 344.716 448.837V443.541H339.424C339.422 443.541 339.422 443.541 339.42 443.541C336.496 443.541 334.124 445.913 334.124 448.837Z" fill="#E91E63"/>
<path d="M352.652 416.989C352.65 416.989 352.648 416.989 352.646 416.989C349.722 416.989 347.35 419.361 347.35 422.285C347.35 425.209 349.722 427.581 352.646 427.581H357.938V422.285C357.938 422.283 357.938 422.279 357.938 422.275C357.935 419.355 355.57 416.989 352.652 416.989Z" fill="#36C5F0"/>
<path d="M339.384 440.857H352.647C355.571 440.857 357.943 438.485 357.943 435.56C357.943 432.636 355.571 430.264 352.647 430.264H339.384C336.46 430.264 334.088 432.636 334.088 435.56C334.088 438.485 336.46 440.857 339.384 440.857Z" fill="#36C5F0"/>
<path d="M379.124 430.262C376.204 430.262 373.838 432.628 373.838 435.548V435.559V440.855H379.13C382.054 440.855 384.426 438.483 384.426 435.559C384.426 432.634 382.054 430.262 379.13 430.262C379.128 430.262 379.126 430.262 379.124 430.262Z" fill="#4CAF50"/>
<path d="M360.618 422.283V435.56C360.618 438.482 362.988 440.852 365.91 440.852C368.832 440.852 371.202 438.482 371.202 435.56V422.283C371.202 419.361 368.832 416.991 365.91 416.991C362.988 416.991 360.618 419.361 360.618 422.283Z" fill="#4CAF50"/>
<path d="M371.2 462.071C371.2 459.149 368.83 456.779 365.908 456.779H360.616V462.075C360.618 464.995 362.986 467.363 365.908 467.363C368.83 467.363 371.2 464.993 371.2 462.071Z" fill="#FF9800"/>
<path d="M379.17 443.542H365.908C362.984 443.542 360.612 445.914 360.612 448.838C360.612 451.762 362.984 454.134 365.908 454.134H379.17C382.094 454.134 384.466 451.762 384.466 448.838C384.466 445.914 382.094 443.542 379.17 443.542Z" fill="#FF9800"/>
</g>
<g filter="url(#filter7_d_110_26592)">
<rect x="17.2729" y="197.771" width="60.4545" height="60.4545" rx="5.18182" fill="white" fill-opacity="0.06"/>
</g>
<g clip-path="url(#clip3_110_26592)">
<path d="M58.8297 239.334V239.333H58.8353V231.018C58.8353 226.951 57.9597 223.818 53.2045 223.818C50.9186 223.818 49.3846 225.072 48.7583 226.261H48.6922V224.197H44.1836V239.333H48.8783V231.838C48.8783 229.865 49.2523 227.957 51.696 227.957C54.1038 227.957 54.1397 230.209 54.1397 231.965V239.334H58.8297Z" fill="#0077B5"/>
<path d="M36.5391 224.199H41.2394V239.334H36.5391V224.199Z" fill="#0077B5"/>
<path d="M38.8874 216.664C37.3845 216.664 36.165 217.884 36.165 219.387C36.165 220.89 37.3845 222.134 38.8874 222.134C40.3902 222.134 41.6097 220.89 41.6097 219.387C41.6088 217.884 40.3893 216.664 38.8874 216.664V216.664Z" fill="#0077B5"/>
</g>
<path d="M78.2734 227.225L116.273 227.225" stroke="#937AFF" stroke-width="1.29545" stroke-linecap="round" stroke-linejoin="round" stroke-dasharray="3.45 4.32"/>
<path d="M92.2734 405.225H180.509V381.774H242.273V350.225" stroke="#937AFF" stroke-width="1.72727" stroke-linecap="round" stroke-linejoin="round" stroke-dasharray="3.45 4.32"/>
<path d="M361.864 350.635L361.864 398.998" stroke="#937AFF" stroke-width="1.72727" stroke-dasharray="3.45 4.32"/>
<path d="M375.682 40.5898H332.5V118.725" stroke="#937AFF" stroke-width="1.72727" stroke-linecap="round" stroke-linejoin="round" stroke-dasharray="3.45 4.32"/>
<path d="M155.455 63.9067H212.032V93.5602H302.273V118.725" stroke="#937AFF" stroke-width="1.72727" stroke-linecap="round" stroke-linejoin="round" stroke-dasharray="3.45 4.32"/>
<g filter="url(#filter8_d_110_26592)">
<rect x="17.2729" y="367.908" width="74.2727" height="74.2727" rx="5.18182" fill="white" fill-opacity="0.06"/>
</g>
<g clip-path="url(#clip4_110_26592)">
<path d="M38.1618 389.003C35.2435 392.034 35.8408 395.254 35.8408 405.037C35.8408 413.16 34.4234 421.304 41.8414 423.221C44.1578 423.817 64.6818 423.817 66.9951 423.218C70.0836 422.421 72.5965 419.916 72.94 415.548C72.988 414.938 72.988 395.146 72.9385 394.524C72.5733 389.871 69.7091 387.19 65.9352 386.647C65.0702 386.521 64.8969 386.484 60.4591 386.476C44.7179 386.484 41.2673 385.783 38.1618 389.003Z" fill="url(#paint1_linear_110_26592)"/>
<path d="M54.4062 391.334C48.7878 391.334 43.4525 390.834 41.4147 396.064C40.5729 398.224 40.6952 401.03 40.6952 405.047C40.6952 408.571 40.5822 411.884 41.4147 414.027C43.4479 419.261 48.8265 418.759 54.4031 418.759C59.7832 418.759 65.3305 419.319 67.3931 414.027C68.2364 411.846 68.1126 409.082 68.1126 405.047C68.1126 399.69 68.4082 396.231 65.8102 393.635C63.1797 391.004 59.6223 391.334 54.4 391.334H54.4062ZM53.1776 393.805C64.8972 393.787 66.3889 392.484 65.5657 410.583C65.2732 416.984 60.3991 416.282 54.4078 416.282C43.4835 416.282 43.1694 415.969 43.1694 405.04C43.1694 393.985 44.0359 393.811 53.1776 393.802V393.805ZM61.7252 396.081C60.8169 396.081 60.0803 396.818 60.0803 397.726C60.0803 398.634 60.8169 399.371 61.7252 399.371C62.6335 399.371 63.37 398.634 63.37 397.726C63.37 396.818 62.6335 396.081 61.7252 396.081ZM54.4062 398.005C50.5177 398.005 47.3658 401.158 47.3658 405.047C47.3658 408.935 50.5177 412.087 54.4062 412.087C58.2947 412.087 61.4451 408.935 61.4451 405.047C61.4451 401.158 58.2947 398.005 54.4062 398.005ZM54.4062 400.476C60.4486 400.476 60.4563 409.618 54.4062 409.618C48.3654 409.618 48.3561 400.476 54.4062 400.476Z" fill="white"/>
</g>
<defs>
<filter id="filter0_d_110_26592" x="84.6369" y="93.7035" width="428.363" height="295.364" filterUnits="userSpaceOnUse" color-interpolation-filters="sRGB">
<feFlood flood-opacity="0" result="BackgroundImageFix"/>
<feColorMatrix in="SourceAlpha" type="matrix" values="0 0 0 0 0 0 0 0 0 0 0 0 0 0 0 0 0 0 127 0" result="hardAlpha"/>
<feMorphology radius="1.72727" operator="erode" in="SourceAlpha" result="effect1_dropShadow_110_26592"/>
<feOffset dy="6.90909"/>
<feGaussianBlur stdDeviation="17.2727"/>
<feColorMatrix type="matrix" values="0 0 0 0 0.0235294 0 0 0 0 0.0470588 0 0 0 0 0.231373 0 0 0 0.08 0"/>
<feBlend mode="normal" in2="BackgroundImageFix" result="effect1_dropShadow_110_26592"/>
<feBlend mode="normal" in="SourceGraphic" in2="effect1_dropShadow_110_26592" result="shape"/>
</filter>
<filter id="filter1_d_110_26592" x="314.364" y="161.929" width="155.455" height="114" filterUnits="userSpaceOnUse" color-interpolation-filters="sRGB">
<feFlood flood-opacity="0" result="BackgroundImageFix"/>
<feColorMatrix in="SourceAlpha" type="matrix" values="0 0 0 0 0 0 0 0 0 0 0 0 0 0 0 0 0 0 127 0" result="hardAlpha"/>
<feOffset dy="5.18182"/>
<feGaussianBlur stdDeviation="8.63636"/>
<feColorMatrix type="matrix" values="0 0 0 0 0.11 0 0 0 0 0.14137 0 0 0 0 0.4125 0 0 0 0.05 0"/>
<feBlend mode="normal" in2="BackgroundImageFix" result="effect1_dropShadow_110_26592"/>
<feBlend mode="normal" in="SourceGraphic" in2="effect1_dropShadow_110_26592" result="shape"/>
</filter>
<filter id="filter2_d_110_26592" x="314.364" y="259.521" width="155.455" height="74.2728" filterUnits="userSpaceOnUse" color-interpolation-filters="sRGB">
<feFlood flood-opacity="0" result="BackgroundImageFix"/>
<feColorMatrix in="SourceAlpha" type="matrix" values="0 0 0 0 0 0 0 0 0 0 0 0 0 0 0 0 0 0 127 0" result="hardAlpha"/>
<feOffset dy="5.18182"/>
<feGaussianBlur stdDeviation="8.63636"/>
<feColorMatrix type="matrix" values="0 0 0 0 0.11 0 0 0 0 0.14137 0 0 0 0 0.4125 0 0 0 0.05 0"/>
<feBlend mode="normal" in2="BackgroundImageFix" result="effect1_dropShadow_110_26592"/>
<feBlend mode="normal" in="SourceGraphic" in2="effect1_dropShadow_110_26592" result="shape"/>
</filter>
<filter id="filter3_d_110_26592" x="127.819" y="161.929" width="203.818" height="132.136" filterUnits="userSpaceOnUse" color-interpolation-filters="sRGB">
<feFlood flood-opacity="0" result="BackgroundImageFix"/>
<feColorMatrix in="SourceAlpha" type="matrix" values="0 0 0 0 0 0 0 0 0 0 0 0 0 0 0 0 0 0 127 0" result="hardAlpha"/>
<feOffset dy="5.18182"/>
<feGaussianBlur stdDeviation="8.63636"/>
<feColorMatrix type="matrix" values="0 0 0 0 0.11 0 0 0 0 0.14137 0 0 0 0 0.4125 0 0 0 0.05 0"/>
<feBlend mode="normal" in2="BackgroundImageFix" result="effect1_dropShadow_110_26592"/>
<feBlend mode="normal" in="SourceGraphic" in2="effect1_dropShadow_110_26592" result="shape"/>
</filter>
<filter id="filter4_d_110_26592" x="83.7732" y="27.6352" width="86.3638" height="86.3636" filterUnits="userSpaceOnUse" color-interpolation-filters="sRGB">
<feFlood flood-opacity="0" result="BackgroundImageFix"/>
<feColorMatrix in="SourceAlpha" type="matrix" values="0 0 0 0 0 0 0 0 0 0 0 0 0 0 0 0 0 0 127 0" result="hardAlpha"/>
<feOffset dy="5.18182"/>
<feGaussianBlur stdDeviation="8.63636"/>
<feColorMatrix type="matrix" values="0 0 0 0 0.11 0 0 0 0 0.14137 0 0 0 0 0.4125 0 0 0 0.05 0"/>
<feBlend mode="normal" in2="BackgroundImageFix" result="effect1_dropShadow_110_26592"/>
<feBlend mode="normal" in="SourceGraphic" in2="effect1_dropShadow_110_26592" result="shape"/>
</filter>
<filter id="filter5_d_110_26592" x="358.409" y="-8.91685e-05" width="95" height="95" filterUnits="userSpaceOnUse" color-interpolation-filters="sRGB">
<feFlood flood-opacity="0" result="BackgroundImageFix"/>
<feColorMatrix in="SourceAlpha" type="matrix" values="0 0 0 0 0 0 0 0 0 0 0 0 0 0 0 0 0 0 127 0" result="hardAlpha"/>
<feOffset dy="5.18182"/>
<feGaussianBlur stdDeviation="8.63636"/>
<feColorMatrix type="matrix" values="0 0 0 0 0.11 0 0 0 0 0.14137 0 0 0 0 0.4125 0 0 0 0.05 0"/>
<feBlend mode="normal" in2="BackgroundImageFix" result="effect1_dropShadow_110_26592"/>
<feBlend mode="normal" in="SourceGraphic" in2="effect1_dropShadow_110_26592" result="shape"/>
</filter>
<filter id="filter6_d_110_26592" x="298.819" y="386.907" width="120.909" height="120.909" filterUnits="userSpaceOnUse" color-interpolation-filters="sRGB">
<feFlood flood-opacity="0" result="BackgroundImageFix"/>
<feColorMatrix in="SourceAlpha" type="matrix" values="0 0 0 0 0 0 0 0 0 0 0 0 0 0 0 0 0 0 127 0" result="hardAlpha"/>
<feOffset dy="5.18182"/>
<feGaussianBlur stdDeviation="8.63636"/>
<feColorMatrix type="matrix" values="0 0 0 0 0.11 0 0 0 0 0.14137 0 0 0 0 0.4125 0 0 0 0.05 0"/>
<feBlend mode="normal" in2="BackgroundImageFix" result="effect1_dropShadow_110_26592"/>
<feBlend mode="normal" in="SourceGraphic" in2="effect1_dropShadow_110_26592" result="shape"/>
</filter>
<filter id="filter7_d_110_26592" x="0.000221252" y="185.681" width="95" height="95" filterUnits="userSpaceOnUse" color-interpolation-filters="sRGB">
<feFlood flood-opacity="0" result="BackgroundImageFix"/>
<feColorMatrix in="SourceAlpha" type="matrix" values="0 0 0 0 0 0 0 0 0 0 0 0 0 0 0 0 0 0 127 0" result="hardAlpha"/>
<feOffset dy="5.18182"/>
<feGaussianBlur stdDeviation="8.63636"/>
<feColorMatrix type="matrix" values="0 0 0 0 0.11 0 0 0 0 0.14137 0 0 0 0 0.4125 0 0 0 0.05 0"/>
<feBlend mode="normal" in2="BackgroundImageFix" result="effect1_dropShadow_110_26592"/>
<feBlend mode="normal" in="SourceGraphic" in2="effect1_dropShadow_110_26592" result="shape"/>
</filter>
<filter id="filter8_d_110_26592" x="0.000221252" y="355.817" width="108.818" height="108.818" filterUnits="userSpaceOnUse" color-interpolation-filters="sRGB">
<feFlood flood-opacity="0" result="BackgroundImageFix"/>
<feColorMatrix in="SourceAlpha" type="matrix" values="0 0 0 0 0 0 0 0 0 0 0 0 0 0 0 0 0 0 127 0" result="hardAlpha"/>
<feOffset dy="5.18182"/>
<feGaussianBlur stdDeviation="8.63636"/>
<feColorMatrix type="matrix" values="0 0 0 0 0.11 0 0 0 0 0.14137 0 0 0 0 0.4125 0 0 0 0.05 0"/>
<feBlend mode="normal" in2="BackgroundImageFix" result="effect1_dropShadow_110_26592"/>
<feBlend mode="normal" in="SourceGraphic" in2="effect1_dropShadow_110_26592" result="shape"/>
</filter>
<linearGradient id="paint0_linear_110_26592" x1="229.296" y1="167.187" x2="229.296" y2="257.795" gradientUnits="userSpaceOnUse">
<stop stop-color="#9374FF"/>
<stop offset="1" stop-color="#9374FF" stop-opacity="0"/>
</linearGradient>
<linearGradient id="paint1_linear_110_26592" x1="38.233" y1="421.241" x2="72.7473" y2="391.369" gradientUnits="userSpaceOnUse">
<stop stop-color="#FFDD55"/>
<stop offset="0.5" stop-color="#FF543E"/>
<stop offset="1" stop-color="#C837AB"/>
</linearGradient>
<clipPath id="clip0_110_26592">
<rect width="22.2078" height="22.2078" fill="white" transform="translate(115.851 54.5315)"/>
</clipPath>
<clipPath id="clip1_110_26592">
<rect width="30.2273" height="30.2273" fill="white" transform="translate(390.796 27.2031)"/>
</clipPath>
<clipPath id="clip2_110_26592">
<rect width="50.3788" height="50.3788" fill="white" transform="translate(334.083 416.99)"/>
</clipPath>
<clipPath id="clip3_110_26592">
<rect width="22.6705" height="22.6705" fill="white" transform="translate(36.165 216.664)"/>
</clipPath>
<clipPath id="clip4_110_26592">
<rect width="37.1364" height="37.1364" fill="white" transform="translate(35.8413 386.476)"/>
</clipPath>
</defs>
</svg>
