<svg width="778" height="307" viewBox="0 0 778 307" fill="none" xmlns="http://www.w3.org/2000/svg">
<g filter="url(#filter0_d_110_26827)">
<path d="M4 15C4 8.37258 9.37258 3 16 3H762C768.627 3 774 8.37258 774 15V290C774 296.627 768.627 302 762 302H16C9.37258 302 4 296.627 4 290V15Z" fill="white" fill-opacity="0.06" shape-rendering="crispEdges"/>
<path d="M28.9545 41.196V38.5455H42.8807V41.196H37.4858V56H34.3494V41.196H28.9545ZM51.9915 50.4943V42.9091H55.0767V56H52.0852V53.6733H51.9489C51.6534 54.4062 51.1676 55.0057 50.4915 55.4716C49.821 55.9375 48.9943 56.1705 48.0114 56.1705C47.1534 56.1705 46.3949 55.9801 45.7358 55.5994C45.0824 55.2131 44.571 54.6534 44.2017 53.9205C43.8324 53.1818 43.6477 52.2898 43.6477 51.2443V42.9091H46.733V50.767C46.733 51.5966 46.9602 52.2557 47.4148 52.7443C47.8693 53.233 48.4659 53.4773 49.2045 53.4773C49.6591 53.4773 50.0994 53.3665 50.5256 53.1449C50.9517 52.9233 51.3011 52.5938 51.5739 52.1562C51.8523 51.7131 51.9915 51.1591 51.9915 50.4943ZM58.2493 56V42.9091H61.2408V45.0909H61.3771C61.6158 44.3352 62.0249 43.7528 62.6044 43.3438C63.1896 42.929 63.8572 42.7216 64.6072 42.7216C64.7777 42.7216 64.968 42.7301 65.1783 42.7472C65.3942 42.7585 65.5732 42.7784 65.7152 42.8068V45.6449C65.5845 45.5994 65.3771 45.5597 65.093 45.5256C64.8146 45.4858 64.5447 45.4659 64.2834 45.4659C63.7209 45.4659 63.2152 45.5881 62.7663 45.8324C62.3232 46.071 61.9737 46.4034 61.718 46.8295C61.4624 47.2557 61.3345 47.7472 61.3345 48.304V56H58.2493ZM70.8501 48.3295V56H67.7649V42.9091H70.7138V45.1335H70.8672C71.1683 44.4006 71.6484 43.8182 72.3075 43.3864C72.9723 42.9545 73.7933 42.7386 74.7706 42.7386C75.674 42.7386 76.4609 42.9318 77.1314 43.3182C77.8075 43.7045 78.3303 44.2642 78.6996 44.9972C79.0746 45.7301 79.2592 46.6193 79.2536 47.6648V56H76.1683V48.142C76.1683 47.267 75.9411 46.5824 75.4865 46.0881C75.0376 45.5937 74.4155 45.3466 73.62 45.3466C73.0803 45.3466 72.6001 45.4659 72.1797 45.7045C71.7649 45.9375 71.4382 46.2756 71.1996 46.7188C70.9666 47.1619 70.8501 47.6989 70.8501 48.3295ZM88.1001 56.2557C86.8217 56.2557 85.7138 55.9744 84.7763 55.4119C83.8388 54.8494 83.1115 54.0625 82.5945 53.0511C82.0831 52.0398 81.8274 50.858 81.8274 49.5057C81.8274 48.1534 82.0831 46.9687 82.5945 45.9517C83.1115 44.9347 83.8388 44.1449 84.7763 43.5824C85.7138 43.0199 86.8217 42.7386 88.1001 42.7386C89.3786 42.7386 90.4865 43.0199 91.424 43.5824C92.3615 44.1449 93.0859 44.9347 93.5973 45.9517C94.1143 46.9687 94.3729 48.1534 94.3729 49.5057C94.3729 50.858 94.1143 52.0398 93.5973 53.0511C93.0859 54.0625 92.3615 54.8494 91.424 55.4119C90.4865 55.9744 89.3786 56.2557 88.1001 56.2557ZM88.1172 53.7841C88.8104 53.7841 89.3899 53.5937 89.8558 53.2131C90.3217 52.8267 90.6683 52.3097 90.8956 51.6619C91.1286 51.0142 91.245 50.2926 91.245 49.4972C91.245 48.696 91.1286 47.9716 90.8956 47.3239C90.6683 46.6705 90.3217 46.1506 89.8558 45.7642C89.3899 45.3778 88.8104 45.1847 88.1172 45.1847C87.407 45.1847 86.8161 45.3778 86.3445 45.7642C85.8786 46.1506 85.5291 46.6705 85.2962 47.3239C85.0689 47.9716 84.9553 48.696 84.9553 49.4972C84.9553 50.2926 85.0689 51.0142 85.2962 51.6619C85.5291 52.3097 85.8786 52.8267 86.3445 53.2131C86.8161 53.5937 87.407 53.7841 88.1172 53.7841ZM108.239 42.9091L103.577 56H100.168L95.5064 42.9091H98.7962L101.805 52.6335H101.941L104.958 42.9091H108.239ZM115.724 56.2557C114.412 56.2557 113.278 55.983 112.324 55.4375C111.375 54.8864 110.645 54.108 110.134 53.1023C109.622 52.0909 109.366 50.9006 109.366 49.5312C109.366 48.1847 109.622 47.0028 110.134 45.9858C110.651 44.9631 111.372 44.1676 112.298 43.5994C113.224 43.0256 114.312 42.7386 115.562 42.7386C116.369 42.7386 117.131 42.8693 117.847 43.1307C118.568 43.3864 119.205 43.7841 119.756 44.3239C120.313 44.8636 120.75 45.5511 121.068 46.3864C121.386 47.2159 121.545 48.2045 121.545 49.3523V50.2983H110.815V48.2188H118.588C118.582 47.6278 118.455 47.1023 118.205 46.642C117.955 46.1761 117.605 45.8097 117.156 45.5426C116.713 45.2756 116.196 45.142 115.605 45.142C114.974 45.142 114.42 45.2955 113.943 45.6023C113.466 45.9034 113.094 46.3011 112.827 46.7955C112.565 47.2841 112.432 47.821 112.426 48.4062V50.2216C112.426 50.983 112.565 51.6364 112.844 52.1818C113.122 52.7216 113.511 53.1364 114.011 53.4261C114.511 53.7102 115.097 53.8523 115.767 53.8523C116.216 53.8523 116.622 53.7898 116.986 53.6648C117.349 53.5341 117.665 53.3438 117.932 53.0938C118.199 52.8438 118.401 52.5341 118.537 52.1648L121.418 52.4886C121.236 53.25 120.889 53.9148 120.378 54.483C119.872 55.0455 119.224 55.483 118.435 55.7955C117.645 56.1023 116.741 56.2557 115.724 56.2557ZM124.156 56V42.9091H127.147V45.0909H127.283C127.522 44.3352 127.931 43.7528 128.511 43.3438C129.096 42.929 129.763 42.7216 130.513 42.7216C130.684 42.7216 130.874 42.7301 131.085 42.7472C131.3 42.7585 131.479 42.7784 131.621 42.8068V45.6449C131.491 45.5994 131.283 45.5597 130.999 45.5256C130.721 45.4858 130.451 45.4659 130.19 45.4659C129.627 45.4659 129.121 45.5881 128.673 45.8324C128.229 46.071 127.88 46.4034 127.624 46.8295C127.369 47.2557 127.241 47.7472 127.241 48.304V56H124.156Z" fill="white"/>
<path d="M630 35C630 30.5817 633.582 27 638 27H742C746.418 27 750 30.5817 750 35V59C750 63.4183 746.418 67 742 67H638C633.582 67 630 63.4183 630 59V35Z" fill="url(#paint0_linear_110_26827)" fill-opacity="0.15"/>
<path d="M638 27.5H742C746.142 27.5 749.5 30.8579 749.5 35V59C749.5 63.1421 746.142 66.5 742 66.5H638C633.858 66.5 630.5 63.1421 630.5 59V35C630.5 30.8579 633.858 27.5 638 27.5Z" stroke="url(#paint1_linear_110_26827)" stroke-opacity="0.3"/>
<path d="M644.968 43.3643V41.8182H653.092V43.3643H649.945V52H648.115V43.3643H644.968ZM658.406 48.7884V44.3636H660.206V52H658.461V50.6428H658.381C658.209 51.0703 657.926 51.42 657.531 51.6918C657.14 51.9635 656.658 52.0994 656.084 52.0994C655.584 52.0994 655.141 51.9884 654.757 51.7663C654.376 51.541 654.078 51.2145 653.862 50.7869C653.647 50.3561 653.539 49.8357 653.539 49.2259V44.3636H655.339V48.9474C655.339 49.4313 655.471 49.8158 655.736 50.1009C656.002 50.3859 656.35 50.5284 656.78 50.5284C657.046 50.5284 657.302 50.4638 657.551 50.3345C657.8 50.2053 658.003 50.013 658.163 49.7578C658.325 49.4993 658.406 49.1761 658.406 48.7884ZM662.057 52V44.3636H663.802V45.6364H663.881C664.02 45.1955 664.259 44.8558 664.597 44.6172C664.938 44.3752 665.328 44.2543 665.765 44.2543C665.865 44.2543 665.976 44.2592 666.098 44.2692C666.224 44.2758 666.329 44.2874 666.412 44.304V45.9595C666.335 45.933 666.214 45.9098 666.049 45.8899C665.886 45.8667 665.729 45.8551 665.576 45.8551C665.248 45.8551 664.953 45.9264 664.691 46.0689C664.433 46.2081 664.229 46.402 664.08 46.6506C663.931 46.8991 663.856 47.1858 663.856 47.5107V52H662.057ZM669.407 47.5256V52H667.607V44.3636H669.328V45.6612H669.417C669.593 45.2337 669.873 44.8939 670.257 44.642C670.645 44.3902 671.124 44.2642 671.694 44.2642C672.221 44.2642 672.68 44.3769 673.071 44.6023C673.466 44.8277 673.77 45.1541 673.986 45.5817C674.205 46.0092 674.312 46.5279 674.309 47.1378V52H672.509V47.4162C672.509 46.9058 672.377 46.5064 672.112 46.218C671.85 45.9297 671.487 45.7855 671.023 45.7855C670.708 45.7855 670.428 45.8551 670.183 45.9943C669.941 46.1302 669.75 46.3274 669.611 46.5859C669.475 46.8445 669.407 47.1577 669.407 47.5256ZM679.47 52.1491C678.724 52.1491 678.078 51.9851 677.531 51.657C676.984 51.3288 676.56 50.8698 676.258 50.2798C675.96 49.6899 675.81 49.0005 675.81 48.2116C675.81 47.4228 675.96 46.7318 676.258 46.1385C676.56 45.5452 676.984 45.0845 677.531 44.7564C678.078 44.4283 678.724 44.2642 679.47 44.2642C680.215 44.2642 680.862 44.4283 681.408 44.7564C681.955 45.0845 682.378 45.5452 682.676 46.1385C682.978 46.7318 683.129 47.4228 683.129 48.2116C683.129 49.0005 682.978 49.6899 682.676 50.2798C682.378 50.8698 681.955 51.3288 681.408 51.657C680.862 51.9851 680.215 52.1491 679.47 52.1491ZM679.479 50.7074C679.884 50.7074 680.222 50.5964 680.494 50.3743C680.765 50.1489 680.968 49.8473 681.1 49.4695C681.236 49.0916 681.304 48.6707 681.304 48.2067C681.304 47.7393 681.236 47.3168 681.1 46.9389C680.968 46.5578 680.765 46.2545 680.494 46.0291C680.222 45.8037 679.884 45.6911 679.479 45.6911C679.065 45.6911 678.72 45.8037 678.445 46.0291C678.174 46.2545 677.97 46.5578 677.834 46.9389C677.701 47.3168 677.635 47.7393 677.635 48.2067C677.635 48.6707 677.701 49.0916 677.834 49.4695C677.97 49.8473 678.174 50.1489 678.445 50.3743C678.72 50.5964 679.065 50.7074 679.479 50.7074ZM691.217 44.3636L688.498 52H686.509L683.79 44.3636H685.709L687.464 50.0362H687.543L689.303 44.3636H691.217ZM695.584 52.1491C694.818 52.1491 694.157 51.9901 693.6 51.6719C693.047 51.3504 692.621 50.8963 692.322 50.3097C692.024 49.7197 691.875 49.0253 691.875 48.2266C691.875 47.4411 692.024 46.7517 692.322 46.1584C692.624 45.5618 693.045 45.0978 693.585 44.7663C694.125 44.4316 694.76 44.2642 695.489 44.2642C695.96 44.2642 696.404 44.3404 696.822 44.4929C697.243 44.642 697.614 44.8741 697.935 45.1889C698.26 45.5038 698.515 45.9048 698.701 46.392C698.887 46.8759 698.979 47.4527 698.979 48.1222V48.674H692.72V47.4609H697.254C697.251 47.1162 697.176 46.8097 697.03 46.5412C696.885 46.2694 696.681 46.0556 696.419 45.8999C696.16 45.7441 695.859 45.6662 695.514 45.6662C695.146 45.6662 694.823 45.7557 694.545 45.9347C694.266 46.1103 694.049 46.3423 693.893 46.6307C693.741 46.9157 693.663 47.2289 693.66 47.5703V48.6293C693.66 49.0734 693.741 49.4545 693.903 49.7727C694.066 50.0876 694.293 50.3295 694.584 50.4986C694.876 50.6643 695.217 50.7472 695.609 50.7472C695.87 50.7472 696.107 50.7107 696.32 50.6378C696.532 50.5616 696.716 50.4505 696.871 50.3047C697.027 50.1589 697.145 49.9782 697.224 49.7628L698.905 49.9517C698.799 50.3958 698.597 50.7836 698.298 51.1151C698.003 51.4432 697.625 51.6984 697.165 51.8807C696.704 52.0597 696.177 52.1491 695.584 52.1491ZM700.502 52V44.3636H702.247V45.6364H702.326C702.466 45.1955 702.704 44.8558 703.042 44.6172C703.384 44.3752 703.773 44.2543 704.211 44.2543C704.31 44.2543 704.421 44.2592 704.544 44.2692C704.67 44.2758 704.774 44.2874 704.857 44.304V45.9595C704.781 45.933 704.66 45.9098 704.494 45.8899C704.332 45.8667 704.174 45.8551 704.022 45.8551C703.694 45.8551 703.399 45.9264 703.137 46.0689C702.878 46.2081 702.674 46.402 702.525 46.6506C702.376 46.8991 702.302 47.1858 702.302 47.5107V52H700.502ZM709.525 52V44.3636H711.27V45.6364H711.35C711.489 45.1955 711.728 44.8558 712.066 44.6172C712.407 44.3752 712.797 44.2543 713.234 44.2543C713.334 44.2543 713.445 44.2592 713.567 44.2692C713.693 44.2758 713.798 44.2874 713.88 44.304V45.9595C713.804 45.933 713.683 45.9098 713.517 45.8899C713.355 45.8667 713.198 45.8551 713.045 45.8551C712.717 45.8551 712.422 45.9264 712.16 46.0689C711.902 46.2081 711.698 46.402 711.549 46.6506C711.4 46.8991 711.325 47.1858 711.325 47.5107V52H709.525ZM717.137 52.1541C716.653 52.1541 716.217 52.0679 715.829 51.8956C715.445 51.7199 715.14 51.4614 714.915 51.12C714.692 50.7786 714.581 50.3577 714.581 49.8572C714.581 49.4264 714.661 49.0701 714.82 48.7884C714.979 48.5066 715.196 48.2812 715.471 48.1122C715.746 47.9432 716.056 47.8156 716.401 47.7294C716.749 47.6399 717.109 47.5753 717.48 47.5355C717.927 47.4891 718.29 47.4477 718.569 47.4112C718.847 47.3714 719.049 47.3118 719.175 47.2322C719.304 47.1494 719.369 47.0218 719.369 46.8494V46.8196C719.369 46.4451 719.258 46.1551 719.036 45.9496C718.814 45.7441 718.494 45.6413 718.076 45.6413C717.636 45.6413 717.286 45.7375 717.027 45.9297C716.772 46.1219 716.6 46.349 716.51 46.6108L714.83 46.3722C714.963 45.9081 715.181 45.5204 715.486 45.2088C715.791 44.8939 716.164 44.6586 716.605 44.5028C717.046 44.3438 717.533 44.2642 718.066 44.2642C718.434 44.2642 718.801 44.3073 719.165 44.3935C719.53 44.4796 719.863 44.6222 720.165 44.821C720.466 45.0166 720.708 45.2834 720.89 45.6214C721.076 45.9595 721.169 46.3821 721.169 46.8892V52H719.439V50.951H719.379C719.27 51.1631 719.116 51.362 718.917 51.5476C718.721 51.7299 718.474 51.8774 718.176 51.9901C717.881 52.0994 717.535 52.1541 717.137 52.1541ZM717.604 50.8317C717.965 50.8317 718.279 50.7604 718.544 50.6179C718.809 50.4721 719.013 50.2798 719.155 50.0412C719.301 49.8026 719.374 49.5424 719.374 49.2607V48.3608C719.318 48.4072 719.222 48.4503 719.086 48.4901C718.953 48.5298 718.804 48.5646 718.638 48.5945C718.473 48.6243 718.308 48.6508 718.146 48.674C717.984 48.6972 717.843 48.7171 717.723 48.7337C717.455 48.7701 717.215 48.8298 717.003 48.9126C716.79 48.9955 716.623 49.1115 716.5 49.2607C716.378 49.4065 716.316 49.5954 716.316 49.8274C716.316 50.1589 716.437 50.4091 716.679 50.5781C716.921 50.7472 717.23 50.8317 717.604 50.8317ZM726.792 44.3636V45.7557H722.402V44.3636H726.792ZM723.486 42.5341H725.285V49.7031C725.285 49.9451 725.322 50.1307 725.395 50.2599C725.471 50.3859 725.57 50.4721 725.693 50.5185C725.816 50.5649 725.951 50.5881 726.101 50.5881C726.213 50.5881 726.316 50.5798 726.409 50.5632C726.505 50.5466 726.578 50.5317 726.628 50.5185L726.931 51.9254C726.835 51.9586 726.697 51.995 726.518 52.0348C726.343 52.0746 726.127 52.0978 725.872 52.1044C725.421 52.1177 725.015 52.0497 724.654 51.9006C724.293 51.7481 724.006 51.5128 723.794 51.1946C723.585 50.8764 723.482 50.4787 723.486 50.0014V42.5341ZM731.595 52.1491C730.83 52.1491 730.169 51.9901 729.612 51.6719C729.058 51.3504 728.632 50.8963 728.334 50.3097C728.036 49.7197 727.887 49.0253 727.887 48.2266C727.887 47.4411 728.036 46.7517 728.334 46.1584C728.636 45.5618 729.057 45.0978 729.597 44.7663C730.137 44.4316 730.772 44.2642 731.501 44.2642C731.972 44.2642 732.416 44.3404 732.833 44.4929C733.254 44.642 733.626 44.8741 733.947 45.1889C734.272 45.5038 734.527 45.9048 734.713 46.392C734.898 46.8759 734.991 47.4527 734.991 48.1222V48.674H728.732V47.4609H733.266C733.263 47.1162 733.188 46.8097 733.042 46.5412C732.896 46.2694 732.693 46.0556 732.431 45.8999C732.172 45.7441 731.871 45.6662 731.526 45.6662C731.158 45.6662 730.835 45.7557 730.556 45.9347C730.278 46.1103 730.061 46.3423 729.905 46.6307C729.753 46.9157 729.675 47.2289 729.671 47.5703V48.6293C729.671 49.0734 729.753 49.4545 729.915 49.7727C730.077 50.0876 730.304 50.3295 730.596 50.4986C730.888 50.6643 731.229 50.7472 731.62 50.7472C731.882 50.7472 732.119 50.7107 732.331 50.6378C732.543 50.5616 732.727 50.4505 732.883 50.3047C733.039 50.1589 733.157 49.9782 733.236 49.7628L734.916 49.9517C734.81 50.3958 734.608 50.7836 734.31 51.1151C734.015 51.4432 733.637 51.6984 733.176 51.8807C732.716 52.0597 732.189 52.1491 731.595 52.1491Z" fill="white"/>
<path d="M37.6435 107.273V116H36.5866V108.381H36.5355L34.4048 109.795V108.722L36.5866 107.273H37.6435ZM43 116.119C42.358 116.119 41.8111 115.945 41.3594 115.595C40.9077 115.243 40.5625 114.733 40.3239 114.065C40.0852 113.395 39.9659 112.585 39.9659 111.636C39.9659 110.693 40.0852 109.888 40.3239 109.22C40.5653 108.55 40.9119 108.038 41.3636 107.686C41.8182 107.331 42.3636 107.153 43 107.153C43.6364 107.153 44.1804 107.331 44.6321 107.686C45.0866 108.038 45.4332 108.55 45.6719 109.22C45.9134 109.888 46.0341 110.693 46.0341 111.636C46.0341 112.585 45.9148 113.395 45.6761 114.065C45.4375 114.733 45.0923 115.243 44.6406 115.595C44.1889 115.945 43.642 116.119 43 116.119ZM43 115.182C43.6364 115.182 44.1307 114.875 44.483 114.261C44.8352 113.648 45.0114 112.773 45.0114 111.636C45.0114 110.881 44.9304 110.237 44.7685 109.706C44.6094 109.175 44.3793 108.77 44.0781 108.491C43.7798 108.213 43.4205 108.074 43 108.074C42.3693 108.074 41.8764 108.385 41.5213 109.007C41.1662 109.626 40.9886 110.503 40.9886 111.636C40.9886 112.392 41.0682 113.034 41.2273 113.562C41.3864 114.091 41.6151 114.493 41.9134 114.768C42.2145 115.044 42.5767 115.182 43 115.182ZM50.5 116.119C49.858 116.119 49.3111 115.945 48.8594 115.595C48.4077 115.243 48.0625 114.733 47.8239 114.065C47.5852 113.395 47.4659 112.585 47.4659 111.636C47.4659 110.693 47.5852 109.888 47.8239 109.22C48.0653 108.55 48.4119 108.038 48.8636 107.686C49.3182 107.331 49.8636 107.153 50.5 107.153C51.1364 107.153 51.6804 107.331 52.1321 107.686C52.5866 108.038 52.9332 108.55 53.1719 109.22C53.4134 109.888 53.5341 110.693 53.5341 111.636C53.5341 112.585 53.4148 113.395 53.1761 114.065C52.9375 114.733 52.5923 115.243 52.1406 115.595C51.6889 115.945 51.142 116.119 50.5 116.119ZM50.5 115.182C51.1364 115.182 51.6307 114.875 51.983 114.261C52.3352 113.648 52.5114 112.773 52.5114 111.636C52.5114 110.881 52.4304 110.237 52.2685 109.706C52.1094 109.175 51.8793 108.77 51.5781 108.491C51.2798 108.213 50.9205 108.074 50.5 108.074C49.8693 108.074 49.3764 108.385 49.0213 109.007C48.6662 109.626 48.4886 110.503 48.4886 111.636C48.4886 112.392 48.5682 113.034 48.7273 113.562C48.8864 114.091 49.1151 114.493 49.4134 114.768C49.7145 115.044 50.0767 115.182 50.5 115.182ZM59.6023 114.364V113.903C59.6023 113.585 59.6676 113.294 59.7983 113.03C59.9318 112.763 60.125 112.55 60.3778 112.391C60.6335 112.229 60.9432 112.148 61.3068 112.148C61.6761 112.148 61.9858 112.229 62.2358 112.391C62.4858 112.55 62.6747 112.763 62.8026 113.03C62.9304 113.294 62.9943 113.585 62.9943 113.903V114.364C62.9943 114.682 62.929 114.974 62.7983 115.241C62.6705 115.506 62.4801 115.719 62.2273 115.881C61.9773 116.04 61.6705 116.119 61.3068 116.119C60.9375 116.119 60.6264 116.04 60.3736 115.881C60.1207 115.719 59.929 115.506 59.7983 115.241C59.6676 114.974 59.6023 114.682 59.6023 114.364ZM60.4716 113.903V114.364C60.4716 114.628 60.5341 114.865 60.6591 115.075C60.7841 115.283 61 115.386 61.3068 115.386C61.6051 115.386 61.8153 115.283 61.9375 115.075C62.0625 114.865 62.125 114.628 62.125 114.364V113.903C62.125 113.639 62.0653 113.403 61.946 113.196C61.8267 112.986 61.6136 112.881 61.3068 112.881C61.0085 112.881 60.794 112.986 60.6634 113.196C60.5355 113.403 60.4716 113.639 60.4716 113.903ZM55.2557 109.369V108.909C55.2557 108.591 55.321 108.3 55.4517 108.036C55.5852 107.768 55.7784 107.555 56.0312 107.396C56.2869 107.234 56.5966 107.153 56.9602 107.153C57.3295 107.153 57.6392 107.234 57.8892 107.396C58.1392 107.555 58.3281 107.768 58.456 108.036C58.5838 108.3 58.6477 108.591 58.6477 108.909V109.369C58.6477 109.687 58.5824 109.98 58.4517 110.247C58.3239 110.511 58.1335 110.724 57.8807 110.886C57.6307 111.045 57.3239 111.125 56.9602 111.125C56.5909 111.125 56.2798 111.045 56.027 110.886C55.7741 110.724 55.5824 110.511 55.4517 110.247C55.321 109.98 55.2557 109.687 55.2557 109.369ZM56.125 108.909V109.369C56.125 109.634 56.1875 109.871 56.3125 110.081C56.4375 110.288 56.6534 110.392 56.9602 110.392C57.2585 110.392 57.4688 110.288 57.5909 110.081C57.7159 109.871 57.7784 109.634 57.7784 109.369V108.909C57.7784 108.645 57.7188 108.409 57.5994 108.202C57.4801 107.991 57.267 107.886 56.9602 107.886C56.6619 107.886 56.4474 107.991 56.3168 108.202C56.1889 108.409 56.125 108.645 56.125 108.909ZM55.5795 116L61.5795 107.273H62.5511L56.5511 116H55.5795Z" fill="#A6A1A9"/>
<rect width="678" height="1" transform="translate(72 111.5)" fill="url(#paint2_linear_110_26827)" fill-opacity="0.1"/>
<path d="M43.0543 141.519C42.4691 141.519 41.9521 141.416 41.5032 141.208C41.0572 140.998 40.7092 140.71 40.4592 140.343C40.2092 139.974 40.0856 139.553 40.0884 139.082C40.0856 138.712 40.158 138.371 40.3058 138.059C40.4535 137.744 40.6552 137.481 40.9109 137.271C41.1694 137.058 41.4577 136.923 41.7759 136.866V136.815C41.3583 136.707 41.0259 136.472 40.7788 136.112C40.5316 135.748 40.4094 135.335 40.4123 134.871C40.4094 134.428 40.5217 134.032 40.7489 133.683C40.9762 133.333 41.2887 133.058 41.6864 132.856C42.087 132.654 42.543 132.553 43.0543 132.553C43.56 132.553 44.0117 132.654 44.4094 132.856C44.8072 133.058 45.1197 133.333 45.3469 133.683C45.5771 134.032 45.6935 134.428 45.6964 134.871C45.6935 135.335 45.5671 135.748 45.3171 136.112C45.07 136.472 44.7418 136.707 44.3327 136.815V136.866C44.6481 136.923 44.9322 137.058 45.185 137.271C45.4379 137.481 45.6396 137.744 45.7901 138.059C45.9407 138.371 46.0174 138.712 46.0202 139.082C46.0174 139.553 45.8896 139.974 45.6367 140.343C45.3867 140.71 45.0387 140.998 44.5927 141.208C44.1495 141.416 43.6367 141.519 43.0543 141.519ZM43.0543 140.582C43.4492 140.582 43.7901 140.518 44.0771 140.39C44.364 140.262 44.5856 140.082 44.7418 139.849C44.8981 139.616 44.9776 139.343 44.9805 139.031C44.9776 138.701 44.8924 138.41 44.7248 138.157C44.5572 137.904 44.3285 137.705 44.0387 137.56C43.7518 137.416 43.4237 137.343 43.0543 137.343C42.6822 137.343 42.3498 137.416 42.0572 137.56C41.7674 137.705 41.5387 137.904 41.3711 138.157C41.2063 138.41 41.1254 138.701 41.1282 139.031C41.1254 139.343 41.2006 139.616 41.354 139.849C41.5103 140.082 41.7333 140.262 42.0231 140.39C42.3129 140.518 42.6566 140.582 43.0543 140.582ZM43.0543 136.44C43.3668 136.44 43.6438 136.377 43.8853 136.252C44.1296 136.127 44.3214 135.952 44.4606 135.728C44.5998 135.504 44.6708 135.241 44.6737 134.94C44.6708 134.644 44.6012 134.387 44.4648 134.168C44.3285 133.947 44.1396 133.776 43.8981 133.657C43.6566 133.535 43.3754 133.474 43.0543 133.474C42.7276 133.474 42.4421 133.535 42.1978 133.657C41.9535 133.776 41.7646 133.947 41.631 134.168C41.4975 134.387 41.4322 134.644 41.435 134.94C41.4322 135.241 41.4989 135.504 41.6353 135.728C41.7745 135.952 41.9663 136.127 42.2106 136.252C42.4549 136.377 42.7362 136.44 43.0543 136.44ZM50.5 141.519C49.858 141.519 49.3111 141.345 48.8594 140.995C48.4077 140.643 48.0625 140.133 47.8239 139.465C47.5852 138.795 47.4659 137.985 47.4659 137.036C47.4659 136.093 47.5852 135.288 47.8239 134.62C48.0653 133.95 48.4119 133.438 48.8636 133.086C49.3182 132.731 49.8636 132.553 50.5 132.553C51.1364 132.553 51.6804 132.731 52.1321 133.086C52.5866 133.438 52.9332 133.95 53.1719 134.62C53.4134 135.288 53.5341 136.093 53.5341 137.036C53.5341 137.985 53.4148 138.795 53.1761 139.465C52.9375 140.133 52.5923 140.643 52.1406 140.995C51.6889 141.345 51.142 141.519 50.5 141.519ZM50.5 140.582C51.1364 140.582 51.6307 140.275 51.983 139.661C52.3352 139.048 52.5114 138.173 52.5114 137.036C52.5114 136.281 52.4304 135.637 52.2685 135.106C52.1094 134.575 51.8793 134.17 51.5781 133.891C51.2798 133.613 50.9205 133.474 50.5 133.474C49.8693 133.474 49.3764 133.785 49.0213 134.407C48.6662 135.026 48.4886 135.903 48.4886 137.036C48.4886 137.792 48.5682 138.434 48.7273 138.962C48.8864 139.491 49.1151 139.893 49.4134 140.168C49.7145 140.444 50.0767 140.582 50.5 140.582ZM59.6023 139.764V139.303C59.6023 138.985 59.6676 138.694 59.7983 138.43C59.9318 138.163 60.125 137.95 60.3778 137.791C60.6335 137.629 60.9432 137.548 61.3068 137.548C61.6761 137.548 61.9858 137.629 62.2358 137.791C62.4858 137.95 62.6747 138.163 62.8026 138.43C62.9304 138.694 62.9943 138.985 62.9943 139.303V139.764C62.9943 140.082 62.929 140.374 62.7983 140.641C62.6705 140.906 62.4801 141.119 62.2273 141.281C61.9773 141.44 61.6705 141.519 61.3068 141.519C60.9375 141.519 60.6264 141.44 60.3736 141.281C60.1207 141.119 59.929 140.906 59.7983 140.641C59.6676 140.374 59.6023 140.082 59.6023 139.764ZM60.4716 139.303V139.764C60.4716 140.028 60.5341 140.265 60.6591 140.475C60.7841 140.683 61 140.786 61.3068 140.786C61.6051 140.786 61.8153 140.683 61.9375 140.475C62.0625 140.265 62.125 140.028 62.125 139.764V139.303C62.125 139.039 62.0653 138.803 61.946 138.596C61.8267 138.386 61.6136 138.281 61.3068 138.281C61.0085 138.281 60.794 138.386 60.6634 138.596C60.5355 138.803 60.4716 139.039 60.4716 139.303ZM55.2557 134.769V134.309C55.2557 133.991 55.321 133.7 55.4517 133.435C55.5852 133.168 55.7784 132.955 56.0312 132.796C56.2869 132.634 56.5966 132.553 56.9602 132.553C57.3295 132.553 57.6392 132.634 57.8892 132.796C58.1392 132.955 58.3281 133.168 58.456 133.435C58.5838 133.7 58.6477 133.991 58.6477 134.309V134.769C58.6477 135.087 58.5824 135.38 58.4517 135.647C58.3239 135.911 58.1335 136.124 57.8807 136.286C57.6307 136.445 57.3239 136.525 56.9602 136.525C56.5909 136.525 56.2798 136.445 56.027 136.286C55.7741 136.124 55.5824 135.911 55.4517 135.647C55.321 135.38 55.2557 135.087 55.2557 134.769ZM56.125 134.309V134.769C56.125 135.033 56.1875 135.271 56.3125 135.481C56.4375 135.688 56.6534 135.792 56.9602 135.792C57.2585 135.792 57.4688 135.688 57.5909 135.481C57.7159 135.271 57.7784 135.033 57.7784 134.769V134.309C57.7784 134.045 57.7188 133.809 57.5994 133.602C57.4801 133.391 57.267 133.286 56.9602 133.286C56.6619 133.286 56.4474 133.391 56.3168 133.602C56.1889 133.809 56.125 134.045 56.125 134.309ZM55.5795 141.4L61.5795 132.673H62.5511L56.5511 141.4H55.5795Z" fill="#A6A1A9"/>
<rect width="678" height="1" transform="translate(72 136.9)" fill="url(#paint3_linear_110_26827)" fill-opacity="0.1"/>
<path d="M43.0629 166.919C42.7049 166.914 42.3469 166.846 41.989 166.715C41.631 166.584 41.3043 166.364 41.0089 166.054C40.7134 165.742 40.4762 165.32 40.2972 164.789C40.1183 164.255 40.0288 163.584 40.0288 162.777C40.0288 162.005 40.1012 161.32 40.2461 160.723C40.391 160.124 40.6012 159.62 40.8768 159.211C41.1523 158.799 41.4847 158.486 41.8739 158.273C42.266 158.06 42.7077 157.953 43.1992 157.953C43.6879 157.953 44.1225 158.051 44.5032 158.247C44.8867 158.441 45.1992 158.711 45.4407 159.057C45.6822 159.404 45.8384 159.803 45.9094 160.255H44.8697C44.7731 159.863 44.5856 159.537 44.3072 159.279C44.0288 159.02 43.6594 158.891 43.1992 158.891C42.5231 158.891 41.9904 159.185 41.6012 159.773C41.2148 160.361 41.0202 161.186 41.0174 162.249H41.0856C41.2447 162.007 41.4336 161.801 41.6523 161.631C41.8739 161.458 42.1183 161.324 42.3853 161.23C42.6523 161.137 42.935 161.09 43.2333 161.09C43.7333 161.09 44.1907 161.215 44.6055 161.465C45.0202 161.712 45.3526 162.054 45.6026 162.492C45.8526 162.926 45.9776 163.425 45.9776 163.988C45.9776 164.527 45.8569 165.022 45.6154 165.471C45.3739 165.917 45.0344 166.272 44.5969 166.536C44.1623 166.797 43.6509 166.925 43.0629 166.919ZM43.0629 165.982C43.4208 165.982 43.7418 165.892 44.0259 165.713C44.3129 165.534 44.5387 165.294 44.7035 164.993C44.8711 164.692 44.9549 164.357 44.9549 163.988C44.9549 163.627 44.8739 163.299 44.712 163.003C44.5529 162.705 44.3327 162.468 44.0515 162.292C43.7731 162.115 43.4549 162.027 43.0969 162.027C42.8271 162.027 42.5756 162.081 42.3427 162.189C42.1097 162.294 41.9052 162.439 41.729 162.624C41.5558 162.809 41.4194 163.02 41.32 163.259C41.2205 163.495 41.1708 163.743 41.1708 164.005C41.1708 164.351 41.2518 164.675 41.4137 164.976C41.5785 165.277 41.8029 165.52 42.087 165.705C42.3739 165.89 42.6992 165.982 43.0629 165.982ZM50.5 166.919C49.858 166.919 49.3111 166.745 48.8594 166.395C48.4077 166.043 48.0625 165.533 47.8239 164.865C47.5852 164.195 47.4659 163.385 47.4659 162.436C47.4659 161.493 47.5852 160.688 47.8239 160.02C48.0653 159.35 48.4119 158.838 48.8636 158.486C49.3182 158.131 49.8636 157.953 50.5 157.953C51.1364 157.953 51.6804 158.131 52.1321 158.486C52.5866 158.838 52.9332 159.35 53.1719 160.02C53.4134 160.688 53.5341 161.493 53.5341 162.436C53.5341 163.385 53.4148 164.195 53.1761 164.865C52.9375 165.533 52.5923 166.043 52.1406 166.395C51.6889 166.745 51.142 166.919 50.5 166.919ZM50.5 165.982C51.1364 165.982 51.6307 165.675 51.983 165.061C52.3352 164.448 52.5114 163.573 52.5114 162.436C52.5114 161.681 52.4304 161.037 52.2685 160.506C52.1094 159.975 51.8793 159.57 51.5781 159.292C51.2798 159.013 50.9205 158.874 50.5 158.874C49.8693 158.874 49.3764 159.185 49.0213 159.807C48.6662 160.426 48.4886 161.303 48.4886 162.436C48.4886 163.192 48.5682 163.834 48.7273 164.363C48.8864 164.891 49.1151 165.293 49.4134 165.569C49.7145 165.844 50.0767 165.982 50.5 165.982ZM59.6023 165.164V164.703C59.6023 164.385 59.6676 164.094 59.7983 163.83C59.9318 163.563 60.125 163.35 60.3778 163.191C60.6335 163.029 60.9432 162.948 61.3068 162.948C61.6761 162.948 61.9858 163.029 62.2358 163.191C62.4858 163.35 62.6747 163.563 62.8026 163.83C62.9304 164.094 62.9943 164.385 62.9943 164.703V165.164C62.9943 165.482 62.929 165.774 62.7983 166.042C62.6705 166.306 62.4801 166.519 62.2273 166.681C61.9773 166.84 61.6705 166.919 61.3068 166.919C60.9375 166.919 60.6264 166.84 60.3736 166.681C60.1207 166.519 59.929 166.306 59.7983 166.042C59.6676 165.774 59.6023 165.482 59.6023 165.164ZM60.4716 164.703V165.164C60.4716 165.428 60.5341 165.665 60.6591 165.875C60.7841 166.083 61 166.186 61.3068 166.186C61.6051 166.186 61.8153 166.083 61.9375 165.875C62.0625 165.665 62.125 165.428 62.125 165.164V164.703C62.125 164.439 62.0653 164.203 61.946 163.996C61.8267 163.786 61.6136 163.681 61.3068 163.681C61.0085 163.681 60.794 163.786 60.6634 163.996C60.5355 164.203 60.4716 164.439 60.4716 164.703ZM55.2557 160.169V159.709C55.2557 159.391 55.321 159.1 55.4517 158.836C55.5852 158.569 55.7784 158.355 56.0312 158.196C56.2869 158.034 56.5966 157.953 56.9602 157.953C57.3295 157.953 57.6392 158.034 57.8892 158.196C58.1392 158.355 58.3281 158.569 58.456 158.836C58.5838 159.1 58.6477 159.391 58.6477 159.709V160.169C58.6477 160.488 58.5824 160.78 58.4517 161.047C58.3239 161.311 58.1335 161.524 57.8807 161.686C57.6307 161.846 57.3239 161.925 56.9602 161.925C56.5909 161.925 56.2798 161.846 56.027 161.686C55.7741 161.524 55.5824 161.311 55.4517 161.047C55.321 160.78 55.2557 160.488 55.2557 160.169ZM56.125 159.709V160.169C56.125 160.434 56.1875 160.671 56.3125 160.881C56.4375 161.088 56.6534 161.192 56.9602 161.192C57.2585 161.192 57.4688 161.088 57.5909 160.881C57.7159 160.671 57.7784 160.434 57.7784 160.169V159.709C57.7784 159.445 57.7188 159.209 57.5994 159.002C57.4801 158.792 57.267 158.686 56.9602 158.686C56.6619 158.686 56.4474 158.792 56.3168 159.002C56.1889 159.209 56.125 159.445 56.125 159.709ZM55.5795 166.8L61.5795 158.073H62.5511L56.5511 166.8H55.5795Z" fill="#A6A1A9"/>
<rect width="678" height="1" transform="translate(72 162.3)" fill="url(#paint4_linear_110_26827)" fill-opacity="0.1"/>
<path d="M39.7496 190.41V189.541L43.5849 183.473H44.2156V184.819H43.7894L40.8917 189.404V189.473H46.0565V190.41H39.7496ZM43.8576 192.2V190.146V189.741V183.473H44.8633V192.2H43.8576ZM50.5 192.319C49.858 192.319 49.3111 192.145 48.8594 191.795C48.4077 191.443 48.0625 190.933 47.8239 190.265C47.5852 189.595 47.4659 188.785 47.4659 187.836C47.4659 186.893 47.5852 186.088 47.8239 185.42C48.0653 184.75 48.4119 184.238 48.8636 183.886C49.3182 183.531 49.8636 183.353 50.5 183.353C51.1364 183.353 51.6804 183.531 52.1321 183.886C52.5866 184.238 52.9332 184.75 53.1719 185.42C53.4134 186.088 53.5341 186.893 53.5341 187.836C53.5341 188.785 53.4148 189.595 53.1761 190.265C52.9375 190.933 52.5923 191.443 52.1406 191.795C51.6889 192.145 51.142 192.319 50.5 192.319ZM50.5 191.382C51.1364 191.382 51.6307 191.075 51.983 190.461C52.3352 189.848 52.5114 188.973 52.5114 187.836C52.5114 187.081 52.4304 186.437 52.2685 185.906C52.1094 185.375 51.8793 184.97 51.5781 184.691C51.2798 184.413 50.9205 184.274 50.5 184.274C49.8693 184.274 49.3764 184.585 49.0213 185.207C48.6662 185.826 48.4886 186.703 48.4886 187.836C48.4886 188.592 48.5682 189.234 48.7273 189.762C48.8864 190.291 49.1151 190.693 49.4134 190.968C49.7145 191.244 50.0767 191.382 50.5 191.382ZM59.6023 190.564V190.103C59.6023 189.785 59.6676 189.494 59.7983 189.23C59.9318 188.963 60.125 188.75 60.3778 188.591C60.6335 188.429 60.9432 188.348 61.3068 188.348C61.6761 188.348 61.9858 188.429 62.2358 188.591C62.4858 188.75 62.6747 188.963 62.8026 189.23C62.9304 189.494 62.9943 189.785 62.9943 190.103V190.564C62.9943 190.882 62.929 191.174 62.7983 191.441C62.6705 191.706 62.4801 191.919 62.2273 192.081C61.9773 192.24 61.6705 192.319 61.3068 192.319C60.9375 192.319 60.6264 192.24 60.3736 192.081C60.1207 191.919 59.929 191.706 59.7983 191.441C59.6676 191.174 59.6023 190.882 59.6023 190.564ZM60.4716 190.103V190.564C60.4716 190.828 60.5341 191.065 60.6591 191.275C60.7841 191.483 61 191.586 61.3068 191.586C61.6051 191.586 61.8153 191.483 61.9375 191.275C62.0625 191.065 62.125 190.828 62.125 190.564V190.103C62.125 189.839 62.0653 189.603 61.946 189.396C61.8267 189.186 61.6136 189.081 61.3068 189.081C61.0085 189.081 60.794 189.186 60.6634 189.396C60.5355 189.603 60.4716 189.839 60.4716 190.103ZM55.2557 185.569V185.109C55.2557 184.791 55.321 184.5 55.4517 184.235C55.5852 183.968 55.7784 183.755 56.0312 183.596C56.2869 183.434 56.5966 183.353 56.9602 183.353C57.3295 183.353 57.6392 183.434 57.8892 183.596C58.1392 183.755 58.3281 183.968 58.456 184.235C58.5838 184.5 58.6477 184.791 58.6477 185.109V185.569C58.6477 185.887 58.5824 186.18 58.4517 186.447C58.3239 186.711 58.1335 186.924 57.8807 187.086C57.6307 187.245 57.3239 187.325 56.9602 187.325C56.5909 187.325 56.2798 187.245 56.027 187.086C55.7741 186.924 55.5824 186.711 55.4517 186.447C55.321 186.18 55.2557 185.887 55.2557 185.569ZM56.125 185.109V185.569C56.125 185.833 56.1875 186.071 56.3125 186.281C56.4375 186.488 56.6534 186.592 56.9602 186.592C57.2585 186.592 57.4688 186.488 57.5909 186.281C57.7159 186.071 57.7784 185.833 57.7784 185.569V185.109C57.7784 184.845 57.7188 184.609 57.5994 184.402C57.4801 184.191 57.267 184.086 56.9602 184.086C56.6619 184.086 56.4474 184.191 56.3168 184.402C56.1889 184.609 56.125 184.845 56.125 185.109ZM55.5795 192.2L61.5795 183.473H62.5511L56.5511 192.2H55.5795Z" fill="#A6A1A9"/>
<rect width="678" height="1" transform="translate(72 187.7)" fill="url(#paint5_linear_110_26827)" fill-opacity="0.1"/>
<path d="M40.3878 217.6V216.833L43.2685 213.68C43.6065 213.31 43.8849 212.989 44.1037 212.717C44.3224 212.441 44.4844 212.182 44.5895 211.941C44.6974 211.697 44.7514 211.441 44.7514 211.174C44.7514 210.867 44.6776 210.602 44.5298 210.377C44.3849 210.153 44.1861 209.979 43.9332 209.857C43.6804 209.735 43.3963 209.674 43.081 209.674C42.7457 209.674 42.4531 209.744 42.2031 209.883C41.956 210.019 41.7642 210.211 41.6278 210.458C41.4943 210.705 41.4276 210.995 41.4276 211.327H40.4219C40.4219 210.816 40.5398 210.367 40.7756 209.981C41.0114 209.594 41.3324 209.293 41.7386 209.077C42.1477 208.861 42.6065 208.754 43.1151 208.754C43.6264 208.754 44.0795 208.861 44.4744 209.077C44.8693 209.293 45.179 209.584 45.4034 209.951C45.6278 210.317 45.7401 210.725 45.7401 211.174C45.7401 211.495 45.6818 211.809 45.5653 212.116C45.4517 212.42 45.2528 212.759 44.9688 213.134C44.6875 213.506 44.2969 213.961 43.7969 214.498L41.8366 216.594V216.663H45.8935V217.6H40.3878ZM50.5 217.719C49.858 217.719 49.3111 217.545 48.8594 217.195C48.4077 216.843 48.0625 216.333 47.8239 215.665C47.5852 214.995 47.4659 214.185 47.4659 213.236C47.4659 212.293 47.5852 211.488 47.8239 210.82C48.0653 210.15 48.4119 209.638 48.8636 209.286C49.3182 208.931 49.8636 208.754 50.5 208.754C51.1364 208.754 51.6804 208.931 52.1321 209.286C52.5866 209.638 52.9332 210.15 53.1719 210.82C53.4134 211.488 53.5341 212.293 53.5341 213.236C53.5341 214.185 53.4148 214.995 53.1761 215.665C52.9375 216.333 52.5923 216.843 52.1406 217.195C51.6889 217.545 51.142 217.719 50.5 217.719ZM50.5 216.782C51.1364 216.782 51.6307 216.475 51.983 215.861C52.3352 215.248 52.5114 214.373 52.5114 213.236C52.5114 212.481 52.4304 211.837 52.2685 211.306C52.1094 210.775 51.8793 210.37 51.5781 210.092C51.2798 209.813 50.9205 209.674 50.5 209.674C49.8693 209.674 49.3764 209.985 49.0213 210.607C48.6662 211.227 48.4886 212.103 48.4886 213.236C48.4886 213.992 48.5682 214.634 48.7273 215.163C48.8864 215.691 49.1151 216.093 49.4134 216.369C49.7145 216.644 50.0767 216.782 50.5 216.782ZM59.6023 215.964V215.504C59.6023 215.185 59.6676 214.894 59.7983 214.63C59.9318 214.363 60.125 214.15 60.3778 213.991C60.6335 213.829 60.9432 213.748 61.3068 213.748C61.6761 213.748 61.9858 213.829 62.2358 213.991C62.4858 214.15 62.6747 214.363 62.8026 214.63C62.9304 214.894 62.9943 215.185 62.9943 215.504V215.964C62.9943 216.282 62.929 216.575 62.7983 216.842C62.6705 217.106 62.4801 217.319 62.2273 217.481C61.9773 217.64 61.6705 217.719 61.3068 217.719C60.9375 217.719 60.6264 217.64 60.3736 217.481C60.1207 217.319 59.929 217.106 59.7983 216.842C59.6676 216.575 59.6023 216.282 59.6023 215.964ZM60.4716 215.504V215.964C60.4716 216.228 60.5341 216.465 60.6591 216.675C60.7841 216.883 61 216.986 61.3068 216.986C61.6051 216.986 61.8153 216.883 61.9375 216.675C62.0625 216.465 62.125 216.228 62.125 215.964V215.504C62.125 215.239 62.0653 215.004 61.946 214.796C61.8267 214.586 61.6136 214.481 61.3068 214.481C61.0085 214.481 60.794 214.586 60.6634 214.796C60.5355 215.004 60.4716 215.239 60.4716 215.504ZM55.2557 210.969V210.509C55.2557 210.191 55.321 209.9 55.4517 209.636C55.5852 209.369 55.7784 209.155 56.0312 208.996C56.2869 208.834 56.5966 208.754 56.9602 208.754C57.3295 208.754 57.6392 208.834 57.8892 208.996C58.1392 209.155 58.3281 209.369 58.456 209.636C58.5838 209.9 58.6477 210.191 58.6477 210.509V210.969C58.6477 211.288 58.5824 211.58 58.4517 211.847C58.3239 212.111 58.1335 212.325 57.8807 212.486C57.6307 212.646 57.3239 212.725 56.9602 212.725C56.5909 212.725 56.2798 212.646 56.027 212.486C55.7741 212.325 55.5824 212.111 55.4517 211.847C55.321 211.58 55.2557 211.288 55.2557 210.969ZM56.125 210.509V210.969C56.125 211.234 56.1875 211.471 56.3125 211.681C56.4375 211.888 56.6534 211.992 56.9602 211.992C57.2585 211.992 57.4688 211.888 57.5909 211.681C57.7159 211.471 57.7784 211.234 57.7784 210.969V210.509C57.7784 210.245 57.7188 210.009 57.5994 209.802C57.4801 209.592 57.267 209.486 56.9602 209.486C56.6619 209.486 56.4474 209.592 56.3168 209.802C56.1889 210.009 56.125 210.245 56.125 210.509ZM55.5795 217.6L61.5795 208.873H62.5511L56.5511 217.6H55.5795Z" fill="#A6A1A9"/>
<rect width="678" height="1" transform="translate(72 213.1)" fill="url(#paint6_linear_110_26827)" fill-opacity="0.1"/>
<path d="M50.5 243.119C49.858 243.119 49.3111 242.945 48.8594 242.595C48.4077 242.243 48.0625 241.733 47.8239 241.065C47.5852 240.395 47.4659 239.585 47.4659 238.636C47.4659 237.693 47.5852 236.888 47.8239 236.22C48.0653 235.55 48.4119 235.038 48.8636 234.686C49.3182 234.331 49.8636 234.153 50.5 234.153C51.1364 234.153 51.6804 234.331 52.1321 234.686C52.5866 235.038 52.9332 235.55 53.1719 236.22C53.4134 236.888 53.5341 237.693 53.5341 238.636C53.5341 239.585 53.4148 240.395 53.1761 241.065C52.9375 241.733 52.5923 242.243 52.1406 242.595C51.6889 242.945 51.142 243.119 50.5 243.119ZM50.5 242.182C51.1364 242.182 51.6307 241.875 51.983 241.261C52.3352 240.648 52.5114 239.773 52.5114 238.636C52.5114 237.881 52.4304 237.237 52.2685 236.706C52.1094 236.175 51.8793 235.77 51.5781 235.491C51.2798 235.213 50.9205 235.074 50.5 235.074C49.8693 235.074 49.3764 235.385 49.0213 236.007C48.6662 236.626 48.4886 237.503 48.4886 238.636C48.4886 239.392 48.5682 240.034 48.7273 240.562C48.8864 241.091 49.1151 241.493 49.4134 241.768C49.7145 242.044 50.0767 242.182 50.5 242.182ZM59.6023 241.364V240.903C59.6023 240.585 59.6676 240.294 59.7983 240.03C59.9318 239.763 60.125 239.55 60.3778 239.391C60.6335 239.229 60.9432 239.148 61.3068 239.148C61.6761 239.148 61.9858 239.229 62.2358 239.391C62.4858 239.55 62.6747 239.763 62.8026 240.03C62.9304 240.294 62.9943 240.585 62.9943 240.903V241.364C62.9943 241.682 62.929 241.974 62.7983 242.241C62.6705 242.506 62.4801 242.719 62.2273 242.881C61.9773 243.04 61.6705 243.119 61.3068 243.119C60.9375 243.119 60.6264 243.04 60.3736 242.881C60.1207 242.719 59.929 242.506 59.7983 242.241C59.6676 241.974 59.6023 241.682 59.6023 241.364ZM60.4716 240.903V241.364C60.4716 241.628 60.5341 241.865 60.6591 242.075C60.7841 242.283 61 242.386 61.3068 242.386C61.6051 242.386 61.8153 242.283 61.9375 242.075C62.0625 241.865 62.125 241.628 62.125 241.364V240.903C62.125 240.639 62.0653 240.403 61.946 240.196C61.8267 239.986 61.6136 239.881 61.3068 239.881C61.0085 239.881 60.794 239.986 60.6634 240.196C60.5355 240.403 60.4716 240.639 60.4716 240.903ZM55.2557 236.369V235.909C55.2557 235.591 55.321 235.3 55.4517 235.036C55.5852 234.768 55.7784 234.555 56.0312 234.396C56.2869 234.234 56.5966 234.153 56.9602 234.153C57.3295 234.153 57.6392 234.234 57.8892 234.396C58.1392 234.555 58.3281 234.768 58.456 235.036C58.5838 235.3 58.6477 235.591 58.6477 235.909V236.369C58.6477 236.687 58.5824 236.98 58.4517 237.247C58.3239 237.511 58.1335 237.724 57.8807 237.886C57.6307 238.045 57.3239 238.125 56.9602 238.125C56.5909 238.125 56.2798 238.045 56.027 237.886C55.7741 237.724 55.5824 237.511 55.4517 237.247C55.321 236.98 55.2557 236.687 55.2557 236.369ZM56.125 235.909V236.369C56.125 236.634 56.1875 236.871 56.3125 237.081C56.4375 237.288 56.6534 237.392 56.9602 237.392C57.2585 237.392 57.4688 237.288 57.5909 237.081C57.7159 236.871 57.7784 236.634 57.7784 236.369V235.909C57.7784 235.645 57.7188 235.409 57.5994 235.202C57.4801 234.991 57.267 234.886 56.9602 234.886C56.6619 234.886 56.4474 234.991 56.3168 235.202C56.1889 235.409 56.125 235.645 56.125 235.909ZM55.5795 243L61.5795 234.273H62.5511L56.5511 243H55.5795Z" fill="#A6A1A9"/>
<rect width="678" height="1" transform="translate(72 238.5)" fill="url(#paint7_linear_110_26827)" fill-opacity="0.1"/>
<rect width="38" height="107.299" transform="translate(103.001 131.701)" fill="#937AFF"/>
<rect width="38" height="35" transform="translate(149 204)" fill="#937AFF"/>
<rect width="38" height="96.2667" transform="translate(238 142.733)" fill="#937AFF"/>
<rect width="38" height="59.5333" transform="translate(284 179.467)" fill="#937AFF"/>
<rect width="38" height="96.0783" transform="translate(372 142.922)" fill="#937AFF"/>
<rect width="38" height="22.4118" transform="translate(417.84 216.588)" fill="#937AFF"/>
<rect width="38" height="31.3765" transform="translate(506.24 207.624)" fill="#937AFF"/>
<rect width="38" height="127" transform="translate(552.002 112)" fill="#937AFF"/>
<rect width="39" height="54.4737" transform="translate(640.001 184.526)" fill="#937AFF"/>
<rect width="37" height="98.4884" transform="translate(687.001 140.512)" fill="#937AFF"/>
<path d="M141.443 262.455C141.392 262.023 141.184 261.688 140.821 261.449C140.457 261.21 140.011 261.091 139.483 261.091C139.096 261.091 138.758 261.153 138.468 261.278C138.181 261.403 137.957 261.575 137.795 261.794C137.636 262.013 137.556 262.261 137.556 262.54C137.556 262.773 137.612 262.973 137.723 263.141C137.836 263.305 137.981 263.443 138.157 263.554C138.333 263.662 138.518 263.751 138.711 263.822C138.904 263.891 139.082 263.946 139.244 263.989L140.13 264.227C140.358 264.287 140.61 264.369 140.889 264.474C141.17 264.58 141.439 264.723 141.694 264.905C141.953 265.084 142.166 265.314 142.333 265.595C142.501 265.876 142.585 266.222 142.585 266.631C142.585 267.102 142.461 267.528 142.214 267.909C141.97 268.29 141.612 268.592 141.14 268.817C140.672 269.041 140.102 269.153 139.431 269.153C138.806 269.153 138.265 269.053 137.808 268.851C137.353 268.649 136.995 268.368 136.734 268.007C136.475 267.646 136.329 267.227 136.295 266.75H137.386C137.414 267.08 137.525 267.352 137.718 267.568C137.914 267.781 138.162 267.94 138.46 268.045C138.761 268.148 139.085 268.199 139.431 268.199C139.835 268.199 140.197 268.134 140.518 268.003C140.839 267.869 141.093 267.685 141.281 267.449C141.468 267.21 141.562 266.932 141.562 266.614C141.562 266.324 141.481 266.088 141.319 265.906C141.157 265.724 140.944 265.577 140.68 265.463C140.416 265.349 140.13 265.25 139.824 265.165L138.75 264.858C138.068 264.662 137.528 264.382 137.13 264.018C136.733 263.655 136.534 263.179 136.534 262.591C136.534 262.102 136.666 261.676 136.93 261.312C137.197 260.946 137.555 260.662 138.004 260.46C138.456 260.256 138.96 260.153 139.517 260.153C140.079 260.153 140.579 260.254 141.017 260.456C141.454 260.655 141.801 260.928 142.056 261.274C142.315 261.621 142.451 262.014 142.466 262.455H141.443ZM146.112 269.153C145.697 269.153 145.321 269.075 144.983 268.919C144.645 268.76 144.376 268.531 144.178 268.233C143.979 267.932 143.879 267.568 143.879 267.142C143.879 266.767 143.953 266.463 144.101 266.23C144.249 265.994 144.446 265.81 144.693 265.676C144.94 265.543 145.213 265.443 145.511 265.378C145.813 265.31 146.115 265.256 146.419 265.216C146.817 265.165 147.139 265.126 147.386 265.101C147.636 265.072 147.818 265.026 147.932 264.96C148.048 264.895 148.107 264.781 148.107 264.619V264.585C148.107 264.165 147.991 263.838 147.761 263.605C147.534 263.372 147.189 263.256 146.726 263.256C146.246 263.256 145.869 263.361 145.597 263.571C145.324 263.781 145.132 264.006 145.021 264.244L144.067 263.903C144.237 263.506 144.464 263.196 144.749 262.974C145.036 262.75 145.348 262.594 145.686 262.506C146.027 262.415 146.362 262.369 146.692 262.369C146.902 262.369 147.143 262.395 147.416 262.446C147.692 262.494 147.957 262.595 148.213 262.749C148.472 262.902 148.686 263.134 148.857 263.443C149.027 263.753 149.112 264.168 149.112 264.688V269H148.107V268.114H148.055C147.987 268.256 147.874 268.408 147.714 268.57C147.555 268.732 147.344 268.869 147.08 268.983C146.815 269.097 146.493 269.153 146.112 269.153ZM146.266 268.25C146.663 268.25 146.999 268.172 147.271 268.016C147.547 267.859 147.754 267.658 147.893 267.411C148.036 267.163 148.107 266.903 148.107 266.631V265.71C148.064 265.761 147.97 265.808 147.825 265.851C147.683 265.891 147.518 265.926 147.331 265.957C147.146 265.986 146.966 266.011 146.79 266.034C146.616 266.054 146.476 266.071 146.368 266.085C146.107 266.119 145.862 266.175 145.635 266.251C145.411 266.325 145.229 266.437 145.089 266.588C144.953 266.736 144.885 266.937 144.885 267.193C144.885 267.543 145.014 267.807 145.273 267.986C145.534 268.162 145.865 268.25 146.266 268.25ZM153.794 262.455V263.307H150.402V262.455H153.794ZM151.391 260.886H152.397V267.125C152.397 267.409 152.438 267.622 152.52 267.764C152.605 267.903 152.713 267.997 152.844 268.045C152.978 268.091 153.118 268.114 153.266 268.114C153.377 268.114 153.468 268.108 153.539 268.097C153.61 268.082 153.667 268.071 153.709 268.062L153.914 268.966C153.846 268.991 153.75 269.017 153.628 269.043C153.506 269.071 153.351 269.085 153.164 269.085C152.88 269.085 152.601 269.024 152.328 268.902C152.059 268.78 151.834 268.594 151.655 268.344C151.479 268.094 151.391 267.778 151.391 267.398V260.886Z" fill="#A6A1A9"/>
<path d="M274.835 262.455C274.784 262.023 274.577 261.688 274.213 261.449C273.85 261.21 273.404 261.091 272.875 261.091C272.489 261.091 272.151 261.153 271.861 261.278C271.574 261.403 271.35 261.575 271.188 261.794C271.029 262.013 270.949 262.261 270.949 262.54C270.949 262.773 271.004 262.973 271.115 263.141C271.229 263.305 271.374 263.443 271.55 263.554C271.726 263.662 271.911 263.751 272.104 263.822C272.297 263.891 272.475 263.946 272.637 263.989L273.523 264.227C273.75 264.287 274.003 264.369 274.281 264.474C274.563 264.58 274.831 264.723 275.087 264.905C275.345 265.084 275.558 265.314 275.726 265.595C275.894 265.876 275.977 266.222 275.977 266.631C275.977 267.102 275.854 267.528 275.607 267.909C275.362 268.29 275.004 268.592 274.533 268.817C274.064 269.041 273.494 269.153 272.824 269.153C272.199 269.153 271.658 269.053 271.2 268.851C270.746 268.649 270.388 268.368 270.127 268.007C269.868 267.646 269.722 267.227 269.688 266.75H270.779C270.807 267.08 270.918 267.352 271.111 267.568C271.307 267.781 271.554 267.94 271.852 268.045C272.154 268.148 272.477 268.199 272.824 268.199C273.227 268.199 273.59 268.134 273.911 268.003C274.232 267.869 274.486 267.685 274.673 267.449C274.861 267.21 274.955 266.932 274.955 266.614C274.955 266.324 274.874 266.088 274.712 265.906C274.55 265.724 274.337 265.577 274.073 265.463C273.808 265.349 273.523 265.25 273.216 265.165L272.142 264.858C271.46 264.662 270.921 264.382 270.523 264.018C270.125 263.655 269.926 263.179 269.926 262.591C269.926 262.102 270.058 261.676 270.323 261.312C270.59 260.946 270.948 260.662 271.396 260.46C271.848 260.256 272.352 260.153 272.909 260.153C273.472 260.153 273.972 260.254 274.409 260.456C274.847 260.655 275.193 260.928 275.449 261.274C275.708 261.621 275.844 262.014 275.858 262.455H274.835ZM281.704 266.324V262.455H282.709V269H281.704V267.892H281.635C281.482 268.224 281.243 268.507 280.92 268.74C280.596 268.97 280.187 269.085 279.692 269.085C279.283 269.085 278.92 268.996 278.601 268.817C278.283 268.635 278.033 268.362 277.851 267.999C277.67 267.632 277.579 267.17 277.579 266.614V262.455H278.584V266.545C278.584 267.023 278.718 267.403 278.985 267.688C279.255 267.972 279.599 268.114 280.016 268.114C280.266 268.114 280.52 268.05 280.779 267.922C281.04 267.794 281.259 267.598 281.435 267.334C281.614 267.07 281.704 266.733 281.704 266.324ZM285.557 265.062V269H284.551V262.455H285.523V263.477H285.608C285.762 263.145 285.994 262.878 286.307 262.676C286.619 262.472 287.023 262.369 287.517 262.369C287.96 262.369 288.348 262.46 288.681 262.642C289.013 262.821 289.271 263.094 289.456 263.46C289.641 263.824 289.733 264.284 289.733 264.841V269H288.727V264.909C288.727 264.395 288.594 263.994 288.327 263.707C288.06 263.418 287.693 263.273 287.227 263.273C286.906 263.273 286.619 263.342 286.367 263.482C286.117 263.621 285.919 263.824 285.774 264.091C285.629 264.358 285.557 264.682 285.557 265.062Z" fill="#A6A1A9"/>
<path d="M402.286 260.273H403.548L406.514 267.517H406.616L409.582 260.273H410.843V269H409.854V262.369H409.769L407.042 269H406.087L403.36 262.369H403.275V269H402.286V260.273ZM415.485 269.136C414.894 269.136 414.375 268.996 413.929 268.714C413.486 268.433 413.14 268.04 412.89 267.534C412.642 267.028 412.519 266.437 412.519 265.761C412.519 265.08 412.642 264.484 412.89 263.976C413.14 263.467 413.486 263.072 413.929 262.791C414.375 262.51 414.894 262.369 415.485 262.369C416.076 262.369 416.593 262.51 417.036 262.791C417.482 263.072 417.829 263.467 418.076 263.976C418.326 264.484 418.451 265.08 418.451 265.761C418.451 266.437 418.326 267.028 418.076 267.534C417.829 268.04 417.482 268.433 417.036 268.714C416.593 268.996 416.076 269.136 415.485 269.136ZM415.485 268.233C415.934 268.233 416.303 268.118 416.593 267.888C416.883 267.658 417.097 267.355 417.236 266.98C417.375 266.605 417.445 266.199 417.445 265.761C417.445 265.324 417.375 264.916 417.236 264.538C417.097 264.161 416.883 263.855 416.593 263.622C416.303 263.389 415.934 263.273 415.485 263.273C415.036 263.273 414.667 263.389 414.377 263.622C414.087 263.855 413.873 264.161 413.733 264.538C413.594 264.916 413.525 265.324 413.525 265.761C413.525 266.199 413.594 266.605 413.733 266.98C413.873 267.355 414.087 267.658 414.377 267.888C414.667 268.118 415.036 268.233 415.485 268.233ZM420.992 265.062V269H419.986V262.455H420.957V263.477H421.043C421.196 263.145 421.429 262.878 421.742 262.676C422.054 262.472 422.457 262.369 422.952 262.369C423.395 262.369 423.783 262.46 424.115 262.642C424.448 262.821 424.706 263.094 424.891 263.46C425.075 263.824 425.168 264.284 425.168 264.841V269H424.162V264.909C424.162 264.395 424.028 263.994 423.761 263.707C423.494 263.418 423.128 263.273 422.662 263.273C422.341 263.273 422.054 263.342 421.801 263.482C421.551 263.621 421.354 263.824 421.209 264.091C421.064 264.358 420.992 264.682 420.992 265.062Z" fill="#A6A1A9"/>
<path d="M538.683 261.21V260.273H545.228V261.21H542.484V269H541.427V261.21H538.683ZM549.957 266.324V262.455H550.963V269H549.957V267.892H549.889C549.735 268.224 549.497 268.507 549.173 268.74C548.849 268.97 548.44 269.085 547.946 269.085C547.537 269.085 547.173 268.996 546.855 268.817C546.537 268.635 546.287 268.362 546.105 267.999C545.923 267.632 545.832 267.17 545.832 266.614V262.455H546.838V266.545C546.838 267.023 546.971 267.403 547.238 267.688C547.508 267.972 547.852 268.114 548.27 268.114C548.52 268.114 548.774 268.05 549.032 267.922C549.294 267.794 549.512 267.598 549.689 267.334C549.868 267.07 549.957 266.733 549.957 266.324ZM555.549 269.136C554.918 269.136 554.374 268.997 553.917 268.719C553.462 268.438 553.112 268.045 552.864 267.543C552.62 267.037 552.498 266.449 552.498 265.778C552.498 265.108 552.62 264.517 552.864 264.006C553.112 263.491 553.455 263.091 553.896 262.804C554.339 262.514 554.856 262.369 555.447 262.369C555.788 262.369 556.124 262.426 556.457 262.54C556.789 262.653 557.092 262.838 557.364 263.094C557.637 263.347 557.854 263.682 558.016 264.099C558.178 264.517 558.259 265.031 558.259 265.642V266.068H553.214V265.199H557.237C557.237 264.83 557.163 264.5 557.015 264.21C556.87 263.92 556.663 263.692 556.393 263.524C556.126 263.357 555.81 263.273 555.447 263.273C555.046 263.273 554.7 263.372 554.407 263.571C554.117 263.767 553.894 264.023 553.738 264.338C553.582 264.653 553.504 264.991 553.504 265.352V265.932C553.504 266.426 553.589 266.845 553.759 267.189C553.933 267.53 554.173 267.79 554.479 267.969C554.786 268.145 555.143 268.233 555.549 268.233C555.813 268.233 556.052 268.196 556.265 268.122C556.481 268.045 556.667 267.932 556.823 267.781C556.979 267.628 557.1 267.437 557.185 267.21L558.157 267.483C558.055 267.812 557.883 268.102 557.641 268.352C557.4 268.599 557.102 268.793 556.746 268.932C556.391 269.068 555.992 269.136 555.549 269.136Z" fill="#A6A1A9"/>
<path d="M673.347 269L670.961 260.273H672.035L673.858 267.381H673.944L675.802 260.273H676.995L678.853 267.381H678.938L680.762 260.273H681.836L679.449 269H678.358L676.432 262.045H676.364L674.438 269H673.347ZM685.151 269.136C684.52 269.136 683.976 268.997 683.519 268.719C683.064 268.438 682.714 268.045 682.466 267.543C682.222 267.037 682.1 266.449 682.1 265.778C682.1 265.108 682.222 264.517 682.466 264.006C682.714 263.491 683.057 263.091 683.498 262.804C683.941 262.514 684.458 262.369 685.049 262.369C685.39 262.369 685.726 262.426 686.059 262.54C686.391 262.653 686.694 262.838 686.966 263.094C687.239 263.347 687.456 263.682 687.618 264.099C687.78 264.517 687.861 265.031 687.861 265.642V266.068H682.816V265.199H686.839C686.839 264.83 686.765 264.5 686.617 264.21C686.472 263.92 686.265 263.692 685.995 263.524C685.728 263.357 685.412 263.273 685.049 263.273C684.648 263.273 684.302 263.372 684.009 263.571C683.719 263.767 683.496 264.023 683.34 264.338C683.184 264.653 683.106 264.991 683.106 265.352V265.932C683.106 266.426 683.191 266.845 683.361 267.189C683.535 267.53 683.775 267.79 684.081 267.969C684.388 268.145 684.745 268.233 685.151 268.233C685.415 268.233 685.654 268.196 685.867 268.122C686.083 268.045 686.269 267.932 686.425 267.781C686.581 267.628 686.702 267.437 686.787 267.21L687.759 267.483C687.657 267.812 687.485 268.102 687.243 268.352C687.002 268.599 686.704 268.793 686.349 268.932C685.993 269.068 685.594 269.136 685.151 269.136ZM691.863 269.136C691.317 269.136 690.836 268.999 690.418 268.723C690.001 268.445 689.674 268.053 689.438 267.547C689.202 267.038 689.084 266.438 689.084 265.744C689.084 265.057 689.202 264.46 689.438 263.955C689.674 263.449 690.002 263.058 690.422 262.783C690.843 262.507 691.329 262.369 691.88 262.369C692.306 262.369 692.643 262.44 692.89 262.582C693.14 262.722 693.33 262.881 693.461 263.06C693.594 263.236 693.698 263.381 693.772 263.494H693.857V260.273H694.863V269H693.891V267.994H693.772C693.698 268.114 693.593 268.264 693.456 268.446C693.32 268.625 693.126 268.786 692.873 268.928C692.62 269.067 692.283 269.136 691.863 269.136ZM691.999 268.233C692.403 268.233 692.743 268.128 693.022 267.918C693.3 267.705 693.512 267.411 693.657 267.036C693.802 266.658 693.874 266.222 693.874 265.727C693.874 265.239 693.803 264.811 693.661 264.445C693.519 264.075 693.309 263.788 693.03 263.584C692.752 263.376 692.408 263.273 691.999 263.273C691.573 263.273 691.218 263.382 690.934 263.601C690.653 263.817 690.441 264.111 690.299 264.483C690.16 264.852 690.09 265.267 690.09 265.727C690.09 266.193 690.161 266.616 690.303 266.997C690.448 267.375 690.661 267.676 690.942 267.901C691.226 268.122 691.579 268.233 691.999 268.233Z" fill="#A6A1A9"/>
</g>
<defs>
<filter id="filter0_d_110_26827" x="0" y="0" width="778" height="307" filterUnits="userSpaceOnUse" color-interpolation-filters="sRGB">
<feFlood flood-opacity="0" result="BackgroundImageFix"/>
<feColorMatrix in="SourceAlpha" type="matrix" values="0 0 0 0 0 0 0 0 0 0 0 0 0 0 0 0 0 0 127 0" result="hardAlpha"/>
<feOffset dy="1"/>
<feGaussianBlur stdDeviation="2"/>
<feComposite in2="hardAlpha" operator="out"/>
<feColorMatrix type="matrix" values="0 0 0 0 0.0588235 0 0 0 0 0.0901961 0 0 0 0 0.164706 0 0 0 0.04 0"/>
<feBlend mode="normal" in2="BackgroundImageFix" result="effect1_dropShadow_110_26827"/>
<feBlend mode="normal" in="SourceGraphic" in2="effect1_dropShadow_110_26827" result="shape"/>
</filter>
<linearGradient id="paint0_linear_110_26827" x1="632.727" y1="32.6" x2="694.085" y2="98.814" gradientUnits="userSpaceOnUse">
<stop stop-color="white" stop-opacity="0"/>
<stop offset="1" stop-color="#1B2758"/>
</linearGradient>
<linearGradient id="paint1_linear_110_26827" x1="690" y1="27" x2="690" y2="67" gradientUnits="userSpaceOnUse">
<stop stop-color="#9494A2"/>
<stop offset="1" stop-color="#666666"/>
</linearGradient>
<linearGradient id="paint2_linear_110_26827" x1="0" y1="0.5" x2="678" y2="0.5" gradientUnits="userSpaceOnUse">
<stop stop-color="white" stop-opacity="0"/>
<stop offset="0.495192" stop-color="white"/>
<stop offset="1" stop-color="white" stop-opacity="0"/>
</linearGradient>
<linearGradient id="paint3_linear_110_26827" x1="0" y1="0.5" x2="678" y2="0.5" gradientUnits="userSpaceOnUse">
<stop stop-color="white" stop-opacity="0"/>
<stop offset="0.495192" stop-color="white"/>
<stop offset="1" stop-color="white" stop-opacity="0"/>
</linearGradient>
<linearGradient id="paint4_linear_110_26827" x1="0" y1="0.5" x2="678" y2="0.5" gradientUnits="userSpaceOnUse">
<stop stop-color="white" stop-opacity="0"/>
<stop offset="0.495192" stop-color="white"/>
<stop offset="1" stop-color="white" stop-opacity="0"/>
</linearGradient>
<linearGradient id="paint5_linear_110_26827" x1="0" y1="0.5" x2="678" y2="0.5" gradientUnits="userSpaceOnUse">
<stop stop-color="white" stop-opacity="0"/>
<stop offset="0.495192" stop-color="white"/>
<stop offset="1" stop-color="white" stop-opacity="0"/>
</linearGradient>
<linearGradient id="paint6_linear_110_26827" x1="0" y1="0.5" x2="678" y2="0.5" gradientUnits="userSpaceOnUse">
<stop stop-color="white" stop-opacity="0"/>
<stop offset="0.495192" stop-color="white"/>
<stop offset="1" stop-color="white" stop-opacity="0"/>
</linearGradient>
<linearGradient id="paint7_linear_110_26827" x1="0" y1="0.5" x2="678" y2="0.5" gradientUnits="userSpaceOnUse">
<stop stop-color="white" stop-opacity="0"/>
<stop offset="0.495192" stop-color="white"/>
<stop offset="1" stop-color="white" stop-opacity="0"/>
</linearGradient>
</defs>
</svg>
