<svg width="48" height="48" viewBox="0 0 48 48" fill="none" xmlns="http://www.w3.org/2000/svg">
<path fill-rule="evenodd" clip-rule="evenodd" d="M28.6766 3.80976C28.5042 3.5105 27.931 3.50816 26.7848 3.50346C25.936 3.5 25.0466 3.5 24.1146 3.5H23.8856C19.5042 3.49998 16.0629 3.49996 13.376 3.86118C10.6227 4.23136 8.43822 5.00544 6.72182 6.72182C5.00544 8.43822 4.23136 10.6227 3.86118 13.376C3.49996 16.0629 3.49998 19.5043 3.5 23.8856V24.1144C3.49998 28.4958 3.49996 31.9372 3.86118 34.624C4.23136 37.3772 5.00544 39.5618 6.72182 41.2782C8.43822 42.9946 10.6227 43.7686 13.376 44.1388C16.0629 44.5 19.5043 44.5 23.8856 44.5H24.1144C28.4958 44.5 31.9372 44.5 34.624 44.1388C37.3772 43.7686 39.5618 42.9946 41.2782 41.2782C42.9946 39.5618 43.7686 37.3772 44.1388 34.624C44.5 31.9372 44.5 28.4958 44.5 24.1144V23.8856C44.5 22.9536 44.5 22.064 44.4966 21.2152C44.4918 20.0688 44.4894 19.4957 44.1902 19.3235C43.891 19.1512 43.3368 19.47 42.2286 20.1076C40.689 20.9934 38.9036 21.5 37 21.5C31.201 21.5 26.5 16.799 26.5 11C26.5 9.0963 27.0066 7.31094 27.8924 5.77136C28.53 4.66312 28.8488 4.109 28.6766 3.80976ZM25.5 19C25.5 18.1716 24.8284 17.5 24 17.5C23.1716 17.5 22.5 18.1716 22.5 19V35C22.5 35.8284 23.1716 36.5 24 36.5C24.8284 36.5 25.5 35.8284 25.5 35V19ZM35.5 27C35.5 26.1716 34.8284 25.5 34 25.5C33.1716 25.5 32.5 26.1716 32.5 27V35C32.5 35.8284 33.1716 36.5 34 36.5C34.8284 36.5 35.5 35.8284 35.5 35V27ZM15.5 29C15.5 28.1716 14.8284 27.5 14 27.5C13.1716 27.5 12.5 28.1716 12.5 29V35C12.5 35.8284 13.1716 36.5 14 36.5C14.8284 36.5 15.5 35.8284 15.5 35V29Z" fill="white"/>
<path opacity="0.2" d="M29.5 11C29.5 6.85786 32.8578 3.5 37 3.5C41.1422 3.5 44.5 6.85786 44.5 11C44.5 15.1421 41.1422 18.5 37 18.5C32.8578 18.5 29.5 15.1421 29.5 11Z" fill="white"/>
</svg>
