<svg width="48" height="48" viewBox="0 0 48 48" fill="none" xmlns="http://www.w3.org/2000/svg">
<path fill-rule="evenodd" clip-rule="evenodd" d="M16.7267 2.69192C17.4397 2.28708 18.3457 2.5298 18.7608 3.2369C21.1096 7.23744 26.8938 7.2375 29.2424 3.2371C29.6574 2.53 30.5634 2.28726 31.2766 2.6921L38.2048 6.62574C38.554 6.82402 38.809 7.15406 38.913 7.54196C39.017 7.92988 38.961 8.34326 38.7576 8.68958C36.4806 12.5683 39.3896 17.5628 44 17.5628C44.8284 17.5628 45.5 18.2344 45.5 19.0628V26.93C45.5 27.7584 44.8284 28.43 44 28.43L40.7514 28.608C40.1706 27.0382 38.6738 25.996 37 25.996C35.3262 25.996 33.8294 27.0382 33.2486 28.608L32.7328 30.002C32.3634 31 32.1058 31.653 31.9578 31.9742C31.6366 32.1222 31.004 32.3596 30.006 32.7288L28.6118 33.2446C27.0422 33.8256 26 35.3224 26 36.996V40.0856C23.4156 39.1986 20.3236 40.0886 18.7576 42.7558C18.3425 43.4628 17.4365 43.7056 16.7235 43.3008L9.7953 39.3672C9.44606 39.1688 9.19092 38.8388 9.087 38.4508C8.98308 38.063 9.03904 37.6496 9.24236 37.3032C11.5195 33.4246 8.61034 28.43 4 28.43C3.17158 28.43 2.5 27.7584 2.5 26.93V19.0628C2.5 18.2344 3.17158 17.5628 4 17.5628C8.6115 17.5628 11.5222 12.5672 9.24552 8.68938C9.0422 8.34308 8.98624 7.92968 9.09016 7.54178C9.19408 7.15386 9.44922 6.82382 9.79846 6.62554L16.7267 2.69192ZM24 29.996C27.866 29.996 31 26.862 31 22.996C31 19.1301 27.866 15.9961 24 15.9961C20.134 15.9961 17 19.1301 17 22.996C17 26.862 20.134 29.996 24 29.996Z" fill="white"/>
<path opacity="0.2" d="M37 28.5C37.6276 28.5 38.189 28.8908 38.4068 29.4794L38.9226 30.8734C39.6466 32.8302 39.8776 33.3618 40.2578 33.7422C40.6382 34.1224 41.1698 34.3534 43.1266 35.0774L44.5206 35.5932C45.1092 35.811 45.5 36.3724 45.5 37C45.5 37.6276 45.1092 38.189 44.5206 38.4068L43.1266 38.9226C41.1698 39.6466 40.6382 39.8776 40.2578 40.2578C39.8776 40.6382 39.6466 41.1698 38.9226 43.1266L38.4068 44.5206C38.189 45.1092 37.6276 45.5 37 45.5C36.3724 45.5 35.811 45.1092 35.5932 44.5206L35.0774 43.1266C34.3534 41.1698 34.1224 40.6382 33.7422 40.2578C33.3618 39.8776 32.8302 39.6466 30.8734 38.9226L29.4794 38.4068C28.8908 38.189 28.5 37.6276 28.5 37C28.5 36.3724 28.8908 35.811 29.4794 35.5932L30.8734 35.0774C32.8302 34.3534 33.3618 34.1224 33.7422 33.7422C34.1224 33.3618 34.3534 32.8302 35.0774 30.8734L35.5932 29.4794C35.811 28.8908 36.3724 28.5 37 28.5Z" fill="white"/>
</svg>
