<svg width="48" height="48" viewBox="0 0 48 48" fill="none" xmlns="http://www.w3.org/2000/svg">
<path d="M7.5 16C7.5 10.201 12.201 5.5 18 5.5C23.799 5.5 28.5 10.201 28.5 16C28.5 20.5682 25.5828 24.4548 21.5098 25.899C28.3796 27.4894 33.5 33.6468 33.5 41C33.5 41.8284 32.8284 42.5 32 42.5H4C3.17158 42.5 2.5 41.8284 2.5 41C2.5 33.6468 7.62044 27.4894 14.4902 25.899C10.4172 24.4548 7.5 20.5682 7.5 16Z" fill="white"/>
<path opacity="0.2" fill-rule="evenodd" clip-rule="evenodd" d="M31.5 19C31.5 17.8954 32.3954 17 33.5 17H43.5C44.6046 17 45.5 17.8954 45.5 19C45.5 20.1046 44.6046 21 43.5 21H33.5C32.3954 21 31.5 20.1046 31.5 19ZM31.5 26C31.5 24.8954 32.3954 24 33.5 24H43.5C44.6046 24 45.5 24.8954 45.5 26C45.5 27.1046 44.6046 28 43.5 28H33.5C32.3954 28 31.5 27.1046 31.5 26ZM37.5 33C37.5 31.8954 38.3954 31 39.5 31H43.5C44.6046 31 45.5 31.8954 45.5 33C45.5 34.1046 44.6046 35 43.5 35H39.5C38.3954 35 37.5 34.1046 37.5 33Z" fill="white"/>
</svg>
