<svg width="48" height="48" viewBox="0 0 48 48" fill="none" xmlns="http://www.w3.org/2000/svg">
<path fill-rule="evenodd" clip-rule="evenodd" d="M19.6044 35.5L28.3941 35.5C29.9158 35.5 31.1947 35.5001 32.2272 35.3719C33.322 35.2361 34.3191 34.9388 35.1811 34.2171C36.0431 33.4954 36.511 32.5661 36.8372 31.5122C37.1449 30.5183 37.3697 29.2593 37.6371 27.7614L38.9776 20.2546C39.5438 17.0844 39.9973 14.545 40.0682 12.5342C40.1416 10.4568 39.8223 8.6648 38.5836 7.1854C37.3448 5.7058 35.6369 5.0764 33.579 4.7836C31.5871 4.5 29.0076 4.5 25.787 4.5L22.2116 4.5C18.9912 4.5 16.4116 4.5 14.4196 4.7836C12.3618 5.0764 10.6538 5.7058 9.41501 7.1854C8.17641 8.6648 7.85701 10.4568 7.93041 12.5342C8.00141 14.545 8.45481 17.0842 9.02101 20.2546L10.3616 27.7614C10.629 29.2594 10.8538 30.5183 11.1614 31.5122C11.4876 32.5661 11.9556 33.4954 12.8176 34.2171C13.6796 34.9388 14.6766 35.2361 15.7714 35.3719C16.804 35.5001 18.0828 35.5 19.6044 35.5ZM22.5 27C22.5 27.8284 23.1716 28.5 24 28.5C24.8284 28.5 25.5 27.8284 25.5 27L25.5 16.6214L27.9394 19.0606C28.5251 19.6464 29.4749 19.6464 30.0607 19.0606C30.6464 18.4748 30.6464 17.5252 30.0607 16.9394L25.0606 11.9394C24.4748 11.3536 23.5252 11.3536 22.9394 11.9394L17.9394 16.9394C17.3536 17.5252 17.3536 18.4748 17.9394 19.0606C18.5252 19.6464 19.4748 19.6464 20.0606 19.0606L22.5 16.6214L22.5 27Z" fill="white"/>
<path opacity="0.3" fill-rule="evenodd" clip-rule="evenodd" d="M36.1258 43.5C36.0807 43.5 36.0356 43.5 35.9902 43.5L11.8744 43.5C10.1064 43.5001 8.5752 43.5002 7.3478 43.3288C6.0234 43.1438 4.7616 42.7258 3.7462 41.671C2.741 40.6269 2.3526 39.3476 2.1794 38.0088C2.0162 36.7491 2.0164 35.1723 2.0164 33.3252L2.0164 33.1965C2.0164 32.6912 2.012 32.2058 2.0078 31.7435C1.9968 30.5385 1.9874 29.4909 2.061 28.6597C2.1754 27.3692 2.5112 26.1684 3.5272 25.113C4.2932 24.3172 5.5594 24.293 6.355 25.0592C7.1508 25.8252 7.175 27.0912 6.4088 27.887C6.2542 28.0477 6.1142 28.2379 6.0454 29.013C5.99 29.6391 5.9968 30.3868 6.0066 31.466C6.0112 31.965 6.0164 32.5349 6.0164 33.1965C6.0164 35.2081 6.0204 36.5231 6.1462 37.4954C6.2656 38.4177 6.4624 38.725 6.628 38.8969C6.7832 39.0582 7.0486 39.2482 7.901 39.3672C8.819 39.4954 10.0672 39.5 12.0098 39.5L35.9902 39.5C37.933 39.5 39.1812 39.4954 40.0991 39.3672C40.9515 39.2482 41.217 39.0582 41.3722 38.8969C41.5377 38.725 41.7345 38.4177 41.8539 37.4954C41.9798 36.5231 41.9837 35.2081 41.9837 33.1965C41.9837 32.5315 41.989 31.9591 41.9936 31.4583C42.0036 30.383 42.0105 29.6373 41.9553 29.0123C41.8868 28.2371 41.7469 28.0473 41.5926 27.887C40.8266 27.0912 40.8506 25.8252 41.6464 25.0592C42.4422 24.293 43.7083 24.3172 44.4743 25.113C45.4907 26.1688 45.8258 27.37 45.9398 28.6604C46.0131 29.4897 46.0035 30.5351 45.9924 31.7372C45.9882 32.2014 45.9837 32.689 45.9837 33.1965C45.9837 33.2395 45.9837 33.2825 45.9837 33.3252C45.9838 35.1724 45.9839 36.7491 45.8208 38.0088C45.6475 39.3476 45.2591 40.6269 44.2539 41.671C43.2386 42.7258 41.9768 43.1438 40.6524 43.3288C39.4249 43.5002 37.8938 43.5001 36.1258 43.5Z" fill="white"/>
</svg>
